<?xml version="1.0" encoding="UTF-8" standalone="no"?>
<!-- Generator: Adobe Illustrator 17.1.0, SVG Export Plug-In . SVG Version: 6.00 Build 0)  -->

<svg
   xmlns:dc="http://purl.org/dc/elements/1.1/"
   xmlns:cc="http://creativecommons.org/ns#"
   xmlns:rdf="http://www.w3.org/1999/02/22-rdf-syntax-ns#"
   xmlns:svg="http://www.w3.org/2000/svg"
   xmlns="http://www.w3.org/2000/svg"
   xmlns:sodipodi="http://sodipodi.sourceforge.net/DTD/sodipodi-0.dtd"
   xmlns:inkscape="http://www.inkscape.org/namespaces/inkscape"
   version="1.1"
   id="Layer_1"
   x="0px"
   y="0px"
   viewBox="0 0 743.40002 273.60001"
   enable-background="new 0 0 960 560"
   xml:space="preserve"
   sodipodi:docname="internal-systems.svg"
   width="743.40002"
   height="273.60001"
   inkscape:version="0.92.4 (5da689c313, 2019-01-14)"><metadata
   id="metadata164"><rdf:RDF><cc:Work
       rdf:about=""><dc:format>image/svg+xml</dc:format><dc:type
         rdf:resource="http://purl.org/dc/dcmitype/StillImage" /><dc:title></dc:title></cc:Work></rdf:RDF></metadata><defs
   id="defs162" /><sodipodi:namedview
   pagecolor="#ffffff"
   bordercolor="#666666"
   borderopacity="1"
   objecttolerance="10"
   gridtolerance="10"
   guidetolerance="10"
   inkscape:pageopacity="0"
   inkscape:pageshadow="2"
   inkscape:window-width="778"
   inkscape:window-height="481"
   id="namedview160"
   showgrid="false"
   fit-margin-top="0"
   fit-margin-left="0"
   fit-margin-right="0"
   fit-margin-bottom="0"
   inkscape:zoom="0.36770833"
   inkscape:cx="371.7"
   inkscape:cy="136.8"
   inkscape:window-x="317"
   inkscape:window-y="165"
   inkscape:window-maximized="0"
   inkscape:current-layer="Layer_1" />
<polygon
   stroke-miterlimit="10"
   points="179.2,152.2 117.3,214.1 117.3,345.9 179.2,407.8 780.8,407.8 842.7,345.9 842.7,214.1 780.8,152.2 "
   id="polygon127"
   style="fill:none;stroke:#303030;stroke-width:18;stroke-miterlimit:10"
   transform="translate(-108.3,-143.2)" />
<g
   id="g157"
   transform="translate(-108.3,-143.2)">
	<rect
   x="196.89999"
   y="194.5"
   stroke-miterlimit="10"
   width="165.89999"
   height="171"
   id="rect129"
   style="stroke:#000000;stroke-width:4.76130009;stroke-miterlimit:10" />
	<rect
   x="397.10001"
   y="194.5"
   stroke-miterlimit="10"
   width="165.89999"
   height="171"
   id="rect131"
   style="stroke:#000000;stroke-width:4.76130009;stroke-miterlimit:10" />
	<rect
   x="597.20001"
   y="194.5"
   stroke-miterlimit="10"
   width="165.89999"
   height="171"
   id="rect133"
   style="stroke:#000000;stroke-width:4.76130009;stroke-miterlimit:10" />
	
		<rect
   x="220.10001"
   y="294.10001"
   stroke-miterlimit="10"
   width="119.4"
   height="19.4"
   id="rect135"
   style="fill:#ffffff;stroke:#ffffff;stroke-width:4.76130009;stroke-miterlimit:10" />
	
		<rect
   x="220.10001"
   y="322.70001"
   stroke-miterlimit="10"
   width="119.4"
   height="19.4"
   id="rect137"
   style="fill:#ffffff;stroke:#ffffff;stroke-width:4.76130009;stroke-miterlimit:10" />
	
		<rect
   x="220.10001"
   y="265.5"
   stroke-miterlimit="10"
   width="119.4"
   height="19.4"
   id="rect139"
   style="fill:#ffffff;stroke:#ffffff;stroke-width:4.76130009;stroke-miterlimit:10" />
	<path
   stroke-miterlimit="10"
   d="m 279.8,204.4 c -19.3,0 -34.9,15.6 -34.9,34.9 0,19.3 15.6,34.9 34.9,34.9 19.3,0 34.9,-15.6 34.9,-34.9 0,-19.3 -15.6,-34.9 -34.9,-34.9 z m 0,53.2 c -10.1,0 -18.3,-8.2 -18.3,-18.3 0,-10.1 8.2,-18.3 18.3,-18.3 10.1,0 18.3,8.2 18.3,18.3 0,10.1 -8.2,18.3 -18.3,18.3 z"
   id="path141"
   inkscape:connector-curvature="0"
   style="fill:#ffffff;stroke:#ffffff;stroke-width:4.76130009;stroke-miterlimit:10" />
	<ellipse
   stroke-miterlimit="10"
   cx="480"
   cy="280"
   rx="63.799999"
   ry="74.5"
   id="ellipse143"
   style="stroke:#ffffff;stroke-width:5.13619995;stroke-miterlimit:10" />
	<circle
   stroke-miterlimit="10"
   cx="480"
   cy="228.5"
   r="15.8"
   id="circle145"
   style="fill:#ffffff;stroke:#ffffff;stroke-width:5.13619995;stroke-miterlimit:10" />
	<path
   stroke-miterlimit="10"
   d="M 427.6,250.5 H 531 c 0,0 -46.9,7.1 -51.7,93.1 0,0 4.4,-85.4 -51.7,-93.1 z"
   id="path147"
   inkscape:connector-curvature="0"
   style="fill:#ffffff;stroke:#ffffff;stroke-width:5.13619995;stroke-miterlimit:10" />
	<circle
   stroke-miterlimit="10"
   cx="680.20001"
   cy="280"
   r="10.3"
   id="circle149"
   style="fill:#ffffff;stroke:#ffffff;stroke-width:3.75830007;stroke-miterlimit:10" />
	
		<ellipse
   transform="matrix(0.7431,-0.6691,0.6691,0.7431,-12.654,527.0353)"
   stroke-miterlimit="10"
   cx="680.20001"
   cy="280"
   rx="17.6"
   ry="75.5"
   id="ellipse151"
   style="fill:none;stroke:#ffffff;stroke-width:4.84919977;stroke-miterlimit:10" />
	
		<ellipse
   transform="matrix(-0.5878,-0.809,0.809,-0.5878,853.4232,994.8409)"
   stroke-miterlimit="10"
   cx="680.20001"
   cy="280"
   rx="17.6"
   ry="75.5"
   id="ellipse153"
   style="fill:none;stroke:#ffffff;stroke-width:4.84919977;stroke-miterlimit:10" />
	
		<ellipse
   transform="matrix(-0.9781,-0.2079,0.2079,-0.9781,1287.2416,695.2945)"
   stroke-miterlimit="10"
   cx="680.20001"
   cy="280"
   rx="17.6"
   ry="75.5"
   id="ellipse155"
   style="fill:none;stroke:#ffffff;stroke-width:4.84919977;stroke-miterlimit:10" />
</g>
</svg>