<?xml version="1.0" encoding="utf-8"?>
<!-- Generator: Adobe Illustrator 17.1.0, SVG Export Plug-In . SVG Version: 6.00 Build 0)  -->
<!DOCTYPE svg PUBLIC "-//W3C//DTD SVG 1.1//EN" "http://www.w3.org/Graphics/SVG/1.1/DTD/svg11.dtd">
<svg version="1.1" id="Layer_1" xmlns="http://www.w3.org/2000/svg" xmlns:xlink="http://www.w3.org/1999/xlink" x="0px" y="0px"
	 viewBox="0 0 960 560" enable-background="new 0 0 960 560" xml:space="preserve">
<polygon fill="none" stroke="#000000" stroke-width="14" stroke-miterlimit="10" points="706.8,390.2 480,500.4 253.2,390.2 
	253.2,169.8 480,59.6 706.8,169.8 "/>
<g>
	<path d="M443,271.2c-7.7-5.2-13.5-11.5-17.3-18.9c-3.9-7.4-5.8-15.9-5.8-25.7c0-17.7,5.3-31.6,15.9-41.6c10.6-10,25.4-15,44.2-15
		c18.8,0,33.6,5,44.2,15c10.6,10,15.9,23.9,15.9,41.6c0,9.7-1.9,18.3-5.8,25.7c-3.9,7.4-9.6,13.7-17.3,18.9
		c8.5,5.3,15.1,12.6,19.6,21.8c4.5,9.2,6.8,20.1,6.8,32.7c0,20.3-5.6,36.2-16.8,47.5c-11.2,11.3-26.8,17-46.9,17
		c-19.9,0-35.4-5.7-46.4-17.1c-11.1-11.4-16.6-27.2-16.6-47.4c0-12.5,2.2-23.4,6.7-32.7C427.8,283.7,434.3,276.4,443,271.2z
		 M462.9,321.6c0,10.5,1.4,18.3,4.2,23.5c2.8,5.2,7.1,7.8,12.9,7.8c5.9,0,10.3-2.5,13.2-7.5c2.8-5,4.2-13,4.2-23.8
		c0-11.3-1.4-19.5-4.1-24.6c-2.7-5.1-7.1-7.6-13-7.6c-6,0-10.4,2.6-13.2,7.7C464.3,302.2,462.9,310.3,462.9,321.6z M463.7,228.4
		c0,7.8,1.5,14.1,4.6,18.8c3.1,4.7,7.1,7.1,12,7.1c5,0,9.1-2.4,12.2-7.1c3.1-4.7,4.7-11,4.7-18.8c0-7.8-1.5-13.8-4.4-18
		c-2.9-4.2-7.1-6.3-12.5-6.3c-5.3,0-9.4,2.1-12.3,6.3C465.1,214.6,463.7,220.6,463.7,228.4z"/>
</g>
</svg>
