<?xml version="1.0" encoding="utf-8"?>
<!-- Generator: Adobe Illustrator 17.1.0, SVG Export Plug-In . SVG Version: 6.00 Build 0)  -->
<!DOCTYPE svg PUBLIC "-//W3C//DTD SVG 1.1//EN" "http://www.w3.org/Graphics/SVG/1.1/DTD/svg11.dtd">
<svg version="1.1" id="Layer_1" xmlns="http://www.w3.org/2000/svg" xmlns:xlink="http://www.w3.org/1999/xlink" x="0px" y="0px"
	 viewBox="0 0 960 560" enable-background="new 0 0 960 560" xml:space="preserve">
<path d="M571.2,39.7l-77.6,150.2c-4.5-0.7-9-1.1-13.6-1.1c-4.6,0-9.2,0.5-13.6,1.1L388.8,39.7C291.8,76.5,222.9,170.2,222.9,280
	s68.9,203.5,165.8,240.3l77.6-150.2c4.5,0.7,9,1.1,13.6,1.1c4.6,0,9.2-0.5,13.6-1.1l77.6,150.2c96.9-36.8,165.8-130.5,165.8-240.3
	S668.2,76.5,571.2,39.7z M480,316.4c-20.1,0-36.4-16.3-36.4-36.4s16.3-36.4,36.4-36.4s36.4,16.3,36.4,36.4S500.1,316.4,480,316.4z"
	/>
</svg>
