<?xml version="1.0" encoding="utf-8"?>
<!-- Generator: Adobe Illustrator 17.1.0, SVG Export Plug-In . SVG Version: 6.00 Build 0)  -->
<!DOCTYPE svg PUBLIC "-//W3C//DTD SVG 1.1//EN" "http://www.w3.org/Graphics/SVG/1.1/DTD/svg11.dtd">
<svg version="1.1" id="Layer_1" xmlns="http://www.w3.org/2000/svg" xmlns:xlink="http://www.w3.org/1999/xlink" x="0px" y="0px"
	 viewBox="0 0 3000 1500" enable-background="new 0 0 3000 1500" xml:space="preserve">
<g>
	<g>
		<path fill="none" stroke="#000000" stroke-width="37.9741" stroke-miterlimit="10" d="M1498.4,326.3
			c-234,0-423.7,189.7-423.7,423.7c0,234,189.7,423.7,423.7,423.7c234,0,423.7-189.7,423.7-423.7
			C1922.1,516,1732.4,326.3,1498.4,326.3z"/>
		<circle fill="none" stroke="#000000" stroke-width="36.8424" stroke-miterlimit="10" cx="1498.4" cy="750" r="644"/>
		<line fill="none" stroke="#000000" stroke-width="79" stroke-miterlimit="10" x1="854" y1="784.5" x2="1082" y2="784.5"/>
		<line fill="none" stroke="#000000" stroke-width="79" stroke-miterlimit="10" x1="2146" y1="784.5" x2="1922" y2="784.5"/>
		<line fill="none" stroke="#000000" stroke-width="79" stroke-miterlimit="10" x1="1888.4" y1="224.3" x2="1749.9" y2="409"/>
		<line fill="none" stroke="#000000" stroke-width="79" stroke-miterlimit="10" x1="1108.3" y1="224.3" x2="1246.9" y2="409"/>
		<line fill="none" stroke="#000000" stroke-width="79" stroke-miterlimit="10" x1="1108.3" y1="1275.7" x2="1246.8" y2="1091"/>
		<line fill="none" stroke="#000000" stroke-width="79" stroke-miterlimit="10" x1="1888.4" y1="1275.7" x2="1749.9" y2="1091"/>
	</g>
</g>
<g>
	<path d="M1537.9,1044.1v-144h-260.9v-67.7l274.4-389.7h60.3v389.7h81.2v67.7h-81.2v144H1537.9z M1537.9,832.4V561.3l-188.3,271.1
		H1537.9z"/>
</g>
</svg>
