<?xml version="1.0" encoding="utf-8"?>
<!-- Generator: Adobe Illustrator 17.1.0, SVG Export Plug-In . SVG Version: 6.00 Build 0)  -->
<!DOCTYPE svg PUBLIC "-//W3C//DTD SVG 1.1//EN" "http://www.w3.org/Graphics/SVG/1.1/DTD/svg11.dtd">
<svg version="1.1" id="Layer_1" xmlns="http://www.w3.org/2000/svg" xmlns:xlink="http://www.w3.org/1999/xlink" x="0px" y="0px"
	 viewBox="0 0 3000 1500" enable-background="new 0 0 3000 1500" xml:space="preserve">
<g>
	<g>
		<path fill="none" stroke="#000000" stroke-width="37.9741" stroke-miterlimit="10" d="M1517.4,326.3
			c-234,0-423.7,189.7-423.7,423.7c0,234,189.7,423.7,423.7,423.7c234,0,423.7-189.7,423.7-423.7
			C1941.1,516,1751.4,326.3,1517.4,326.3z"/>
		<circle fill="none" stroke="#000000" stroke-width="36.8424" stroke-miterlimit="10" cx="1517.4" cy="750" r="644"/>
		<line fill="none" stroke="#000000" stroke-width="79" stroke-miterlimit="10" x1="873" y1="784.5" x2="1101" y2="784.5"/>
		<line fill="none" stroke="#000000" stroke-width="79" stroke-miterlimit="10" x1="2165" y1="784.5" x2="1941" y2="784.5"/>
		<line fill="none" stroke="#000000" stroke-width="79" stroke-miterlimit="10" x1="1907.4" y1="224.3" x2="1768.9" y2="409"/>
		<line fill="none" stroke="#000000" stroke-width="79" stroke-miterlimit="10" x1="1127.3" y1="224.3" x2="1265.9" y2="409"/>
		<line fill="none" stroke="#000000" stroke-width="79" stroke-miterlimit="10" x1="1127.3" y1="1275.7" x2="1265.8" y2="1091"/>
		<line fill="none" stroke="#000000" stroke-width="79" stroke-miterlimit="10" x1="1907.4" y1="1275.7" x2="1768.9" y2="1091"/>
	</g>
</g>
<g>
	<path d="M1330.1,893.3l73.8-9.8c8.5,41.8,22.9,72,43.3,90.4c20.4,18.5,45.2,27.7,74.4,27.7c34.7,0,64.1-12,88-36.1
		c23.9-24.1,35.9-53.9,35.9-89.4c0-33.9-11.1-61.9-33.2-83.9c-22.1-22-50.3-33-84.5-33c-13.9,0-31.3,2.7-52.1,8.2l8.2-64.8
		c4.9,0.6,8.9,0.8,11.9,0.8c31.4,0,59.7-8.2,84.9-24.6c25.2-16.4,37.7-41.7,37.7-75.9c0-27.1-9.2-49.5-27.5-67.3
		c-18.3-17.8-42-26.7-71-26.7c-28.7,0-52.6,9-71.8,27.1c-19.1,18-31.4,45.1-36.9,81.2l-73.8-13.1c9-49.5,29.5-87.8,61.5-115.1
		c32-27.2,71.8-40.8,119.4-40.8c32.8,0,63,7,90.6,21.1c27.6,14.1,48.7,33.3,63.4,57.6c14.6,24.3,21.9,50.2,21.9,77.5
		c0,26-7,49.6-20.9,71c-13.9,21.3-34.6,38.3-61.9,50.9c35.5,8.2,63.2,25.2,82.9,51.1c19.7,25.8,29.5,58.2,29.5,97
		c0,52.5-19.1,97-57.4,133.5c-38.3,36.5-86.7,54.8-145.2,54.8c-52.8,0-96.6-15.7-131.5-47.2C1354.9,984.1,1335,943.4,1330.1,893.3z"
		/>
</g>
</svg>
