<?xml version="1.0" encoding="utf-8"?>
<!-- Generator: Adobe Illustrator 17.1.0, SVG Export Plug-In . SVG Version: 6.00 Build 0)  -->
<!DOCTYPE svg PUBLIC "-//W3C//DTD SVG 1.1//EN" "http://www.w3.org/Graphics/SVG/1.1/DTD/svg11.dtd">
<svg version="1.1" id="Layer_1" xmlns="http://www.w3.org/2000/svg" xmlns:xlink="http://www.w3.org/1999/xlink" x="0px" y="0px"
	 viewBox="0 0 960 560" enable-background="new 0 0 960 560" xml:space="preserve">
<path d="M572,164h90l-91.5-75.3L480,9l-90.5,79.7L298,164h90v232h-90l91.5,75.3L480,551l90.5-79.7L662,396h-90V164z M514,264.3
	c0,0-3.5,5.2-3.4,6.9c0.1,4.6-5.9,6.2-5.9,6.2s-0.8,12.6-0.3,25c0.6,12.4,3.7,30.8,1.8,33.1c-6.7,4.8-4.5,26.5-4.5,28.5
	c0,2-0.2,3.6-0.6,4.8c-3.5,9.3,1,10.4,4.8,14.1c3,2.8-3.4,3.1-3.4,3.1h-17.1c2.9-8,0.5-13.4-0.1-18.5c-0.7-5.1,0-27.7-1.5-29.1
	c-1.5-1.4-7,0.6-7,0.6c-3.6,38,1.7,28.7-0.2,33.6c-2.9,5.9-2.5,12.9-2.5,12.9s-9.2,2.1-10.9-0.3c0,0,1.5-5.6-1.1-11.8
	c-2.6-6.2-1.1-29-0.7-32.8c0.4-3.9-4.1-4.4-4.1-4.4s1.5-52.2,0.6-58.5S445.3,264,444,257.9c-3.7-14.7,4.9-43,5.4-43.9
	c0.6-0.9,16.5-8.7,19.7-11c3.2-2.3,2-5.8-0.6-11c-2.6-5.2-0.2-13.2,6.1-16.9c6.3-3.7,15.5,0.7,15.5,0.7s4.2,6.3,0.6,15.5
	c-3.7,9.1,1.6,15.5,5.7,16c4.3,0.5,11.2,6.2,12.9,11c3.4,27.9,6,23.8,7.4,27.1C518,248.7,514,264.3,514,264.3z"/>
</svg>
