<?xml version="1.0" encoding="utf-8"?>
<!-- Generator: Adobe Illustrator 17.1.0, SVG Export Plug-In . SVG Version: 6.00 Build 0)  -->
<!DOCTYPE svg PUBLIC "-//W3C//DTD SVG 1.1//EN" "http://www.w3.org/Graphics/SVG/1.1/DTD/svg11.dtd">
<svg version="1.1" id="Layer_1" xmlns="http://www.w3.org/2000/svg" xmlns:xlink="http://www.w3.org/1999/xlink" x="0px" y="0px"
	 viewBox="0 0 960 560" enable-background="new 0 0 960 560" xml:space="preserve">
<g>
	<polygon points="367.8,272.3 396.8,272.3 396.8,216.2 367.8,216.2 367.8,189 285.8,189 285.8,354.9 258.6,354.9 258.6,410.4 
		230.3,410.4 230.3,438.8 258.6,438.8 285.8,438.8 285.8,466.5 367.8,466.5 367.8,410.4 396.8,410.4 396.8,354.9 367.8,354.9 	"/>
	<rect x="396.8" y="189" width="27.8" height="27.2"/>
	<rect x="424.5" y="160.8" width="27.8" height="28.2"/>
	<polygon points="701.4,410.4 701.4,354.9 674.3,354.9 674.3,189 592.2,189 592.2,216.2 563.3,216.2 563.3,272.3 592.2,272.3 
		592.2,354.9 563.3,354.9 563.3,410.4 592.2,410.4 592.2,466.5 674.3,466.5 674.3,438.8 701.4,438.8 729.8,438.8 729.8,410.4 	"/>
	<polygon points="535.5,327.2 535.5,216.2 507.8,216.2 507.8,189 480,189 452.3,189 452.3,216.2 424.5,216.2 424.5,327.2 
		396.8,327.2 396.8,354.9 424.5,354.9 424.5,410.4 452.3,410.4 452.3,438.8 480,438.8 507.8,438.8 507.8,410.4 535.5,410.4 
		535.5,354.9 563.3,354.9 563.3,327.2 	"/>
	<rect x="535.5" y="189" width="27.8" height="27.2"/>
	<rect x="507.8" y="160.8" width="27.8" height="28.2"/>
	<polygon points="507.8,160.8 507.8,133.5 480,133.5 452.3,133.5 452.3,160.8 480,160.8 	"/>
</g>
</svg>
