<?xml version="1.0" encoding="utf-8"?>
<!-- Generator: Adobe Illustrator 17.1.0, SVG Export Plug-In . SVG Version: 6.00 Build 0)  -->
<!DOCTYPE svg PUBLIC "-//W3C//DTD SVG 1.1//EN" "http://www.w3.org/Graphics/SVG/1.1/DTD/svg11.dtd">
<svg version="1.1" id="Layer_1" xmlns="http://www.w3.org/2000/svg" xmlns:xlink="http://www.w3.org/1999/xlink" x="0px" y="0px"
	 viewBox="0 0 960 560" enable-background="new 0 0 960 560" xml:space="preserve">
<rect x="338.2" y="54" fill="none" stroke="#000000" stroke-width="12.2604" stroke-miterlimit="10" width="283.6" height="452"/>
<g>
	<path d="M358.1,214.3c10.6-1.6,23.2-2.8,37-2.8c25,0,42.8,5.8,54.6,16.8c12,11,19,26.6,19,48.4c0,22-6.8,40-19.4,52.4
		c-12.6,12.6-33.4,19.4-59.6,19.4c-12.4,0-22.8-0.6-31.6-1.6V214.3z M375.5,333.5c4.4,0.8,10.8,1,17.6,1c37.2,0,57.4-20.8,57.4-57.2
		c0.2-31.8-17.8-52-54.6-52c-9,0-15.8,0.8-20.4,1.8V333.5z"/>
	<path d="M491.3,214.3c10.6-1.6,23.2-2.8,37-2.8c25,0,42.8,5.8,54.6,16.8c12,11,19,26.6,19,48.4c0,22-6.8,40-19.4,52.4
		c-12.6,12.6-33.4,19.4-59.6,19.4c-12.4,0-22.8-0.6-31.6-1.6V214.3z M508.7,333.5c4.4,0.8,10.8,1,17.6,1c37.2,0,57.4-20.8,57.4-57.2
		c0.2-31.8-17.8-52-54.6-52c-9,0-15.8,0.8-20.4,1.8V333.5z"/>
</g>
</svg>
