<?xml version="1.0" encoding="utf-8"?>
<!-- Generator: Adobe Illustrator 17.1.0, SVG Export Plug-In . SVG Version: 6.00 Build 0)  -->
<!DOCTYPE svg PUBLIC "-//W3C//DTD SVG 1.1//EN" "http://www.w3.org/Graphics/SVG/1.1/DTD/svg11.dtd">
<svg version="1.1" id="Layer_1" xmlns="http://www.w3.org/2000/svg" xmlns:xlink="http://www.w3.org/1999/xlink" x="0px" y="0px"
	 viewBox="0 0 960 560" enable-background="new 0 0 960 560" xml:space="preserve">
<g>
	<polygon fill="none" stroke="#000000" stroke-width="11.5885" stroke-miterlimit="10" points="480,50.7 628.6,509.3 331.4,509.3 	
		"/>
</g>
<g>
	<path d="M438.4,265.5h83.3v9.2h-14.3c-6.3,0-10.4,0.8-12,2.4s-2.5,4.9-2.5,10.1v136.7c0,5.5,0.7,8.9,2.2,10.3
		c2,1.9,5.5,2.8,10.6,2.8h16v9.2h-83.3v-9.2h15.7c5.5,0,9.1-0.8,10.7-2.4c1.6-1.6,2.4-5.2,2.4-10.6V287.1c0-5.2-0.7-8.4-2.2-9.6
		c-2.3-1.9-6.5-2.8-12.6-2.8h-14.2V265.5z"/>
</g>
</svg>
