<?xml version="1.0" encoding="utf-8"?>
<!-- Generator: Adobe Illustrator 17.1.0, SVG Export Plug-In . SVG Version: 6.00 Build 0)  -->
<!DOCTYPE svg PUBLIC "-//W3C//DTD SVG 1.1//EN" "http://www.w3.org/Graphics/SVG/1.1/DTD/svg11.dtd">
<svg version="1.1" id="Layer_1" xmlns="http://www.w3.org/2000/svg" xmlns:xlink="http://www.w3.org/1999/xlink" x="0px" y="0px"
	 viewBox="0 0 960 560" enable-background="new 0 0 960 560" xml:space="preserve">
<g>
	<polygon fill="none" stroke="#000000" stroke-width="11.5885" stroke-miterlimit="10" points="480,50.7 628.6,509.3 331.4,509.3 	
		"/>
</g>
<g>
	<path d="M432.4,437V293.8h54c9.5,0,16.8,0.5,21.8,1.4c7,1.2,12.9,3.4,17.7,6.7c4.8,3.3,8.6,7.9,11.5,13.8
		c2.9,5.9,4.3,12.4,4.3,19.5c0,12.2-3.9,22.5-11.6,30.9c-7.7,8.4-21.7,12.6-42,12.6h-36.7V437H432.4z M451.3,361.9h37
		c12.2,0,20.9-2.3,26.1-6.8c5.1-4.6,7.7-11,7.7-19.2c0-6-1.5-11.1-4.5-15.4c-3-4.3-7-7.1-12-8.4c-3.2-0.8-9.1-1.3-17.7-1.3h-36.6
		V361.9z"/>
</g>
</svg>
