<?xml version="1.0" encoding="utf-8"?>
<!-- Generator: Adobe Illustrator 17.1.0, SVG Export Plug-In . SVG Version: 6.00 Build 0)  -->
<!DOCTYPE svg PUBLIC "-//W3C//DTD SVG 1.1//EN" "http://www.w3.org/Graphics/SVG/1.1/DTD/svg11.dtd">
<svg version="1.1" id="Layer_1" xmlns="http://www.w3.org/2000/svg" xmlns:xlink="http://www.w3.org/1999/xlink" x="0px" y="0px"
	 viewBox="0 0 960 560" enable-background="new 0 0 960 560" xml:space="preserve">
<image display="none" overflow="visible" opacity="0.57" width="1640" height="1390" xlink:href="../ssd-icons-revised-2.jpg"  transform="matrix(2.3227 0 0 2.3227 -1316.6893 -1916.3082)">
</image>
<g>
	<polygon points="750.6,275.4 638.9,275.4 636.6,275.4 523.7,275.4 523.7,250.4 580.4,250.4 580.4,136.5 522.8,136.5 522.8,109.2 
		480,109.2 480,109.2 437.2,109.2 437.2,136.5 379.6,136.5 379.6,250.4 436.3,250.4 436.3,275.4 323.4,275.4 321.1,275.4 
		209.4,275.4 209.4,236.9 153.6,236.9 153.6,276.7 181.5,276.7 181.5,362.6 181.5,364.6 181.5,393.7 209.4,393.7 209.4,364.6 
		322.1,364.6 322.1,393.7 380.3,393.7 380.3,364.6 323.4,364.6 323.4,308 465.9,308 465.9,279.5 465.9,275.4 465.9,250.4 
		437.2,250.4 437.2,137.5 480,137.5 480,137.5 522.8,137.5 522.8,250.4 494.1,250.4 494.1,275.4 494.1,279.5 494.1,308 636.6,308 
		636.6,364.6 579.7,364.6 579.7,393.7 637.9,393.7 637.9,364.6 750.6,364.6 750.6,393.7 778.5,393.7 778.5,364.6 778.5,362.6 
		778.5,276.7 806.4,276.7 806.4,236.9 750.6,236.9 	"/>
	<polygon points="480,393.7 380.3,393.7 380.3,422.3 436.6,422.3 436.6,450.8 465.1,450.8 465.1,422.3 480,422.3 480,422.3 
		494.9,422.3 494.9,450.8 523.4,450.8 523.4,422.3 579.7,422.3 579.7,393.7 480,393.7 	"/>
</g>
</svg>
