<?xml version="1.0" encoding="utf-8"?>
<!-- Generator: Adobe Illustrator 17.1.0, SVG Export Plug-In . SVG Version: 6.00 Build 0)  -->
<!DOCTYPE svg PUBLIC "-//W3C//DTD SVG 1.1//EN" "http://www.w3.org/Graphics/SVG/1.1/DTD/svg11.dtd">
<svg version="1.1" id="Layer_1" xmlns="http://www.w3.org/2000/svg" xmlns:xlink="http://www.w3.org/1999/xlink" x="0px" y="0px"
	 viewBox="0 0 960 560" enable-background="new 0 0 960 560" xml:space="preserve">
<g>
	<g>
		
			<rect x="392.6" y="282.1" fill="none" stroke="#000000" stroke-width="11.9838" stroke-miterlimit="10" width="177.7" height="177.7"/>
		<path fill="none" stroke="#000000" stroke-width="11.7801" stroke-miterlimit="10" d="M393,362.8c0,0,18.1,56.2,43.1,56.2
			c13.2,0,21.7-22.7,26.4-32c9-18.1,16.8-37.6,29.8-53.3c6.2-7.4,15.4-15.8,26-15.5c11.6,0.2,20,11.4,26.9,19.5
			c9.5,11.4,18,23.8,25.6,36.6"/>
	</g>
	<polyline fill="none" stroke="#000000" stroke-width="11.9852" stroke-miterlimit="10" points="570.7,365.6 598.7,365.6 
		598.7,100.2 361.3,100.2 361.3,365.6 392.6,365.6 	"/>
</g>
<g>
	<path d="M407.3,138.8H407l-14.5,7.8l-2.2-8.6l18.2-9.7h9.6v83.3h-10.9V138.8z"/>
	<path d="M503.9,169c0,28.3-10.5,43.9-29,43.9c-16.3,0-27.3-15.2-27.5-42.8c0-27.9,12-43.3,29-43.3
		C493.9,126.9,503.9,142.5,503.9,169z M458.7,170.3c0,21.7,6.7,34,16.9,34c11.5,0,17-13.5,17-34.7c0-20.5-5.3-34-16.9-34
		C465.8,135.6,458.7,147.6,458.7,170.3z"/>
	<path d="M569.6,169c0,28.3-10.5,43.9-29,43.9c-16.3,0-27.3-15.2-27.5-42.8c0-27.9,12-43.3,29-43.3
		C559.6,126.9,569.6,142.5,569.6,169z M524.4,170.3c0,21.7,6.7,34,16.9,34c11.5,0,17-13.5,17-34.7c0-20.5-5.3-34-16.9-34
		C531.6,135.6,524.4,147.6,524.4,170.3z"/>
</g>
</svg>
