<?xml version="1.0" encoding="utf-8"?>
<!-- Generator: Adobe Illustrator 17.1.0, SVG Export Plug-In . SVG Version: 6.00 Build 0)  -->
<!DOCTYPE svg PUBLIC "-//W3C//DTD SVG 1.1//EN" "http://www.w3.org/Graphics/SVG/1.1/DTD/svg11.dtd">
<svg version="1.1" id="Layer_1" xmlns="http://www.w3.org/2000/svg" xmlns:xlink="http://www.w3.org/1999/xlink" x="0px" y="0px"
	 viewBox="0 0 960 560" enable-background="new 0 0 960 560" xml:space="preserve">
<path fill="none" stroke="#000000" stroke-width="13" stroke-miterlimit="10" d="M570.5,172c0-17.1-13.5-25.5-37-25.5h-96
	c-23.5,0-48,8.4-48,25.5v205c0,17.1,24.5,36.5,48,36.5h96c23.5,0,37-19.4,37-36.5V172z"/>
<g>
	<path d="M480.4,286.2c-1.3,0.8-4.5-0.2-4.5-0.2c-2.5,4.8-5.7,4-5.7,4l-5.2,32.3c4.3,0.7,6.2,10.3,6.2,10.3l0.7,43.8l4,19.6h-36.8
		l7.2-19.9l5.8-41.4c-1.3-7.2,8.7-12.9,8.7-12.9l2.2-33.8c-6.8-2.3-2-10.7-2-10.7l-2.3-13.2l11.7-0.3l-3.8-33l-5,0.7l-9,6.2
		l-5.3-16.8c-4,4.8-6.7,2.5-6.7,2.5l-2.3,23c9.8-1.5,12.3,27.3,9,36.2c-3.3,8.8-17,21.5-17,21.5l-0.5,4.2l6.7,8.5l-5.5,8.3l1.1,10.5
		L425,338v11h-3.3l-4.9-31.1l1.2-3.9v-3h0.7c-6.5-60,15.3-64,15.3-64l1.4-23.6C414.7,202.7,440,201,440,201v-0.8l7.8-2.4l-0.8-2.6
		l13.6-3.6l1.6,2.1L475,190v-2.9l3.7,1.3c-2.4-0.4-7.7-2.4-7.7-12.4c0-16,18.8-16,18.8,0c0,10-6.7,12-9.1,12.4l2.3-1.3v2.9l14.1,3.7
		l2.6-2.1l13.6,3.6l-1.8,2.6l6.5,2.4v0.8c0,0,26.7,1.3,6,22l2.4,24c0,0,22.2,4,15.7,64H540v3l2.6,3.9l-3.5,31.1H533v-11l-5.5-2.5
		l2.2-10.5l-5.3-8.3l6.8-8.5l-0.5-4.2c0,0-13.6-12.7-17-21.5c-3.3-8.8-0.8-37.7,9-36.2l-2.3-23c0,0-2.7,2.3-6.7-2.5l-5.3,16.8
		l-9-6.2l-5-0.7l-3.8,33l11.7,0.3l-2.3,13.2c0,0,4.8,8.3-2,10.7l2.2,33.7c0,0,10,5.5,8.7,12.7l5.8,41.8l7.2,19.9h-36.8l4-19.6
		l0.7-43.4c0,0,1.8-9.9,6.2-10.5l-5.2-32.4c0,0-3.2,0.8-5.7-4C484.9,286,481.7,287,480.4,286.2"/>
</g>
</svg>
