<?xml version="1.0" encoding="utf-8"?>
<!-- Generator: Adobe Illustrator 17.1.0, SVG Export Plug-In . SVG Version: 6.00 Build 0)  -->
<!DOCTYPE svg PUBLIC "-//W3C//DTD SVG 1.1//EN" "http://www.w3.org/Graphics/SVG/1.1/DTD/svg11.dtd">
<svg version="1.1" id="Layer_1" xmlns="http://www.w3.org/2000/svg" xmlns:xlink="http://www.w3.org/1999/xlink" x="0px" y="0px"
	 viewBox="0 0 960 560" enable-background="new 0 0 960 560" xml:space="preserve">
<path fill-rule="evenodd" clip-rule="evenodd" d="M488.9,177.1c0.8,1,1.4,2,1.4,2c1.6-0.9,5.8-5.7,8-6.3c0.3-0.1,0.6-0.1,1-0.1
	c-0.1-0.9-0.2-1.8-0.2-1.8l-1.6,0.1c0,0-0.2,1.2-0.3,1.3c-0.1,0.1-0.4,0.3-0.6,0.3c-0.2,0-2.1-0.2-2.3-0.2c-0.2,0-3.5,0.1-3.5,0.1
	s0,0,0,0.1c0.1,0.1,0.1,0.3,0.1,0.3l0,2.8c0,0,0.1,0.1,0.1,0.2c0,0,0,0.1,0,0.1s0,0,0,0.1c0,0.1,0,0.1-0.1,0.2c0,0-0.1,0.1-0.1,0.2
	c0,0.1,0.1,0.6,0,0.7c-0.1,0-0.5,0.1-0.6,0.1c-0.1,0-0.2-0.1-0.2-0.1L488.9,177.1L488.9,177.1z M516.4,176.7
	c0.5,0.7,0.7,1.3,0.5,1.6c-0.3,0.5-1,0.5-1.8,0.3c-0.1,0.4-0.2,0.9-0.2,1c0,0.2,0.5,1.3,0.6,1.4c0.1,0.2,0.2,0.3,0.2,0.3
	c-0.1,0.1,0,0.1-0.2,0.1c-0.1,0-0.7-0.6-0.9-1c-0.2-0.3-0.5-1.1-0.5-1.8c0-0.1,0-0.2,0-0.3c-0.3-0.1-0.5-0.2-0.7-0.2
	c-0.3-0.1-0.6-0.1-0.9-0.1c-0.1,0.1-0.1,0.3-0.2,0.4c-0.2,0.5-0.2,1.4-0.1,1.7c0.1,0.3,0.7,1,0.9,1.2c0.2,0.2,0.3,0.1,0.5,0.3
	c0.1,0.2,0.1,0.3,0.1,0.3l6.9-0.1c0,0-0.1-0.2,0.2-0.5c0.2-0.3,0.6-0.9,0.7-1.3c0.1-0.4,0-1.5-0.1-1.8c-0.1-0.3-1-1.2-1-1.2
	s-0.4,0-0.6-0.1c-0.2-0.1-0.4-0.4-0.4-0.4l-0.2,0L516.4,176.7L516.4,176.7z M511.7,182.7c-0.3,1.7-2.1,2.5-2.1,2.5s0.4,1.9-0.4,2.7
	c-0.8,0.9-1.1,0.7-1.1,1.3c-0.1,0.5,0.5,2-1.5,2.8c-0.5,0.2-1.1,0.3-1.7,0.4l0,0c-0.2,0.4-0.2,0.8-0.1,1c0.1,0.2,0.4,0.3,0.4,0.7
	c0,0.4-0.2,0.7-0.6,0.9c-0.4,0.2-1,0.2-1.5,0.1c-0.2,0-1.2-0.3-2.5-0.6c0,0.2,0,0.4,0.1,0.6c0.2,1.3,1.2,2.9,2,3.7
	c0.9,0.9,2.4,0.5,5.7,1.5c3.3,1,5.2,1.8,5.2,1.8s0.2-0.6,3-2.5c2.8-1.8,1.9-1.6,5.6-6.1c0.5-0.6,1-1.3,1.4-1.9
	c-0.4-1.7-0.7-3.4-0.8-4.2c-0.2-1.3-0.3-3.9-0.4-4.2c-0.1-0.3-0.2-0.4-0.2-0.4l-0.1-0.5l-0.3,0c0,0-0.2,0.1-0.3,0.1
	c-0.1,0-0.4,0-0.6-0.1c-0.2-0.1-0.3-0.2-0.3-0.2l-7.2,0.1c0,0-0.1,0.2-0.3,0.2C513.1,182.7,512.3,182.7,511.7,182.7L511.7,182.7z
	 M534.1,180.5c0.1-0.1,0.2-0.2,0.2-0.3c-0.1,0-0.2,0-0.2,0L534.1,180.5L534.1,180.5z M534.8,179.5c0.6-0.8,0.9-1.4,0.9-1.6
	c-0.2-0.6-1.7-1.4-0.4-2.5c1.3-1.1,3.6-1.7,5.5-3.4c0.1-0.1,0.2-0.2,0.3-0.2l0-0.2l0-0.1l-0.7,0c0,0-0.1,0.1-0.1,0.1
	c-0.1,0-2.5,0.4-2.6,0.4s-0.3-0.2-0.3-0.2l-0.3-0.5l-0.2,0.3c0,0-0.1,0.4-0.2,0.5c-0.1,0.2-1.2,0.8-1.3,0.9
	c-0.2,0.1-0.6,0.5-0.6,1.1c0,0.6-0.1,4.8,0,5.1C534.6,179.4,534.7,179.4,534.8,179.5L534.8,179.5z M565.1,172.8L565.1,172.8
	c-0.4,1.4-1.7,2.8-2.9,3.7c-1.2,0.9-3.4,2.8-5,3.8c-1.6,1-4.9,0.7-6.7,1c-1.8,0.2-3.5,0.9-4.1,1.3c-0.6,0.5-1.8,1.8-2.5,2
	c-0.7,0.3-2.1-0.2-2.1-0.2s-3.5,7.5-3.6,8.4c-0.1,0.9,1,3.3,0.5,5.1c-0.4,1.8-1.1,3.2-1.9,3.9c-0.9,0.6-13.7,20.9-16.7,22.6
	c-3,1.7-4.8,2.7-7.3,2.9c-2.5,0.2-2.7,0.4-6.1,0.3c-3.4-0.1-10.2-2.9-11.7-2.7c-1.5,0.2-2.6,2-2.6,2s1.5,16.3,1.7,18.2
	c0.2,1.9-1.1,4.9-2.7,8.5c-1.6,3.5-1.8,7-2.4,8c-0.5,1.1-1.8,1.7-3.3,1.7c-1.5,0-5.1,0.1-5.1,0.1s-0.9,4.1,0.1,7.1
	c1,3-0.4,8.1-0.6,8.8c-0.2,0.6-0.7,3.5-0.7,3.5s18.4,20.7,20.8,24.3c2.4,3.6,2.1,8.1,3.4,9.6c1.3,1.5,4.1,4.5,5.1,6.4
	c1.1,1.9,1.5,1.7,2.6,4.7c1.1,3,1.1,3.2,1.3,4.7c0.2,1.5-3.1,26.2-4.4,26.1c-1.3-0.1-3.9-1-3.9-1s1.1,4,0.5,5.2
	c-0.5,1.3-1.3,1.5-1.2,2c0.1,0.5,0,4.3,0.3,5.2c0.3,1,1.7,1.4,2.1,5c0.4,3.6,1.1,5.1,0.1,7.8c-1,2.7-3.4,5.1-4,6.9
	c-0.5,1.7-0.4,1.7-0.4,1.7l1.5,1.6c1,1.1,2.5,2.3,1.9,3.5c-0.6,1.2-2.9,5.9-3,6.4c-0.1,0.5-1.9,3.3-2,4.5c-0.2,1.2-0.3,2.7-0.2,3.6
	c0.1,0.9-0.7,1,0.4,4c1.2,3,1.7,3.6,3.6,4.8c1.9,1.2,5.6,2.6,8,3.6c2.5,1.1,9.8,5.8,13,7.2c3.2,1.4,4.3,1.8,4.8,2.7
	c0.5,0.9,0.4,3,0.4,3s-0.1,3.3-0.4,3.8c-0.3,0.5-2.8,2.1-3.7,2.4c-0.9,0.3-17.7,0.4-24.1-0.3c-6.4-0.7-10.3-2.2-11.1-2.1
	c-0.9,0.1-4,0-6,0.1c-2,0.1-9.7-1.1-10.9-2.4c-1.2-1.3-0.9-5.8-0.6-6.3c0.2-0.5-0.4-4.7,1.2-9c1.6-4.3,3.7-7.4,3.7-8.5
	c0-1.1,0.5-14.8,0.2-17.3c-0.3-2.6-1-2.5-1.1-4.5c-0.1-2,1-2.8,1-3.3c0-0.5-1.5-24.1-0.7-28.3c0.7-4.2,1.9-6.4,1.6-7.1
	c-0.3-0.6-1-1.6-0.9-3.6c0.1-2,0.7-4.3,1-5c0.2-0.7,0.3-1.7,0.3-3.1c0-1.4,0.9-2.5-3-3.6c-3.9-1.2-4.8-1.5-9.1-3.9
	c-4.3-2.4-9.2-8.6-9.2-8.6s0.4,8.6,0.7,9.4c0.3,0.9,0.7,2,1.2,3.1c0.4,1.1,1.1,2-0.6,4.9c-1.7,2.9-12.8,16.6-14.2,17
	c-1.4,0.4-3-1.2-3-1.2s-1.4,2-2.4,4.6c-1,2.6-2.8,5.7-2.8,5.7s-3.9,5.1-5.1,9.1c-1.3,4.1-4.5,4.7-5.9,5.4c-1.4,0.6-3.9,1.9-4,2.6
	c-0.1,0.6-2.7,7.3-3.4,8.7c-0.8,1.4-3,2.8-3.6,4.3c-0.6,1.5-0.3,2.3,0.3,3.1c0.6,0.8,1.1,1.7,2.5,2c1.4,0.4,1.1,0.1,2.8,1.1
	c1.7,1,3.9,2.4,4.1,2.5c0.3,0.1,10.3,0.1,12.3,1.2c2,1.1,2.5,3.8,2.7,4.1c0.3,0.3,0.1,2.3-0.1,3.4c-0.2,1.1,0.7,1.6-6.3,3.4
	c-7.1,1.8-17.3,1-19.6,0.7c-2.2-0.3-7.8-0.1-8.2,0c-0.5,0.1-1.2,1.3-2.1,1.7c-1,0.3-6,1-9.6,0.7c-3.6-0.3-6.5-0.9-6.8-2.2
	c-0.3-1.4,0.3-6.2,0.7-6.6c0.4-0.4,0.8-0.9,0.8-0.9s2.9-9,6.1-13.4c3.2-4.4,5.6-8.5,6.9-12.2c1.3-3.7,2.7-7.9,2.9-8.3
	c0.2-0.4,1.1-1.4,1.1-1.4s1.4-8.6,3.4-13.8c1.9-5.1,4.7-9.2,6.8-11.8c2.1-2.6,5.4-4.9,6.4-7.7c1.1-2.8,3.9-5.4,4.7-9.4
	c0.9-4.1,0.9-4.7,0-6.2c-0.9-1.5-1.5-0.2-2.6-2.6c-1.1-2.4-5.1-16.3-5.8-20.3c-0.6-4.1-0.2-8.1-1.1-10.1c-0.9-1.9-1.5-4.1-3.6-10.5
	c-2.1-6.4-3.4-19.3-3.5-21c-0.1-1.8,1.1-2.1-0.5-3.1c-1.6-1-2.9-2-3.2-2.9c-0.2-0.9,3.2-17.9,3.1-19.3c-0.1-1.4,0-2.6-1.3-2.6
	s-3.7,0.5-4.4-1c-0.6-1.5-1.1-5.4-0.9-7.3c0.2-1.9,1-2.8,0.2-4.8c-0.8-2-0.9-3.9-1.1-5c-0.2-1.2-2.6-0.5-2.7-2.5
	c-0.1-1.9,2.9-5.9,3-7.6c0.1-1.7,0.9-6.5,1.6-9.4c0.7-2.9,0.9-7.8,2.1-8.8c1.3-1,2.2-1.5,2.2-1.5s7.7-17.6,9.7-21.3
	c2-3.7,1.2-4.5,5-8c3.9-3.5,7.7-6.4,10.4-7.2c2.7-0.8,5.5,0.3,6.1,1.2c0.6,0.9,3.4,1,4.2,0.9c0.7-0.1,1.5-0.7,2.1-1.4
	c0.6-0.7,1.8-1.5,2.9-2.8c1.1-1.3,3.6-2.5,4.4-2.5c0.8,0.1-0.7-5.2-0.3-5.9c0.5-0.6,0.9-0.8,0.8-1.1c-0.1-0.3-1.9-2.6-2.1-4.5
	c-0.2-1.9,0.7-2.7,0.7-2.7s2.8-4.3,3.6-5.5c0.8-1.2,1.1-0.8,1.5-2c0.4-1.2,2.7-3.4,2.6-3.8c-0.1-0.4,0.9-2,1.7-3.1
	c0.9-1.1,3.6-1.5,3.6-1.5s0.8,0.1,2-0.4c1.2-0.5,3.4-0.3,3.4-0.3s7.1-1.6,14.8,2.8c7.7,4.4,11.8,10.5,11.8,10.5s5.6,1.4,7.2,2.5
	c1.6,1.1,0.7,14.4-0.1,15.4c-0.8,1-4,0.4-4,0.4s-1.2,2.6-2.1,2.5c-0.9-0.1-5.1-1.5-5.3-1.4c-0.2,0.2-1.9,0.6-1.5,3.1
	c0.4,2.6,1.9,5.6,0.7,6.5c-1.1,1-3.6,0.7-3.7,1.3c-0.1,0.6-0.2,1.4-0.5,2c-0.4,0.6-0.2,0.5-1,1.4c4.8-0.1,8.8-0.1,8.8-0.1
	c0.1,0,0.4,0.1,0.4,0.2c0,0.1,0.1,0.2,0.1,0.3c0,0,0.3,0,0.3,0s0-0.5,0-0.5c0.1,0,1.6,0,1.6,0l0.1,0.1l0.4,0l0.1-0.1l0.3,0l0.1-0.1
	l1.3-0.1l0-0.2h-0.6l0.2-1.9l1.5-0.1c0,0,0-0.4,0-0.4l0.7,0l1.5-4l1.3-0.1l1.1-0.1c0,0-0.2,0-0.4-0.2c-0.2-0.2-0.3-0.3-0.3-0.3
	s-0.6,0-0.7,0c-0.1-0.1-0.1-0.1-0.1-0.1c0,0,0-2,0-2.1c0-0.1,0.8-0.9,1.2-1.1c0.3-0.2,0.7-0.3,0.7-0.3s3,0.2,3,0.2
	c0.1,0,0.3,0.2,0.4,0.2c0,0,0,0.2,0,0.2s23.6,1.8,23.9,1.9c0.3,0.1,0.7,0.2,0.9,0.6c0.3,0.4,0.5,0.7,0.5,1c0,0.3,0.2,3.7,0.2,3.7
	l0.2,0l0,1.6l0,0h0.9l0-0.9l0.1,0c0,0,2.5,0.6,2.6,0.6c0,0,0.1,0.1,0.1,0.1l0,0.1l0.1,0l0,0.1h0.7c0,0,0.1-0.4,0.1-0.5
	c0-0.2-0.1-0.8-0.1-0.9c0.1-0.1,0.4-0.5,0.5-0.5c0.1,0,28.1,0.2,28.2,0.2c0.2,0,0.4,0.1,0.4,0.2c0.1,0.1,0.3,1.4,0.3,1.5
	c0,0.1,0.2,0.2,0.2,0.2c0,0,0.5,0,0.5,0s0-0.4,0-0.4c0,0,5.7-7.8,5.9-7.9c0.2-0.1,0.3-0.2,0.7-0.3c0.4-0.1,0.7-0.2,1-0.1
	c0.3,0.1,0.7,0.5,0.8,0.7c0.1,0.2,0.2,0.5,0.2,0.6c0,0.1,0.3,9.4,0.3,9.4s0.1,0,0.1,0c0,0,0,0.1,0,0.1l6.5-0.1l1.1,0.3l3.6,0
	l0.3-0.3l6.9,0l0.3,0.1l2.9,0c0,0,0.2-0.1,0.3-0.2c0.1,0,0.1-0.1,0.1-0.1l0.1-0.2l1,0l0.1,0.2l0.2,0.1c0,0,0.1-0.2,0.2-0.2
	c0.1,0,0.8,0,0.8,0s0.1,0.2,0.2,0.2c0,0,0.1,0,0.1,0c0,0,0.2-0.2,0.2-0.2s0.6,0,0.6,0c0,0,0.1,0.1,0.1,0.1h3.2c0,0,0.4-0.1,0.4-0.2
	c0,0,0.7,0,0.7,0s0.3,0.1,0.4,0.5c0.1,0.3,0.2,1,0.2,1.4c0,0.4-0.1,0.9-0.1,1.2c0,0.3-0.1,0.5-0.2,0.7c-0.1,0.3-0.4,0.5-0.4,0.5
	s-0.7,0-0.7,0c0,0-0.4-0.2-0.4-0.2h-3.2c0,0-0.1,0.1-0.1,0.1c0,0-0.6,0-0.6,0s-0.1-0.1-0.1-0.1c0,0,0,0,0,0c-0.1,0-0.1-0.1-0.2-0.1
	h0c0,0-0.2,0.2-0.2,0.2s-0.7,0-0.8,0c0,0-0.1-0.1-0.1-0.2c-0.1,0-0.1,0-0.1,0l-0.1,0l-0.1,0.2l-1,0l-0.1-0.2c0,0,0,0-0.1-0.1
	c-0.1,0-0.3-0.2-0.3-0.2l-2.9,0l-0.3,0.1l-6.9,0l-0.1-0.1c0,0,0,0,0,0c-0.1,0-0.2-0.2-0.3-0.2l-1.6,0l-2,0l-0.5,0.1
	c-0.2,0.1-0.3,0.1-0.4,0.1c-0.1,0-4,0.1-4.5,0.1c-0.5,0-2,0.1-2,0.1s0.1,0.2,0.2,0.2c0.1,0,0.7,0.1,0.7,0.1c0,0.1,0.1,0.2,0.1,0.2
	s0.4,0,0.5,0.1c0.1,0.1,0.1,0.8,0.1,1c0,0.2-0.3,0.5-0.3,0.5l-1.5,0.1c0,0,0,0.4-0.1,0.5c0,0.1-0.3,0.1-0.5,0.1
	c-0.3,0-0.8-0.2-0.8-0.2s-0.1-0.1-0.2-0.3c-0.1-0.2-0.1-1.3-0.1-1.3l-1.4,0c0,0-0.2,0.2-0.4,0.2c-0.2,0-0.8,0-0.9,0
	c-0.1,0-0.2-0.2-0.2-0.2s-0.9,0-1-0.1c-0.1-0.1-0.1-0.4-0.1-0.4l-0.6,0l-0.2,0.3c0,0,0,0.9-0.1,1.2c-0.1,0.3-0.2,0.4-0.4,0.5
	c-0.2,0.1-0.3,0.1-0.6,0c-0.3-0.1-0.5-0.2-0.5-0.2s-0.3,0.3-0.4,0.3c-0.1,0.1-0.7,0.1-0.7,0.1s-0.3,1.1-0.4,1.3
	c-0.1,0.2-0.2,0.4-0.2,0.4s-0.1,0.1-0.3,0.1C569.9,172.6,567.9,172.7,565.1,172.8L565.1,172.8z M513.8,157.2L513.8,157.2
	c-0.4,0.5-0.4,0.6-0.5,1.1c-0.1,0.5,0,1.1,0,1.1s0.5,0,0.7,0.1c0.3,0.1,0.6,0.3,0.8,0.5c0.2,0.2,0.4,0.4,0.4,0.4l16.6-0.1
	c0,0,0.2-0.2,0.4-0.2c0.2,0,0.3,0,0.3,0s-0.1-0.1,0.3-0.4c0.3-0.3,0.6-0.4,1-0.5c0.3-0.1,0.8,0,0.8,0s-0.1-1.4-0.1-1.6
	c0-0.2-0.6-0.9-1-1c-0.4-0.1-18.8-0.1-18.8-0.1S514.2,156.7,513.8,157.2L513.8,157.2z M509.1,157.3L509.1,157.3
	c-0.1,0.1-0.1,0.2-0.1,0.2l0.1,0.1l1.7,0l0-0.4l-1.4,0C509.3,157.1,509.1,157.2,509.1,157.3L509.1,157.3z M573.4,162.8L573.4,162.8
	c0,0,5.1,0,5.3,0c0.2-0.1,0.3-0.3,0.3-0.3l-0.1-2.8c0,0-0.2,0-0.6-0.1c-0.3-0.1-0.5-0.2-0.6-0.5c-0.1-0.3-0.1-1.5-0.1-1.5
	s-0.1,0-0.1,0c-0.1,0-0.1-0.1-0.1-0.1l-1.1,0c0,0-3.1,4.3-3.2,4.5c-0.1,0.2-0.2,0.3-0.1,0.5C573.2,162.6,573.4,162.8,573.4,162.8
	L573.4,162.8z M606.8,166.1L606.8,166.1c-0.1,0-0.1,0-0.2,0.1c0,0.1,0,0.4,0,0.5c0.1,0.2,2.4,0.1,2.6,0c0.2,0,0.2-0.1,0.3-0.2
	c0-0.1,0-0.3,0-0.4c-0.1-0.1-0.6-0.1-1.3-0.1C607.6,166,606.8,166.1,606.8,166.1z"/>
<path fill-rule="evenodd" clip-rule="evenodd" fill="none" stroke="#000000" stroke-width="15" stroke-miterlimit="10" d="
	M632.5,107.4c0-25.3-20.6-45.9-45.9-45.9H372.4c-25.3,0-45.9,20.6-45.9,45.9v346.2c0,25.3,20.6,45.9,45.9,45.9h214.2
	c25.3,0,45.9-20.6,45.9-45.9V107.4z"/>
</svg>
