<?xml version="1.0" encoding="utf-8"?>
<!-- Generator: Adobe Illustrator 17.1.0, SVG Export Plug-In . SVG Version: 6.00 Build 0)  -->
<!DOCTYPE svg PUBLIC "-//W3C//DTD SVG 1.1//EN" "http://www.w3.org/Graphics/SVG/1.1/DTD/svg11.dtd">
<svg version="1.1" id="Layer_1" xmlns="http://www.w3.org/2000/svg" xmlns:xlink="http://www.w3.org/1999/xlink" x="0px" y="0px"
	 viewBox="0 0 3000 1500" enable-background="new 0 0 3000 1500" xml:space="preserve">
<g>
	<circle fill="none" stroke="#000000" stroke-width="34.5546" stroke-miterlimit="10" cx="1499.9" cy="750" r="604"/>
	<line fill="none" stroke="#000000" stroke-width="39" stroke-miterlimit="10" x1="896" y1="772.5" x2="1139" y2="772.5"/>
	<line fill="none" stroke="#000000" stroke-width="39" stroke-miterlimit="10" x1="2104" y1="772.5" x2="1861" y2="772.5"/>
	<line fill="none" stroke="#000000" stroke-width="34.5546" stroke-miterlimit="10" x1="1865.7" y1="257" x2="1720.6" y2="450.5"/>
	<line fill="none" stroke="#000000" stroke-width="34.5546" stroke-miterlimit="10" x1="1134.1" y1="257" x2="1279.2" y2="450.5"/>
	
		<line fill="none" stroke="#000000" stroke-width="34.5546" stroke-miterlimit="10" x1="1134.1" y1="1243" x2="1279.2" y2="1049.5"/>
	
		<line fill="none" stroke="#000000" stroke-width="34.5546" stroke-miterlimit="10" x1="1865.7" y1="1243" x2="1720.6" y2="1049.5"/>
	<path d="M1499.9,352.6c-219.5,0-397.4,177.9-397.4,397.4c0,219.5,177.9,397.4,397.4,397.4c219.5,0,397.4-177.9,397.4-397.4
		C1897.3,530.5,1719.4,352.6,1499.9,352.6z M1775.1,545.4c-5.2,3.7-10.5,12.2-16.1,25.3L1598.9,998h-21.1l-144.7-427.2
		c-3.7-13.1-8.7-21.6-14.8-25.3c-6.1-3.7-15.2-5.6-27.4-5.6c-15.9,0-26.8,1.9-32.9,5.6c-6.1,3.7-9,12.2-9,25.3v380.8
		c0,10.3,3,17.6,9.1,21.8c6.1,4.2,16.9,6.3,32.9,6.3V998h-155v-18.4c16,0,26.9-2.1,33-6.3c6.1-4.2,9-11.5,9-21.8V570.7
		c0-13.1-3-21.5-9-25.3c-6.1-3.7-17-5.6-33-5.6V521h154.9H1545v18.8c-16,0-27.6,1.9-35.6,5.6c-5.4,2.6-8,7.3-8,14
		c0,3.3,0.6,7,1.8,11.2l105.4,316.2l115.2-316.2c1.6-4.7,2.5-8.8,2.5-12.3c0-6.3-2.6-10.7-8-13c-8.4-3.7-20.4-5.6-36.4-5.6V521h119
		v18.8C1789,539.8,1780.3,541.7,1775.1,545.4z"/>
</g>
</svg>
