<?xml version="1.0" encoding="utf-8"?>
<!-- Generator: Adobe Illustrator 17.1.0, SVG Export Plug-In . SVG Version: 6.00 Build 0)  -->
<!DOCTYPE svg PUBLIC "-//W3C//DTD SVG 1.1//EN" "http://www.w3.org/Graphics/SVG/1.1/DTD/svg11.dtd">
<svg version="1.1" id="Layer_1" xmlns="http://www.w3.org/2000/svg" xmlns:xlink="http://www.w3.org/1999/xlink" x="0px" y="0px"
	 viewBox="0 0 960 560" enable-background="new 0 0 960 560" xml:space="preserve">
<rect x="430" y="96.4" fill="none" stroke="#000000" stroke-width="15.6192" stroke-miterlimit="10" width="100.1" height="371.1"/>
<path d="M427,93v189h106V93H427z M475.6,257.3c-12.9,0-27-3.8-34.1-8.5l4.4-14.5c7.7,4.8,19.1,8.7,31,8.7c17.7,0,28-9.3,28-22.8
	c0-12.5-7.1-19.7-25.2-26.6c-21.8-7.7-35.3-19.1-35.3-37.9c0-20.8,17.3-36.3,43.3-36.3c13.7,0,23.6,3.2,29.6,6.5l-4.8,14.1
	c-4.4-2.4-13.3-6.4-25.4-6.4c-18.3,0-25.2,10.9-25.2,20c0,12.5,8.1,18.7,26.6,25.8c22.6,8.7,34.1,19.6,34.1,39.3
	C522.5,239.4,507.2,257.3,475.6,257.3z"/>
</svg>
