<?xml version="1.0" encoding="utf-8"?>
<!-- Generator: Adobe Illustrator 17.1.0, SVG Export Plug-In . SVG Version: 6.00 Build 0)  -->
<!DOCTYPE svg PUBLIC "-//W3C//DTD SVG 1.1//EN" "http://www.w3.org/Graphics/SVG/1.1/DTD/svg11.dtd">
<svg version="1.1" id="Layer_1" xmlns="http://www.w3.org/2000/svg" xmlns:xlink="http://www.w3.org/1999/xlink" x="0px" y="0px"
	 viewBox="0 0 960 560" enable-background="new 0 0 960 560" xml:space="preserve">
<g>
	<g>
		<g>
			<g>
				<path fill="none" stroke="#000000" stroke-width="6.4519" stroke-miterlimit="10" d="M530.2,394.8l26.9,46.8
					c80.3-46.2,108-148.7,61.8-229c-46.2-80.3-148.7-108-229-61.8l25.7,44.7"/>
				
					<line fill="none" stroke="#000000" stroke-width="12.1829" stroke-miterlimit="10" x1="392.8" y1="149.1" x2="417.9" y2="192.8"/>
				<line fill="none" stroke="#000000" stroke-width="12.1829" stroke-miterlimit="10" x1="560" y1="439.9" x2="536.5" y2="399"/>
				<line fill="none" stroke="#000000" stroke-width="11.2457" stroke-miterlimit="10" x1="557.7" y1="151" x2="530.5" y2="197"/>
				
					<line fill="none" stroke="#000000" stroke-width="11.2457" stroke-miterlimit="10" x1="641.3" y1="297.4" x2="582.5" y2="297.4"/>
			</g>
			<polygon fill="none" stroke="#000000" stroke-width="12" stroke-miterlimit="10" points="480,165.5 511.3,201.1 557.5,190.7 
				561.9,237.8 605.4,256.6 581.3,297.4 605.4,338.1 561.9,356.9 557.5,404 511.3,393.7 480,429.2 448.7,393.7 402.5,404 
				398.1,356.9 354.6,338.1 378.7,297.4 354.6,256.6 398.1,237.8 402.5,190.7 448.7,201.1 			"/>
		</g>
	</g>
</g>
<g>
	<path d="M474.3,252.3H474l-20.9,11.3l-3.1-12.4l26.3-14.1h13.9v120.2h-15.7V252.3z"/>
</g>
</svg>
