<?xml version="1.0" encoding="utf-8"?>
<!-- Generator: Adobe Illustrator 17.1.0, SVG Export Plug-In . SVG Version: 6.00 Build 0)  -->
<!DOCTYPE svg PUBLIC "-//W3C//DTD SVG 1.1//EN" "http://www.w3.org/Graphics/SVG/1.1/DTD/svg11.dtd">
<svg version="1.1" id="Layer_1" xmlns="http://www.w3.org/2000/svg" xmlns:xlink="http://www.w3.org/1999/xlink" x="0px" y="0px"
	 viewBox="0 0 960 560" enable-background="new 0 0 960 560" xml:space="preserve">
<g>
	<g>
		<g>
			<g>
				<path fill="none" stroke="#000000" stroke-width="6.8846" stroke-miterlimit="10" d="M585.9,309.8H659c0-98.9-80.1-179-179-179
					s-179,80.1-179,179h70.1"/>
				<line fill="none" stroke="#000000" stroke-width="13" stroke-miterlimit="10" x1="587.9" y1="306.3" x2="659" y2="306.3"/>
				<line fill="none" stroke="#000000" stroke-width="13" stroke-miterlimit="10" x1="372.1" y1="306.3" x2="301" y2="306.3"/>
				<line fill="none" stroke="#000000" stroke-width="12" stroke-miterlimit="10" x1="547.6" y1="192.8" x2="569.5" y2="154.8"/>
				<line fill="none" stroke="#000000" stroke-width="12" stroke-miterlimit="10" x1="412.4" y1="192.8" x2="390.5" y2="154.8"/>
			</g>
			<polygon fill="none" stroke="#000000" stroke-width="12" stroke-miterlimit="10" points="480,165.5 511.3,201.1 557.5,190.7 
				561.9,237.8 605.4,256.6 581.3,297.4 605.4,338.1 561.9,356.9 557.5,404 511.3,393.7 480,429.2 448.7,393.7 402.5,404 
				398.1,356.9 354.6,338.1 378.7,297.4 354.6,256.6 398.1,237.8 402.5,190.7 448.7,201.1 			"/>
		</g>
	</g>
</g>
<g>
	<path d="M518.4,244.9H468l-5.1,33.9c3-0.4,5.9-0.8,10.8-0.8c10.2,0,20.3,2.2,28.4,7.1c10.4,5.9,18.9,17.3,18.9,33.9
		c0,25.8-20.5,45.1-49.2,45.1c-14.4,0-26.6-4.1-32.9-8.1l4.5-13.6c5.5,3.3,16.3,7.3,28.2,7.3c16.9,0,31.3-11,31.3-28.6
		c-0.2-17.1-11.6-29.3-38-29.3c-7.5,0-13.4,0.8-18.3,1.4l8.5-63.4h63.2V244.9z"/>
</g>
</svg>
