<?xml version="1.0" encoding="utf-8"?>
<!-- Generator: Adobe Illustrator 17.1.0, SVG Export Plug-In . SVG Version: 6.00 Build 0)  -->
<!DOCTYPE svg PUBLIC "-//W3C//DTD SVG 1.1//EN" "http://www.w3.org/Graphics/SVG/1.1/DTD/svg11.dtd">
<svg version="1.1" id="Layer_1" xmlns="http://www.w3.org/2000/svg" xmlns:xlink="http://www.w3.org/1999/xlink" x="0px" y="0px"
	 viewBox="0 0 960 560" enable-background="new 0 0 960 560" xml:space="preserve">
<g>
	<polyline fill="none" stroke="#000000" stroke-width="9" stroke-miterlimit="10" points="479.6,344.5 437.7,225.8 395.4,106.1 
		480,106.1 564.6,106.1 522.3,225.8 480.4,344.4 	"/>
	<path d="M501.5,191c10.5-7,17.5-18.9,17.5-32.5c0-21.5-17.5-39-39-39s-39,17.5-39,39c0,13.6,6.9,25.5,17.5,32.5
		c-5.5,5.5-9,13.2-9,21.6c0,10.9,5.7,20.4,14.2,25.8c-2.8,3.5-4.5,8-4.5,12.9c0,11.5,9.3,20.7,20.7,20.7s20.7-9.3,20.7-20.7
		c0-4.9-1.7-9.3-4.5-12.9c8.5-5.4,14.2-14.9,14.2-25.8C510.5,204.2,507.1,196.6,501.5,191z"/>
	<circle fill="none" stroke="#000000" stroke-width="9" stroke-miterlimit="10" cx="480" cy="397.9" r="56"/>
</g>
<g>
	<path d="M465.2,364.1h8.3v57.1h27.4v6.9h-35.6V364.1z"/>
</g>
</svg>
