<?xml version="1.0" encoding="utf-8"?>
<!-- Generator: Adobe Illustrator 17.1.0, SVG Export Plug-In . SVG Version: 6.00 Build 0)  -->
<!DOCTYPE svg PUBLIC "-//W3C//DTD SVG 1.1//EN" "http://www.w3.org/Graphics/SVG/1.1/DTD/svg11.dtd">
<svg version="1.1" id="Layer_1" xmlns="http://www.w3.org/2000/svg" xmlns:xlink="http://www.w3.org/1999/xlink" x="0px" y="0px"
	 viewBox="0 0 960 560" enable-background="new 0 0 960 560" xml:space="preserve">
<g>
	<path fill="none" stroke="#000000" stroke-width="8.7571" stroke-miterlimit="10" d="M637.4,305.9c0-5.6-5.3-10.2-11.7-10.2H334.3
		c-6.5,0-11.7,4.6-11.7,10.2v136.6c0,5.6,5.3,10.2,11.7,10.2h291.3c6.5,0,11.7-4.6,11.7-10.2L637.4,305.9L637.4,305.9z"/>
	<g>
		<g>
			<path fill="none" stroke="#000000" stroke-width="3.5245" stroke-miterlimit="10" d="M480,107.4c-50.6,0-91.6,41-91.6,91.6h36.4
				c0-30.5,24.7-55.2,55.2-55.2s55.2,24.7,55.2,55.2h36.4C571.7,148.5,530.7,107.4,480,107.4z"/>
			<line fill="none" stroke="#000000" stroke-width="9.1569" stroke-miterlimit="10" x1="535.3" y1="194.7" x2="571.7" y2="194.7"/>
			<line fill="none" stroke="#000000" stroke-width="9.1569" stroke-miterlimit="10" x1="424.8" y1="194.7" x2="388.3" y2="194.7"/>
			
				<line fill="none" stroke="#000000" stroke-width="10.5735" stroke-miterlimit="10" x1="507.5" y1="151.3" x2="525.8" y2="119.7"/>
			
				<line fill="none" stroke="#000000" stroke-width="10.5735" stroke-miterlimit="10" x1="452.3" y1="151.3" x2="434.1" y2="119.7"/>
		</g>
		<circle fill="none" stroke="#000000" stroke-width="3.4671" stroke-miterlimit="10" cx="480" cy="199.1" r="55.2"/>
		<line fill="none" stroke="#000000" stroke-width="8.6676" stroke-miterlimit="10" x1="480" y1="295.7" x2="480" y2="254.2"/>
		<polygon stroke="#000000" stroke-width="4.1006" stroke-miterlimit="10" points="480,161.2 501.3,237 480,223.7 458.6,237 		"/>
	</g>
	<g>
		<polygon fill="none" stroke="#000000" stroke-width="4.7806" stroke-miterlimit="10" points="394.9,330 419.8,418.4 394.9,402.9 
			370.1,418.4 		"/>
		<polygon fill="none" stroke="#000000" stroke-width="4.7806" stroke-miterlimit="10" points="480.4,330 505.2,418.4 480.4,402.9 
			455.6,418.4 		"/>
		<polygon fill="none" stroke="#000000" stroke-width="4.7806" stroke-miterlimit="10" points="565.1,330 589.9,418.4 565.1,402.9 
			540.3,418.4 		"/>
	</g>
</g>
</svg>
