<?xml version="1.0" encoding="utf-8"?>
<!-- Generator: Adobe Illustrator 17.1.0, SVG Export Plug-In . SVG Version: 6.00 Build 0)  -->
<!DOCTYPE svg PUBLIC "-//W3C//DTD SVG 1.1//EN" "http://www.w3.org/Graphics/SVG/1.1/DTD/svg11.dtd">
<svg version="1.1" id="Layer_1" xmlns="http://www.w3.org/2000/svg" xmlns:xlink="http://www.w3.org/1999/xlink" x="0px" y="0px"
	 viewBox="0 0 960 560" enable-background="new 0 0 960 560" xml:space="preserve">
<path fill="none" stroke="#000000" stroke-width="12" stroke-miterlimit="10" d="M709,124.7c0-10.3-8.4-18.7-18.7-18.7H269.7
	c-10.3,0-18.7,8.4-18.7,18.7v311.6c0,10.3,8.4,18.7,18.7,18.7h420.6c10.3,0,18.7-8.4,18.7-18.7V124.7z"/>
<polygon fill="none" stroke="#000000" stroke-width="5" stroke-miterlimit="10" points="526.3,230.5 480,140.5 433.7,230.5 
	464.6,216.7 433.7,275.5 480,245.3 526.3,275.5 496,216.7 "/>
<polygon fill="none" stroke="#000000" stroke-width="5" stroke-miterlimit="10" points="386.2,230.5 339.9,140.5 293.6,230.5 
	324.5,216.7 293.6,275.5 339.9,245.3 386.2,275.5 355.9,216.7 "/>
<polygon fill="none" stroke="#000000" stroke-width="5" stroke-miterlimit="10" points="666.4,230.5 620.1,140.5 573.8,230.5 
	604.7,216.7 573.8,275.5 620.1,245.3 666.4,275.5 636.1,216.7 "/>
<polygon fill="none" stroke="#000000" stroke-width="5" stroke-miterlimit="10" points="433.7,375.5 480,285.5 526.3,375.5 
	495.4,361.7 526.3,420.5 480,390.3 433.7,420.5 464,361.7 "/>
<polygon fill="none" stroke="#000000" stroke-width="5" stroke-miterlimit="10" points="573.8,375.5 620.1,285.5 666.4,375.5 
	635.5,361.7 666.4,420.5 620.1,390.3 573.8,420.5 604.1,361.7 "/>
<polygon fill="none" stroke="#000000" stroke-width="5" stroke-miterlimit="10" points="293.6,375.5 339.9,285.5 386.2,375.5 
	355.3,361.7 386.2,420.5 339.9,390.3 293.6,420.5 323.9,361.7 "/>
</svg>
