<?xml version="1.0" encoding="utf-8"?>
<!-- Generator: Adobe Illustrator 17.1.0, SVG Export Plug-In . SVG Version: 6.00 Build 0)  -->
<!DOCTYPE svg PUBLIC "-//W3C//DTD SVG 1.1//EN" "http://www.w3.org/Graphics/SVG/1.1/DTD/svg11.dtd">
<svg version="1.1" id="Layer_1" xmlns="http://www.w3.org/2000/svg" xmlns:xlink="http://www.w3.org/1999/xlink" x="0px" y="0px"
	 viewBox="0 0 960 560" enable-background="new 0 0 960 560" xml:space="preserve">
<g>
	<polygon fill="none" stroke="#000000" stroke-width="13.3444" stroke-miterlimit="10" points="375.9,416.9 271.9,236.6 375.9,56.4 
		584.1,56.4 688.1,236.6 584.1,416.9 	"/>
	<polygon fill="none" stroke="#000000" stroke-width="10.1362" stroke-miterlimit="10" points="401,373.5 321.9,236.6 401,99.7 
		559,99.7 638.1,236.6 559,373.5 	"/>
	<line fill="none" stroke="#000000" stroke-width="10.1373" stroke-miterlimit="10" x1="638.1" y1="236.6" x2="688.1" y2="236.6"/>
	<line fill="none" stroke="#000000" stroke-width="10.1373" stroke-miterlimit="10" x1="321.9" y1="236.6" x2="271.9" y2="236.6"/>
	<line fill="none" stroke="#000000" stroke-width="10.1373" stroke-miterlimit="10" x1="401" y1="99.7" x2="375.9" y2="56.4"/>
	<line fill="none" stroke="#000000" stroke-width="10.1373" stroke-miterlimit="10" x1="559" y1="99.7" x2="584.1" y2="56.4"/>
	<line fill="none" stroke="#000000" stroke-width="10.1373" stroke-miterlimit="10" x1="559" y1="373.5" x2="584.1" y2="416.9"/>
	<line fill="none" stroke="#000000" stroke-width="10.1373" stroke-miterlimit="10" x1="401" y1="373.5" x2="375.9" y2="416.9"/>
	<line fill="none" stroke="#000000" stroke-width="20" stroke-miterlimit="10" x1="480" y1="417" x2="480" y2="504"/>
</g>
<g>
	<path d="M491.6,322.9h-21.1V188.5c-5.1,4.8-11.7,9.7-20,14.5c-8.2,4.8-15.6,8.5-22.2,10.9v-20.4c11.8-5.5,22.1-12.3,30.9-20.2
		c8.8-7.9,15.1-15.5,18.8-23h13.6V322.9z"/>
</g>
</svg>
