<?xml version="1.0" encoding="utf-8"?>
<!-- Generator: Adobe Illustrator 17.1.0, SVG Export Plug-In . SVG Version: 6.00 Build 0)  -->
<!DOCTYPE svg PUBLIC "-//W3C//DTD SVG 1.1//EN" "http://www.w3.org/Graphics/SVG/1.1/DTD/svg11.dtd">
<svg version="1.1" id="Layer_1" xmlns="http://www.w3.org/2000/svg" xmlns:xlink="http://www.w3.org/1999/xlink" x="0px" y="0px"
	 viewBox="0 0 960 560" enable-background="new 0 0 960 560" xml:space="preserve">
<g>
	<circle fill="none" stroke="#000000" stroke-width="9" stroke-miterlimit="10" cx="480.4" cy="280" r="168.3"/>
	<line fill="none" stroke="#000000" stroke-width="17" stroke-miterlimit="10" x1="310" y1="288.5" x2="380" y2="288.5"/>
	<line fill="none" stroke="#000000" stroke-width="17" stroke-miterlimit="10" x1="649" y1="288.5" x2="583" y2="288.5"/>
	<line fill="none" stroke="#000000" stroke-width="17" stroke-miterlimit="10" x1="582.4" y1="142.6" x2="542.7" y2="195.5"/>
	<line fill="none" stroke="#000000" stroke-width="17" stroke-miterlimit="10" x1="378.5" y1="142.6" x2="423.1" y2="202.1"/>
	<line fill="none" stroke="#000000" stroke-width="17" stroke-miterlimit="10" x1="378.5" y1="417.4" x2="424.6" y2="355.9"/>
	<line fill="none" stroke="#000000" stroke-width="17" stroke-miterlimit="10" x1="582.4" y1="417.4" x2="541.1" y2="362.4"/>
</g>
<path d="M480.4,169.3c-61.2,0-110.7,49.6-110.7,110.7c0,61.2,49.6,110.7,110.7,110.7c61.2,0,110.7-49.6,110.7-110.7
	C591.2,218.8,541.6,169.3,480.4,169.3z M504.9,325.1c-6.8,6.5-15.5,9.8-25.9,9.8c-9.4,0-17.2-2.8-23.5-8.4
	c-6.2-5.6-9.8-12.9-10.7-21.8l13.2-1.8c1.5,7.5,4.1,12.9,7.7,16.1c3.6,3.3,8.1,4.9,13.3,4.9c6.2,0,11.4-2.1,15.7-6.4
	c4.3-4.3,6.4-9.6,6.4-16c0-6.1-2-11-5.9-15c-4-3.9-9-5.9-15.1-5.9c-2.5,0-5.6,0.5-9.3,1.5l1.5-11.6c0.9,0.1,1.6,0.1,2.1,0.1
	c5.6,0,10.7-1.5,15.2-4.4c4.5-2.9,6.7-7.4,6.7-13.5c0-4.8-1.6-8.8-4.9-12c-3.3-3.2-7.5-4.8-12.7-4.8c-5.1,0-9.4,1.6-12.8,4.8
	c-3.4,3.2-5.6,8.1-6.6,14.5l-13.2-2.3c1.6-8.8,5.3-15.7,11-20.5c5.7-4.9,12.8-7.3,21.3-7.3c5.9,0,11.3,1.3,16.2,3.8
	c4.9,2.5,8.7,5.9,11.3,10.3c2.6,4.3,3.9,9,3.9,13.8c0,4.6-1.2,8.9-3.7,12.7s-6.2,6.8-11.1,9.1c6.3,1.5,11.3,4.5,14.8,9.1
	c3.5,4.6,5.3,10.4,5.3,17.3C515.2,310.6,511.7,318.6,504.9,325.1z"/>
</svg>
