<?xml version="1.0" encoding="utf-8"?>
<!-- Generator: Adobe Illustrator 17.1.0, SVG Export Plug-In . SVG Version: 6.00 Build 0)  -->
<!DOCTYPE svg PUBLIC "-//W3C//DTD SVG 1.1//EN" "http://www.w3.org/Graphics/SVG/1.1/DTD/svg11.dtd">
<svg version="1.1" id="Layer_1" xmlns="http://www.w3.org/2000/svg" xmlns:xlink="http://www.w3.org/1999/xlink" x="0px" y="0px"
	 viewBox="0 0 960 560" enable-background="new 0 0 960 560" xml:space="preserve">
<g>
	<circle fill="none" stroke="#000000" stroke-width="9" stroke-miterlimit="10" cx="480.4" cy="280" r="168.3"/>
	<line fill="none" stroke="#000000" stroke-width="17" stroke-miterlimit="10" x1="310" y1="288.5" x2="380" y2="288.5"/>
	<line fill="none" stroke="#000000" stroke-width="17" stroke-miterlimit="10" x1="649" y1="288.5" x2="583" y2="288.5"/>
	<line fill="none" stroke="#000000" stroke-width="17" stroke-miterlimit="10" x1="582.4" y1="142.6" x2="542.7" y2="195.5"/>
	<line fill="none" stroke="#000000" stroke-width="17" stroke-miterlimit="10" x1="378.5" y1="142.6" x2="423.1" y2="202.1"/>
	<line fill="none" stroke="#000000" stroke-width="17" stroke-miterlimit="10" x1="378.5" y1="417.4" x2="424.6" y2="355.9"/>
	<line fill="none" stroke="#000000" stroke-width="17" stroke-miterlimit="10" x1="582.4" y1="417.4" x2="541.1" y2="362.4"/>
</g>
<path d="M480.4,169.3c-61.2,0-110.7,49.6-110.7,110.7c0,61.2,49.6,110.7,110.7,110.7c61.2,0,110.7-49.6,110.7-110.7
	C591.2,218.8,541.6,169.3,480.4,169.3z M515,334h-70.5c-0.1-3,0.4-6.3,1.5-9.2c1.8-4.8,4.7-9.6,8.7-14.3c4-4.7,9.7-10.1,17.2-16.3
	c11.7-9.6,19.6-17.2,23.7-22.7c4.1-5.6,6.2-10.9,6.2-15.9c0-5.2-1.9-9.6-5.6-13.2c-3.7-3.6-8.6-5.4-14.6-5.4
	c-6.3,0-11.4,1.9-15.2,5.7s-5.7,9.1-5.8,15.8l-13.5-1.4c0.9-10.1,4.4-17.8,10.5-23.1c6.1-5.3,14.2-7.9,24.4-7.9
	c10.3,0,18.5,2.9,24.5,8.6s9,12.8,9,21.2c0,4.3-0.9,8.5-2.6,12.7c-1.8,4.2-4.7,8.5-8.8,13.1c-4.1,4.6-10.9,10.9-20.3,18.9
	c-7.9,6.6-13,11-15.2,13.4c-2.2,2.4-4.1,5-5.6,7H515V334z"/>
</svg>
