<?xml version="1.0" encoding="utf-8"?>
<!-- Generator: Adobe Illustrator 17.1.0, SVG Export Plug-In . SVG Version: 6.00 Build 0)  -->
<!DOCTYPE svg PUBLIC "-//W3C//DTD SVG 1.1//EN" "http://www.w3.org/Graphics/SVG/1.1/DTD/svg11.dtd">
<svg version="1.1" id="Layer_1" xmlns="http://www.w3.org/2000/svg" xmlns:xlink="http://www.w3.org/1999/xlink" x="0px" y="0px"
	 viewBox="0 0 960 560" enable-background="new 0 0 960 560" xml:space="preserve">
<g>
	<path d="M507.6,228.9c-15.3-15.3-40-15.3-55.2,0l-94.7,94.7c-15.3,15.3-15.3,40,0,55.2l94.7,94.7c15.3,15.3,40,15.3,55.2,0
		l94.7-94.7c15.3-15.3,15.3-40,0-55.2L507.6,228.9z"/>
	<path fill="none" stroke="#000000" stroke-width="33.4736" stroke-miterlimit="10" d="M386.1,189.2c0,0,31.6-46.5,93.9-46.5
		s93.9,46.5,93.9,46.5"/>
	<path fill="none" stroke="#000000" stroke-width="33.4736" stroke-miterlimit="10" d="M349.8,127.8c0,0,43.7-52.7,130.2-52.7
		s130.2,52.7,130.2,52.7"/>
</g>
</svg>
