<?xml version="1.0" encoding="utf-8"?>
<!-- Generator: Adobe Illustrator 17.1.0, SVG Export Plug-In . SVG Version: 6.00 Build 0)  -->
<!DOCTYPE svg PUBLIC "-//W3C//DTD SVG 1.1//EN" "http://www.w3.org/Graphics/SVG/1.1/DTD/svg11.dtd">
<svg version="1.1" id="Layer_1" xmlns="http://www.w3.org/2000/svg" xmlns:xlink="http://www.w3.org/1999/xlink" x="0px" y="0px"
	 viewBox="0 0 3000 1500" enable-background="new 0 0 3000 1500" xml:space="preserve">
<g>
	<circle fill="none" stroke="#000000" stroke-width="78.5544" stroke-miterlimit="10" cx="1500" cy="750" r="371"/>
	<circle fill="none" stroke="#000000" stroke-width="78.5544" stroke-miterlimit="10" cx="1500" cy="750" r="563"/>
	<line fill="none" stroke="#000000" stroke-width="79" stroke-miterlimit="10" x1="1867" y1="763.5" x2="2050" y2="763.5"/>
	<line fill="none" stroke="#000000" stroke-width="79" stroke-miterlimit="10" x1="1133" y1="763.5" x2="950" y2="763.5"/>
	
		<line fill="none" stroke="#000000" stroke-width="78.5544" stroke-miterlimit="10" x1="1303.2" y1="435.3" x2="1211.5" y2="276.6"/>
	
		<line fill="none" stroke="#000000" stroke-width="78.5544" stroke-miterlimit="10" x1="1303.2" y1="1090.9" x2="1211.5" y2="1249.6"/>
	
		<line fill="none" stroke="#000000" stroke-width="78.5544" stroke-miterlimit="10" x1="1674.1" y1="422.2" x2="1765.8" y2="263.5"/>
	
		<line fill="none" stroke="#000000" stroke-width="78.5544" stroke-miterlimit="10" x1="1674.1" y1="1104" x2="1765.8" y2="1262.7"/>
</g>
<rect x="1251.5" y="501.5" fill="none" stroke="#000000" stroke-width="79" stroke-miterlimit="10" width="497" height="497"/>
<g>
	<path d="M1603.2,869.9v36.8h-206.3c-0.3-9.2,1.2-18.1,4.5-26.6c5.2-14,13.7-27.9,25.2-41.5c11.6-13.6,28.3-29.4,50.1-47.3
		c33.9-27.8,56.8-49.8,68.8-66.1c11.9-16.2,17.9-31.6,17.9-46.1c0-15.2-5.4-28-16.3-38.4s-25-15.6-42.5-15.6
		c-18.5,0-33.2,5.5-44.3,16.6c-11.1,11.1-16.7,26.4-16.8,46l-39.4-4c2.7-29.4,12.8-51.8,30.4-67.2c17.6-15.4,41.2-23.1,70.9-23.1
		c29.9,0,53.6,8.3,71.1,24.9c17.5,16.6,26.2,37.2,26.2,61.7c0,12.5-2.6,24.8-7.7,36.8c-5.1,12.1-13.6,24.8-25.4,38.1
		c-11.9,13.3-31.5,31.6-59.1,54.9c-23,19.3-37.8,32.4-44.3,39.3c-6.5,6.9-11.9,13.8-16.2,20.8H1603.2z"/>
</g>
</svg>
