<?xml version="1.0" encoding="utf-8"?>
<!-- Generator: Adobe Illustrator 17.1.0, SVG Export Plug-In . SVG Version: 6.00 Build 0)  -->
<!DOCTYPE svg PUBLIC "-//W3C//DTD SVG 1.1//EN" "http://www.w3.org/Graphics/SVG/1.1/DTD/svg11.dtd">
<svg version="1.1" id="Layer_1" xmlns="http://www.w3.org/2000/svg" xmlns:xlink="http://www.w3.org/1999/xlink" x="0px" y="0px"
	 viewBox="0 0 960 560" enable-background="new 0 0 960 560" xml:space="preserve">
<g>
	<g>
		<polygon fill="none" stroke="#000000" stroke-width="8" stroke-miterlimit="10" points="509,169.4 480,137.2 451,169.4 451,423 
			509,423 		"/>
		<polygon stroke="#000000" stroke-width="8" stroke-miterlimit="10" points="451,218.4 451,267 408.3,267 		"/>
		<polygon stroke="#000000" stroke-width="8" stroke-miterlimit="10" points="451,313 451,403 369.1,403 		"/>
		<polygon stroke="#000000" stroke-width="8" stroke-miterlimit="10" points="509,218.4 509,267 551.7,267 		"/>
		<polygon stroke="#000000" stroke-width="8" stroke-miterlimit="10" points="509,313 509,403 590.9,403 		"/>
	</g>
	<g>
		<polygon fill="none" stroke="#000000" stroke-width="8" stroke-miterlimit="10" points="239,169.4 210,137.2 181,169.4 181,423 
			239,423 		"/>
		<polygon stroke="#000000" stroke-width="8" stroke-miterlimit="10" points="181,218.4 181,267 138.3,267 		"/>
		<polygon stroke="#000000" stroke-width="8" stroke-miterlimit="10" points="181,313 181,403 99.1,403 		"/>
		<polygon stroke="#000000" stroke-width="8" stroke-miterlimit="10" points="239,218.4 239,267 281.7,267 		"/>
		<polygon stroke="#000000" stroke-width="8" stroke-miterlimit="10" points="239,313 239,403 320.9,403 		"/>
	</g>
	<g>
		<polygon fill="none" stroke="#000000" stroke-width="8" stroke-miterlimit="10" points="779,169.4 750,137.2 721,169.4 721,423 
			779,423 		"/>
		<polygon stroke="#000000" stroke-width="8" stroke-miterlimit="10" points="721,218.4 721,267 678.3,267 		"/>
		<polygon stroke="#000000" stroke-width="8" stroke-miterlimit="10" points="721,313 721,403 639.1,403 		"/>
		<polygon stroke="#000000" stroke-width="8" stroke-miterlimit="10" points="779,218.4 779,267 821.7,267 		"/>
		<polygon stroke="#000000" stroke-width="8" stroke-miterlimit="10" points="779,313 779,403 860.9,403 		"/>
	</g>
</g>
</svg>
