<?xml version="1.0" encoding="utf-8"?>
<!-- Generator: Adobe Illustrator 17.1.0, SVG Export Plug-In . SVG Version: 6.00 Build 0)  -->
<!DOCTYPE svg PUBLIC "-//W3C//DTD SVG 1.1//EN" "http://www.w3.org/Graphics/SVG/1.1/DTD/svg11.dtd">
<svg version="1.1" id="Layer_1" xmlns="http://www.w3.org/2000/svg" xmlns:xlink="http://www.w3.org/1999/xlink" x="0px" y="0px"
	 viewBox="0 0 960 560" enable-background="new 0 0 960 560" xml:space="preserve">
<polygon fill="none" stroke="#000000" stroke-width="14" stroke-miterlimit="10" points="706.8,390.2 480,500.4 253.2,390.2 
	253.2,169.8 480,59.6 706.8,169.8 "/>
<g>
	<path d="M465.2,255.1c5.1-3.3,10.3-5.8,15.5-7.5c5.2-1.7,10.7-2.5,16.5-2.5c15.7,0,27.5,5.6,35.3,16.9
		c7.8,11.3,11.8,28.2,11.8,50.8c0,25.9-5.3,45.3-15.8,58.1c-10.5,12.8-26.5,19.2-47.8,19.2c-10.3,0-19.4-1.5-27.4-4.5
		c-7.9-3-14.8-7.5-20.5-13.5c-6.3-6.7-10.7-15.8-13.3-27.3c-2.6-11.5-3.8-32.4-3.8-62.5c0-25,0.7-43.2,2-54.7
		c1.3-11.5,3.6-20.7,6.9-27.8c4.5-9.7,11.6-17.2,21.4-22.3c9.8-5.1,21.8-7.7,35.8-7.7c18.8,0,33.3,4.8,43.7,14.3
		c10.4,9.5,15.6,22.8,15.6,39.9v1.4h-45.5c-0.2-6.8-1.5-11.8-3.9-15.2c-2.4-3.3-6-5-10.7-5c-5.8,0-9.9,2.6-12.3,7.7
		c-2.5,5.1-3.7,14.1-3.7,27c0,4,0,7,0.1,9.1C465.1,251.2,465.1,253.2,465.2,255.1z M463.8,318c0,13,1.3,22.1,3.9,27.4
		c2.6,5.3,7,7.9,13.2,7.9c5.5,0,9.3-2.6,11.6-7.7c2.2-5.1,3.3-14.7,3.3-28.7c0-13.6-1.2-23-3.7-28.1c-2.5-5.1-6.8-7.6-12.9-7.6
		c-5.7,0-9.7,2.6-12,7.9C465,294.4,463.8,304,463.8,318z"/>
</g>
</svg>
