<?xml version="1.0" encoding="utf-8"?>
<!-- Generator: Adobe Illustrator 17.1.0, SVG Export Plug-In . SVG Version: 6.00 Build 0)  -->
<!DOCTYPE svg PUBLIC "-//W3C//DTD SVG 1.1//EN" "http://www.w3.org/Graphics/SVG/1.1/DTD/svg11.dtd">
<svg version="1.1" id="Layer_1" xmlns="http://www.w3.org/2000/svg" xmlns:xlink="http://www.w3.org/1999/xlink" x="0px" y="0px"
	 viewBox="0 0 960 560" enable-background="new 0 0 960 560" xml:space="preserve">
<polygon fill="none" stroke="#000000" stroke-width="14" stroke-miterlimit="10" points="706.8,390.2 480,500.4 253.2,390.2 
	253.2,169.8 480,59.6 706.8,169.8 "/>
<g>
	<path d="M417,317.8h44.4c0.4,12.2,1.9,20.7,4.5,25.5c2.6,4.8,7,7.2,13.1,7.2c6.4,0,11-2.6,13.8-7.7c2.8-5.2,4.2-13.9,4.2-26.1
		c0-17.6-1.4-29.4-4.2-35.2c-2.8-5.8-7.9-8.8-15.3-8.8c-4.4,0-8,1.3-10.9,3.8s-5.2,6.3-6.8,11.4h-39.8l3.9-116.4h110.7V210h-74.1
		l-1.5,39c5.8-3.8,11.6-6.7,17.5-8.6c5.9-1.9,12-2.9,18.5-2.9c16.3,0,28.5,6,36.4,18.1c7.9,12.1,11.8,30.4,11.8,55
		c0,25.9-5.3,45.4-15.9,58.4c-10.6,13-26.5,19.5-47.6,19.5c-20.2,0-35.7-5.7-46.4-17.2c-10.7-11.5-16.1-28-16.1-49.5V317.8z"/>
</g>
</svg>
