<?xml version="1.0" encoding="utf-8"?>
<!-- Generator: Adobe Illustrator 17.1.0, SVG Export Plug-In . SVG Version: 6.00 Build 0)  -->
<!DOCTYPE svg PUBLIC "-//W3C//DTD SVG 1.1//EN" "http://www.w3.org/Graphics/SVG/1.1/DTD/svg11.dtd">
<svg version="1.1" id="Layer_1" xmlns="http://www.w3.org/2000/svg" xmlns:xlink="http://www.w3.org/1999/xlink" x="0px" y="0px"
	 viewBox="0 0 960 560" enable-background="new 0 0 960 560" xml:space="preserve">
<polygon fill="none" stroke="#000000" stroke-width="14" stroke-miterlimit="10" points="706.8,390.2 480,500.4 253.2,390.2 
	253.2,169.8 480,59.6 706.8,169.8 "/>
<g>
	<path d="M415.7,388.1v-3.5c0-8.2,0.9-16.2,2.7-24.2c1.8-7.9,4.6-15.9,8.4-24c7.7-16.8,19.8-33.6,36.4-50.3c2.4-2.4,4.2-4.2,5.3-5.3
		l1.3-1.4c18.1-19,27.2-35.7,27.2-50c0-6.6-1.3-11.7-3.9-15.2c-2.6-3.5-6.3-5.3-11.1-5.3c-6.9,0-11.9,2.9-15,8.6
		c-3.1,5.8-4.7,15-4.7,27.6v3.8h-44.6v-5.7c0-23,5.6-40.7,16.9-52.9c11.3-12.3,27.5-18.4,48.7-18.4c19.1,0,34.1,5.3,44.8,15.9
		c10.8,10.6,16.2,25.3,16.2,44c0,11.1-2.3,21.6-7,31.5c-4.6,10-11.9,20.1-21.9,30.3c-2.1,2.2-5.3,5.4-9.6,9.6
		c-17.6,17.2-28.7,31.4-33.1,42.6h71v42.2H415.7z"/>
</g>
</svg>
