<?xml version="1.0" encoding="utf-8"?>
<!-- Generator: Adobe Illustrator 17.1.0, SVG Export Plug-In . SVG Version: 6.00 Build 0)  -->
<!DOCTYPE svg PUBLIC "-//W3C//DTD SVG 1.1//EN" "http://www.w3.org/Graphics/SVG/1.1/DTD/svg11.dtd">
<svg version="1.1" id="Layer_1" xmlns="http://www.w3.org/2000/svg" xmlns:xlink="http://www.w3.org/1999/xlink" x="0px" y="0px"
	 viewBox="0 0 960 560" enable-background="new 0 0 960 560" xml:space="preserve">
<g>
	<circle cx="480" cy="280" r="63"/>
	<path fill="none" stroke="#000000" stroke-width="8.3452" stroke-miterlimit="10" d="M417,197c0,0,62.1-32.4,126.1,0"/>
	<path fill="none" stroke="#000000" stroke-width="8.3452" stroke-miterlimit="10" d="M409.5,163c0,0,69.4-32.4,140.9,0"/>
	<path fill="none" stroke="#000000" stroke-width="8.3452" stroke-miterlimit="10" d="M398.4,129c0,0,80.4-32.4,163.2,0"/>
	<path fill="none" stroke="#000000" stroke-width="8.3452" stroke-miterlimit="10" d="M417,363c0,0,62.1,32.4,126.1,0"/>
	<path fill="none" stroke="#000000" stroke-width="8.3452" stroke-miterlimit="10" d="M409.5,397c0,0,69.4,32.4,140.9,0"/>
	<path fill="none" stroke="#000000" stroke-width="8.3452" stroke-miterlimit="10" d="M398.4,431c0,0,80.4,32.4,163.2,0"/>
	<path fill="none" stroke="#000000" stroke-width="8.3452" stroke-miterlimit="10" d="M391.3,217c0,0-32.4,62.1,0,126.1"/>
	<path fill="none" stroke="#000000" stroke-width="8.3452" stroke-miterlimit="10" d="M357.3,209.5c0,0-32.4,69.4,0,140.9"/>
	<path fill="none" stroke="#000000" stroke-width="8.3452" stroke-miterlimit="10" d="M323.4,198.4c0,0-32.4,80.4,0,163.2"/>
	<path fill="none" stroke="#000000" stroke-width="8.3452" stroke-miterlimit="10" d="M568.7,217c0,0,32.4,62.1,0,126.1"/>
	<path fill="none" stroke="#000000" stroke-width="8.3452" stroke-miterlimit="10" d="M602.7,209.5c0,0,32.4,69.4,0,140.9"/>
	<path fill="none" stroke="#000000" stroke-width="8.3452" stroke-miterlimit="10" d="M636.6,198.4c0,0,32.4,80.4,0,163.2"/>
</g>
</svg>
