<?xml version="1.0" encoding="utf-8"?>
<!-- Generator: Adobe Illustrator 17.1.0, SVG Export Plug-In . SVG Version: 6.00 Build 0)  -->
<!DOCTYPE svg PUBLIC "-//W3C//DTD SVG 1.1//EN" "http://www.w3.org/Graphics/SVG/1.1/DTD/svg11.dtd">
<svg version="1.1" id="Layer_1" xmlns="http://www.w3.org/2000/svg" xmlns:xlink="http://www.w3.org/1999/xlink" x="0px" y="0px"
	 viewBox="0 0 960 560" enable-background="new 0 0 960 560" xml:space="preserve">
<g>
	<rect x="413" y="213" transform="matrix(0.7071 -0.7071 0.7071 0.7071 -57.4011 421.4214)" width="134" height="134"/>
	<polyline fill="none" stroke="#000000" stroke-width="14" stroke-miterlimit="10" points="398.8,214 332.8,280 398.8,346 	"/>
	<polyline fill="none" stroke="#000000" stroke-width="14" stroke-miterlimit="10" points="378.2,193.5 291.7,280 378.2,366.5 	"/>
	<polyline fill="none" stroke="#000000" stroke-width="14" stroke-miterlimit="10" points="561.2,214 627.2,280 561.2,346 	"/>
	<polyline fill="none" stroke="#000000" stroke-width="14" stroke-miterlimit="10" points="581.8,193.5 668.3,280 581.8,366.5 	"/>
	<polyline fill="none" stroke="#000000" stroke-width="14" stroke-miterlimit="10" points="414,200.3 480,134.3 546,200.3 	"/>
	<polyline fill="none" stroke="#000000" stroke-width="14" stroke-miterlimit="10" points="393.5,179.7 480,93.2 566.5,179.7 	"/>
	<polyline fill="none" stroke="#000000" stroke-width="14" stroke-miterlimit="10" points="414,359.7 480,425.7 546,359.7 	"/>
	<polyline fill="none" stroke="#000000" stroke-width="14" stroke-miterlimit="10" points="393.5,380.3 480,466.8 566.5,380.3 	"/>
</g>
</svg>
