<?xml version="1.0" encoding="utf-8"?>
<!-- Generator: Adobe Illustrator 17.1.0, SVG Export Plug-In . SVG Version: 6.00 Build 0)  -->
<!DOCTYPE svg PUBLIC "-//W3C//DTD SVG 1.1//EN" "http://www.w3.org/Graphics/SVG/1.1/DTD/svg11.dtd">
<svg version="1.1" id="Layer_1" xmlns="http://www.w3.org/2000/svg" xmlns:xlink="http://www.w3.org/1999/xlink" x="0px" y="0px"
	 viewBox="0 0 960 560" enable-background="new 0 0 960 560" xml:space="preserve">
<polygon fill="none" stroke="#000000" stroke-width="18.714" stroke-miterlimit="10" points="480,529 392,279.9 304.1,31 480,31 
	655.9,31 568,279.9 "/>
<circle fill="none" stroke="#000000" stroke-width="11.6523" stroke-miterlimit="10" cx="480" cy="145.2" r="75.7"/>
<path fill="none" stroke="#000000" stroke-width="11.6523" stroke-miterlimit="10" d="M438.2,208.4c-10.8,10.7-17.4,25.5-17.4,41.9
	c0,32.7,26.5,59.2,59.2,59.2s59.2-26.5,59.2-59.2c0-16.3-6.6-31.1-17.3-41.8"/>
<path fill="none" stroke="#000000" stroke-width="11.6523" stroke-miterlimit="10" d="M448.4,300.4c-5.4,6.9-8.7,15.5-8.7,25
	c0,22.3,18,40.3,40.3,40.3c22.3,0,40.3-18,40.3-40.3c0-9.5-3.3-18.2-8.7-25"/>
<g>
	<path d="M510.7,148.1c-0.6-11.9-1.4-26.2-1.3-36.9H509c-2.9,10-6.5,20.6-10.8,32.4l-15.1,41.4h-8.4L461,144.4
		c-4.1-12-7.5-23.1-9.9-33.2h-0.3c-0.3,10.6-0.9,25-1.6,37.8l-2.3,36.6h-10.5l6-85.4h14.1l14.6,41.3c3.5,10.5,6.5,19.9,8.6,28.8h0.4
		c2.2-8.6,5.2-18,9-28.8l15.2-41.3h14.1l5.3,85.4h-10.8L510.7,148.1z"/>
</g>
</svg>
