<?xml version="1.0" encoding="utf-8"?>
<!-- Generator: Adobe Illustrator 17.1.0, SVG Export Plug-In . SVG Version: 6.00 Build 0)  -->
<!DOCTYPE svg PUBLIC "-//W3C//DTD SVG 1.1//EN" "http://www.w3.org/Graphics/SVG/1.1/DTD/svg11.dtd">
<svg version="1.1" id="Layer_1" xmlns="http://www.w3.org/2000/svg" xmlns:xlink="http://www.w3.org/1999/xlink" x="0px" y="0px"
	 viewBox="0 0 960 560" enable-background="new 0 0 960 560" xml:space="preserve">
<polygon fill="none" stroke="#000000" stroke-width="18.714" stroke-miterlimit="10" points="480,529 392,279.9 304.1,31 480,31 
	655.9,31 568,279.9 "/>
<circle fill="none" stroke="#000000" stroke-width="11.6523" stroke-miterlimit="10" cx="480" cy="145.2" r="75.7"/>
<path fill="none" stroke="#000000" stroke-width="11.6523" stroke-miterlimit="10" d="M438.2,208.4c-10.8,10.7-17.4,25.5-17.4,41.9
	c0,32.7,26.5,59.2,59.2,59.2s59.2-26.5,59.2-59.2c0-16.3-6.6-31.1-17.3-41.8"/>
<path fill="none" stroke="#000000" stroke-width="11.6523" stroke-miterlimit="10" d="M448.4,300.4c-5.4,6.9-8.7,15.5-8.7,25
	c0,22.3,18,40.3,40.3,40.3c22.3,0,40.3-18,40.3-40.3c0-9.5-3.3-18.2-8.7-25"/>
<g>
	<path d="M450.9,183c6.2,3.8,15.4,7,25,7c14.2,0,22.6-7.5,22.6-18.4c0-10.1-5.8-15.8-20.3-21.5c-17.6-6.2-28.5-15.4-28.5-30.6
		c0-16.8,13.9-29.3,34.9-29.3c11,0,19.1,2.6,23.9,5.3l-3.8,11.4c-3.5-1.9-10.7-5.1-20.5-5.1c-14.7,0-20.3,8.8-20.3,16.2
		c0,10.1,6.6,15,21.5,20.8c18.3,7,27.5,15.8,27.5,31.7c0,16.6-12.3,31.1-37.8,31.1c-10.4,0-21.8-3-27.5-6.9L450.9,183z"/>
</g>
</svg>
