<?xml version="1.0" encoding="utf-8"?>
<!-- Generator: Adobe Illustrator 17.1.0, SVG Export Plug-In . SVG Version: 6.00 Build 0)  -->
<!DOCTYPE svg PUBLIC "-//W3C//DTD SVG 1.1//EN" "http://www.w3.org/Graphics/SVG/1.1/DTD/svg11.dtd">
<svg version="1.1" id="Layer_1" xmlns="http://www.w3.org/2000/svg" xmlns:xlink="http://www.w3.org/1999/xlink" x="0px" y="0px"
	 viewBox="0 0 960 560" enable-background="new 0 0 960 560" xml:space="preserve">
<polygon fill="none" stroke="#000000" stroke-width="18.714" stroke-miterlimit="10" points="480,529 392,279.9 304.1,31 480,31 
	655.9,31 568,279.9 "/>
<circle fill="none" stroke="#000000" stroke-width="11.6523" stroke-miterlimit="10" cx="480" cy="145.2" r="75.7"/>
<path fill="none" stroke="#000000" stroke-width="11.6523" stroke-miterlimit="10" d="M438.2,208.4c-10.8,10.7-17.4,25.5-17.4,41.9
	c0,32.7,26.5,59.2,59.2,59.2s59.2-26.5,59.2-59.2c0-16.3-6.6-31.1-17.3-41.8"/>
<path fill="none" stroke="#000000" stroke-width="11.6523" stroke-miterlimit="10" d="M448.4,300.4c-5.4,6.9-8.7,15.5-8.7,25
	c0,22.3,18,40.3,40.3,40.3c22.3,0,40.3-18,40.3-40.3c0-9.5-3.3-18.2-8.7-25"/>
<g>
	<path d="M453.1,97.2h12.5v86.1h41.3v10.5h-53.7V97.2z"/>
</g>
</svg>
