<?xml version="1.0" encoding="utf-8"?>
<!-- Generator: Adobe Illustrator 17.1.0, SVG Export Plug-In . SVG Version: 6.00 Build 0)  -->
<!DOCTYPE svg PUBLIC "-//W3C//DTD SVG 1.1//EN" "http://www.w3.org/Graphics/SVG/1.1/DTD/svg11.dtd">
<svg version="1.1" id="Layer_1" xmlns="http://www.w3.org/2000/svg" xmlns:xlink="http://www.w3.org/1999/xlink" x="0px" y="0px"
	 viewBox="0 0 960 560" enable-background="new 0 0 960 560" xml:space="preserve">
<g>
	<g>
		<path fill="none" stroke="#000000" stroke-width="20" stroke-miterlimit="10" d="M485.6,144.4C410.7,144.4,350,205.1,350,280
			s60.7,135.6,135.6,135.6S621.2,354.9,621.2,280C621.2,205.1,560.4,144.4,485.6,144.4z"/>
		<circle fill="none" stroke="#000000" stroke-width="20" stroke-miterlimit="10" cx="485.6" cy="280" r="206.1"/>
		<line fill="none" stroke="#000000" stroke-width="20" stroke-miterlimit="10" x1="279.4" y1="291" x2="352.3" y2="291"/>
		<line fill="none" stroke="#000000" stroke-width="20" stroke-miterlimit="10" x1="692.8" y1="291" x2="621.1" y2="291"/>
		<line fill="none" stroke="#000000" stroke-width="20" stroke-miterlimit="10" x1="610.4" y1="111.8" x2="566" y2="170.9"/>
		<line fill="none" stroke="#000000" stroke-width="20" stroke-miterlimit="10" x1="360.7" y1="111.8" x2="405.1" y2="170.9"/>
		<line fill="none" stroke="#000000" stroke-width="20" stroke-miterlimit="10" x1="360.7" y1="448.2" x2="405.1" y2="389.1"/>
		<line fill="none" stroke="#000000" stroke-width="20" stroke-miterlimit="10" x1="610.4" y1="448.2" x2="566" y2="389.1"/>
	</g>
</g>
<g>
	<path d="M505.4,376.7h-23.6V226.1c-5.7,5.4-13.2,10.8-22.4,16.3c-9.2,5.4-17.5,9.5-24.9,12.2v-22.8c13.2-6.2,24.8-13.7,34.7-22.6
		c9.9-8.8,16.9-17.4,21-25.7h15.2L505.4,376.7L505.4,376.7z"/>
</g>
</svg>
