<?xml version="1.0" encoding="utf-8"?>
<!-- Generator: Adobe Illustrator 17.1.0, SVG Export Plug-In . SVG Version: 6.00 Build 0)  -->
<!DOCTYPE svg PUBLIC "-//W3C//DTD SVG 1.1//EN" "http://www.w3.org/Graphics/SVG/1.1/DTD/svg11.dtd">
<svg version="1.1" id="Layer_1" xmlns="http://www.w3.org/2000/svg" xmlns:xlink="http://www.w3.org/1999/xlink" x="0px" y="0px"
	 viewBox="0 0 3000 1500" enable-background="new 0 0 3000 1500" xml:space="preserve">
<g>
	<g>
		<path fill="none" stroke="#000000" stroke-width="37.9741" stroke-miterlimit="10" d="M1517.4,326.3
			c-234,0-423.7,189.7-423.7,423.7c0,234,189.7,423.7,423.7,423.7c234,0,423.7-189.7,423.7-423.7
			C1941.1,516,1751.4,326.3,1517.4,326.3z"/>
		<circle fill="none" stroke="#000000" stroke-width="36.8424" stroke-miterlimit="10" cx="1517.4" cy="750" r="644"/>
		<line fill="none" stroke="#000000" stroke-width="79" stroke-miterlimit="10" x1="873" y1="784.5" x2="1101" y2="784.5"/>
		<line fill="none" stroke="#000000" stroke-width="79" stroke-miterlimit="10" x1="2165" y1="784.5" x2="1941" y2="784.5"/>
		<line fill="none" stroke="#000000" stroke-width="79" stroke-miterlimit="10" x1="1907.4" y1="224.3" x2="1768.9" y2="409"/>
		<line fill="none" stroke="#000000" stroke-width="79" stroke-miterlimit="10" x1="1127.3" y1="224.3" x2="1265.9" y2="409"/>
		<line fill="none" stroke="#000000" stroke-width="79" stroke-miterlimit="10" x1="1127.3" y1="1275.7" x2="1265.8" y2="1091"/>
		<line fill="none" stroke="#000000" stroke-width="79" stroke-miterlimit="10" x1="1907.4" y1="1275.7" x2="1768.9" y2="1091"/>
	</g>
</g>
<g>
	<path d="M1698.8,980.9v71h-397.5c-0.6-17.8,2.3-34.9,8.6-51.3c10.1-27.1,26.3-53.7,48.6-80c22.3-26.3,54.5-56.6,96.6-91.1
		c65.4-53.6,109.5-96,132.5-127.4c23-31.3,34.5-60.9,34.5-88.8c0-29.3-10.5-53.9-31.4-74s-48.2-30.1-81.8-30.1
		c-35.6,0-64,10.7-85.3,32s-32.1,50.9-32.4,88.6l-75.9-7.8c5.2-56.6,24.7-99.7,58.7-129.4c33.9-29.7,79.4-44.5,136.6-44.5
		c57.7,0,103.4,16,137,48c33.6,32,50.5,71.6,50.5,119c0,24.1-4.9,47.7-14.8,71c-9.8,23.2-26.2,47.7-49,73.4
		c-22.8,25.7-60.8,61-113.8,105.8c-44.3,37.2-72.7,62.4-85.3,75.7c-12.6,13.3-23,26.6-31.2,40H1698.8z"/>
</g>
</svg>
