<?xml version="1.0" encoding="utf-8"?>
<!-- Generator: Adobe Illustrator 17.1.0, SVG Export Plug-In . SVG Version: 6.00 Build 0)  -->
<!DOCTYPE svg PUBLIC "-//W3C//DTD SVG 1.1//EN" "http://www.w3.org/Graphics/SVG/1.1/DTD/svg11.dtd">
<svg version="1.1" id="Layer_1" xmlns="http://www.w3.org/2000/svg" xmlns:xlink="http://www.w3.org/1999/xlink" x="0px" y="0px"
	 viewBox="0 0 960 560" enable-background="new 0 0 960 560" xml:space="preserve">
<g>
	<g>
		<g>
			<g>
				<path fill="none" stroke="#000000" stroke-width="8.3546" stroke-miterlimit="10" d="M479.8,98.5c-31.3,0-56.6,25.4-56.6,56.6
					s25.4,56.6,56.6,56.6s56.6-25.4,56.6-56.6C536.4,123.8,511.1,98.5,479.8,98.5z"/>
				<circle fill="none" stroke="#000000" stroke-width="8.3546" stroke-miterlimit="10" cx="479.8" cy="155.1" r="86.1"/>
				
					<line fill="none" stroke="#000000" stroke-width="8.3546" stroke-miterlimit="10" x1="393.6" y1="159.7" x2="424.1" y2="159.7"/>
				
					<line fill="none" stroke="#000000" stroke-width="8.3546" stroke-miterlimit="10" x1="566.4" y1="159.7" x2="536.4" y2="159.7"/>
				<line fill="none" stroke="#000000" stroke-width="8.3546" stroke-miterlimit="10" x1="531.9" y1="84.8" x2="513.4" y2="109.5"/>
				<line fill="none" stroke="#000000" stroke-width="8.3546" stroke-miterlimit="10" x1="427.6" y1="84.8" x2="446.2" y2="109.5"/>
				
					<line fill="none" stroke="#000000" stroke-width="8.3546" stroke-miterlimit="10" x1="427.6" y1="225.4" x2="446.2" y2="200.7"/>
				
					<line fill="none" stroke="#000000" stroke-width="8.3546" stroke-miterlimit="10" x1="531.9" y1="225.4" x2="513.4" y2="200.7"/>
			</g>
		</g>
		<g>
			<path d="M445.8,177.5v-44.9h16.8c3.4,0,6.2,0.5,8.2,1.4c2.1,0.9,3.7,2.3,4.9,4.2c1.2,1.9,1.8,3.9,1.8,5.9c0,1.9-0.5,3.7-1.6,5.4
				c-1,1.7-2.6,3.1-4.7,4.1c2.7,0.8,4.8,2.2,6.3,4.1c1.5,1.9,2.2,4.2,2.2,6.8c0,2.1-0.4,4.1-1.3,5.9c-0.9,1.8-2,3.2-3.3,4.2
				c-1.3,1-2.9,1.7-4.9,2.2c-2,0.5-4.4,0.7-7.2,0.7H445.8z M451.7,151.5h9.7c2.6,0,4.5-0.2,5.7-0.5c1.5-0.4,2.6-1.2,3.4-2.2
				c0.8-1,1.1-2.3,1.1-3.9c0-1.5-0.4-2.8-1.1-3.9c-0.7-1.1-1.7-1.9-3.1-2.3c-1.3-0.4-3.6-0.6-6.8-0.6h-9V151.5z M451.7,172.2h11.2
				c1.9,0,3.3-0.1,4-0.2c1.4-0.2,2.5-0.7,3.4-1.2c0.9-0.6,1.7-1.4,2.3-2.5c0.6-1.1,0.9-2.4,0.9-3.8c0-1.7-0.4-3.1-1.3-4.4
				c-0.9-1.2-2-2.1-3.6-2.6c-1.5-0.5-3.7-0.7-6.6-0.7h-10.4V172.2z"/>
			<path d="M499.3,177.5V138h-14.8v-5.3H520v5.3h-14.8v39.6H499.3z"/>
		</g>
	</g>
	<path d="M523.4,433.9l-21.7-37.6c0,0,35-76.7-21.7-122.3c-56.7,45.7-21.7,122.3-21.7,122.3l-21.7,37.6H471V491h18v-57.1H523.4z"/>
</g>
</svg>
