<?xml version="1.0" encoding="utf-8"?>
<!-- Generator: Adobe Illustrator 17.1.0, SVG Export Plug-In . SVG Version: 6.00 Build 0)  -->
<!DOCTYPE svg PUBLIC "-//W3C//DTD SVG 1.1//EN" "http://www.w3.org/Graphics/SVG/1.1/DTD/svg11.dtd">
<svg version="1.1" id="Layer_1" xmlns="http://www.w3.org/2000/svg" xmlns:xlink="http://www.w3.org/1999/xlink" x="0px" y="0px"
	 viewBox="0 0 960 560" enable-background="new 0 0 960 560" xml:space="preserve">
<g>
	<circle fill="none" stroke="#000000" stroke-width="9" stroke-miterlimit="10" cx="480.4" cy="280" r="168.3"/>
	<line fill="none" stroke="#000000" stroke-width="9" stroke-miterlimit="10" x1="310" y1="288.5" x2="371" y2="288.5"/>
	<line fill="none" stroke="#000000" stroke-width="9" stroke-miterlimit="10" x1="649" y1="288.5" x2="589" y2="288.5"/>
	<line fill="none" stroke="#000000" stroke-width="9" stroke-miterlimit="10" x1="582.4" y1="142.6" x2="546.4" y2="190.6"/>
	<line fill="none" stroke="#000000" stroke-width="9" stroke-miterlimit="10" x1="378.5" y1="142.6" x2="415.7" y2="192.3"/>
	<line fill="none" stroke="#000000" stroke-width="9" stroke-miterlimit="10" x1="378.5" y1="417.4" x2="415.6" y2="367.9"/>
	<line fill="none" stroke="#000000" stroke-width="9" stroke-miterlimit="10" x1="582.4" y1="417.4" x2="544.8" y2="367.3"/>
	<g>
		<path fill="none" stroke="#000000" stroke-width="9" stroke-miterlimit="10" d="M480.4,169.3c-61.2,0-110.7,49.6-110.7,110.7
			c0,61.2,49.6,110.7,110.7,110.7c61.2,0,110.7-49.6,110.7-110.7C591.2,218.8,541.6,169.3,480.4,169.3z"/>
	</g>
</g>
<g>
	<path d="M416.2,345.5v-5c4.4,0,7.4-0.6,9.1-1.7c1.7-1.2,2.5-3.2,2.5-6V228c0-3.6-0.8-5.9-2.5-7c-1.7-1-4.7-1.5-9.1-1.5v-5h42.5v5
		c-4.4,0-7.4,0.5-9.1,1.5c-1.7,1-2.5,3.4-2.5,7v104.8c0,2.8,0.8,4.8,2.5,6c1.7,1.2,4.7,1.7,9.1,1.7v5H416.2z M458.7,345.5v-5
		c4.4,0,7.4-0.6,9.1-1.7c1.7-1.2,2.5-3.2,2.5-6V228c0-3.6-0.8-5.9-2.5-7c-1.7-1-4.7-1.5-9.1-1.5v-5h42.5v5c-4.4,0-7.4,0.5-9.1,1.5
		c-1.7,1-2.5,3.4-2.5,7v104.8c0,2.8,0.8,4.8,2.5,6c1.7,1.2,4.7,1.7,9.1,1.7v5H458.7z M501.3,345.5v-5c4.4,0,7.4-0.6,9.1-1.7
		c1.7-1.2,2.5-3.2,2.5-6V228c0-3.6-0.8-5.9-2.5-7c-1.7-1-4.7-1.5-9.1-1.5v-5h42.5v5c-4.4,0-7.4,0.5-9.1,1.5c-1.7,1-2.5,3.4-2.5,7
		v104.8c0,2.8,0.8,4.8,2.5,6c1.7,1.2,4.7,1.7,9.1,1.7v5H501.3z"/>
</g>
</svg>
