<?xml version="1.0" encoding="utf-8"?>
<!-- Generator: Adobe Illustrator 17.1.0, SVG Export Plug-In . SVG Version: 6.00 Build 0)  -->
<!DOCTYPE svg PUBLIC "-//W3C//DTD SVG 1.1//EN" "http://www.w3.org/Graphics/SVG/1.1/DTD/svg11.dtd">
<svg version="1.1" id="Layer_1" xmlns="http://www.w3.org/2000/svg" xmlns:xlink="http://www.w3.org/1999/xlink" x="0px" y="0px"
	 viewBox="0 0 960 560" enable-background="new 0 0 960 560" xml:space="preserve">
<polygon fill="none" stroke="#000000" stroke-width="12.2211" stroke-miterlimit="10" points="480,63.6 553.4,280 626.8,496.4 
	480,496.4 333.2,496.4 406.6,280 "/>
<g>
	<path d="M472.7,432.5c-0.8-15.4-1.8-33.9-1.6-47.7h-0.5c-3.8,13-8.4,26.7-13.9,42l-19.5,53.6h-10.8l-17.9-52.6
		c-5.2-15.6-9.7-29.8-12.8-43h-0.3c-0.3,13.8-1.1,32.3-2.1,48.9l-3,47.4h-13.6l7.7-110.5h18.2l18.9,53.5
		c4.6,13.6,8.4,25.7,11.2,37.2h0.5c2.8-11.2,6.7-23.3,11.6-37.2l19.7-53.5h18.2l6.9,110.5h-13.9L472.7,432.5z"/>
	<path d="M511.4,371.9c7.2-1.5,17.5-2.3,27.4-2.3c15.3,0,25.1,2.8,32,9c5.6,4.9,8.7,12.5,8.7,21c0,14.6-9.2,24.3-20.8,28.2v0.5
		c8.5,3,13.6,10.8,16.2,22.3c3.6,15.4,6.2,26.1,8.5,30.3h-14.8c-1.8-3.1-4.3-12.6-7.4-26.4c-3.3-15.3-9.2-21-22.1-21.5h-13.4V481
		h-14.3V371.9z M525.7,422.3h14.6c15.3,0,24.9-8.4,24.9-21c0-14.3-10.3-20.5-25.4-20.7c-6.9,0-11.8,0.7-14.1,1.3V422.3z"/>
</g>
</svg>
