<?xml version="1.0" encoding="utf-8"?>
<!-- Generator: Adobe Illustrator 17.1.0, SVG Export Plug-In . SVG Version: 6.00 Build 0)  -->
<!DOCTYPE svg PUBLIC "-//W3C//DTD SVG 1.1//EN" "http://www.w3.org/Graphics/SVG/1.1/DTD/svg11.dtd">
<svg version="1.1" id="Layer_1" xmlns="http://www.w3.org/2000/svg" xmlns:xlink="http://www.w3.org/1999/xlink" x="0px" y="0px"
	 viewBox="0 0 960 560" enable-background="new 0 0 960 560" xml:space="preserve">
<g>
	<g>
		<rect x="416.7" y="94.3" width="37.5" height="65.4"/>
		<rect x="398.7" y="159.6" width="18" height="18"/>
		<rect x="379.5" y="177.6" width="19.2" height="55.8"/>
		<rect x="361.5" y="233.4" width="18" height="18.6"/>
		<rect x="324" y="252" width="37.5" height="18.9"/>
		<rect x="305.4" y="270.9" width="18.6" height="18.6"/>
		<rect x="286.8" y="289.4" width="18.6" height="37.2"/>
		<rect x="268.3" y="326.6" width="18.6" height="18.6"/>
		<polygon points="268.3,363.7 268.3,345.2 231.4,345.2 231.4,382.1 286.8,381.9 286.8,363.5 		"/>
		<rect x="286.8" y="381.9" width="37.6" height="37.6"/>
		<polygon points="361.5,419.6 324.5,419.6 324.5,438.2 379.5,438.2 379.5,422.5 379.5,419.6 379.5,382.1 361.5,382.1 		"/>
		<polygon points="480,252 505.9,252 505.9,159.6 480,159.6 454.1,159.6 454.1,252 		"/>
		<rect x="505.9" y="94.3" width="37.5" height="65.4"/>
		<rect x="543.3" y="159.6" width="18" height="18"/>
		<rect x="561.3" y="177.6" width="19.2" height="55.8"/>
		<rect x="580.5" y="233.4" width="18" height="18.6"/>
		<rect x="598.5" y="252" width="37.5" height="18.9"/>
		<rect x="636" y="270.9" width="18.6" height="18.6"/>
		<rect x="654.6" y="289.4" width="18.6" height="37.2"/>
		<rect x="673.2" y="326.6" width="18.6" height="18.6"/>
		<polygon points="691.7,345.2 691.7,363.7 673.2,363.5 673.2,381.9 728.6,382.1 728.6,345.2 		"/>
		<rect x="635.5" y="381.9" width="37.6" height="37.6"/>
		<polygon points="598.5,382.1 580.5,382.1 580.5,419.6 580.5,422.5 580.5,438.2 635.5,438.2 635.5,419.6 598.5,419.6 		"/>
		<polygon points="543.9,363.7 543.9,378.6 543.9,382.1 543.9,438.2 506.4,438.2 506.4,326.6 480,326.6 453.6,326.6 453.6,438.2 
			416.1,438.2 416.1,382.1 416.1,378.6 416.1,363.7 379.5,363.7 379.5,382.1 397.8,382.1 397.8,456.7 414.6,456.7 416.1,456.7 
			453.6,456.7 453.6,474.5 480,474.5 506.4,474.5 506.4,456.7 543.9,456.7 545.4,456.7 562.2,456.7 562.2,382.1 580.5,382.1 
			580.5,363.7 		"/>
	</g>
	<line fill="none" stroke="#000000" stroke-width="18.589" stroke-miterlimit="10" x1="480" y1="141.3" x2="480" y2="512.5"/>
	<line fill="none" stroke="#000000" stroke-width="18.589" stroke-miterlimit="10" x1="416.7" y1="94.3" x2="543.3" y2="94.3"/>
	<rect x="453.3" y="47.5" width="18.6" height="46.8"/>
	<rect x="490.5" y="47.5" width="18.6" height="46.8"/>
</g>
</svg>
