<?xml version="1.0" encoding="utf-8"?>
<!-- Generator: Adobe Illustrator 17.1.0, SVG Export Plug-In . SVG Version: 6.00 Build 0)  -->
<!DOCTYPE svg PUBLIC "-//W3C//DTD SVG 1.1//EN" "http://www.w3.org/Graphics/SVG/1.1/DTD/svg11.dtd">
<svg version="1.1" id="Layer_1" xmlns="http://www.w3.org/2000/svg" xmlns:xlink="http://www.w3.org/1999/xlink" x="0px" y="0px"
	 viewBox="0 0 960 560" enable-background="new 0 0 960 560" xml:space="preserve">
<g>
	<polygon points="718.4,61.4 718.4,222.4 676.3,222.4 676.3,102.3 598.3,102.3 598.3,300.4 480,300.4 361.7,300.4 361.7,102.3 
		283.7,102.3 283.7,222.4 241.6,222.4 241.6,61.4 202,61.4 202,498.6 241.6,498.6 241.6,338.8 283.7,338.8 283.7,420.5 361.7,420.5 
		361.7,498.6 480,498.6 598.3,498.6 598.3,420.5 676.3,420.5 676.3,338.8 718.4,338.8 718.4,498.6 758,498.6 758,61.4 	"/>
	<polygon points="598.3,102.3 598.3,61.4 480,61.4 361.7,61.4 361.7,102.3 480,102.3 	"/>
</g>
</svg>
