<?xml version="1.0" encoding="utf-8"?>
<!-- Generator: Adobe Illustrator 17.1.0, SVG Export Plug-In . SVG Version: 6.00 Build 0)  -->
<!DOCTYPE svg PUBLIC "-//W3C//DTD SVG 1.1//EN" "http://www.w3.org/Graphics/SVG/1.1/DTD/svg11.dtd">
<svg version="1.1" id="Layer_1" xmlns="http://www.w3.org/2000/svg" xmlns:xlink="http://www.w3.org/1999/xlink" x="0px" y="0px"
	 viewBox="0 0 960 560" enable-background="new 0 0 960 560" xml:space="preserve">
<g>
	<rect x="350.7" y="344.9" width="43.3" height="21.6"/>
	<rect x="566" y="344.9" width="43.3" height="21.6"/>
	<path d="M609.3,366.5v44.6h-86V303.4h21.6v41.4H566v-86.5h-21.2V280h-21.6V151.6h-21.2h-0.5V85.4h-43.3v66.2h-0.5h-21.2V280h-21.6
		v-21.6H394v86.5h21.2v-41.4h21.6v107.7h-86v-44.6h-22.5v44.6v2.7v38.7h108.6v22.1h21.2v-22.1h44.2v22.1h21.2v-22.1h108.6v-38.7
		v-2.7v-44.6H609.3z M502.1,280h-44.2v-43.3h44.2V280z"/>
</g>
</svg>
