<?xml version="1.0" encoding="utf-8"?>
<!-- Generator: Adobe Illustrator 17.1.0, SVG Export Plug-In . SVG Version: 6.00 Build 0)  -->
<!DOCTYPE svg PUBLIC "-//W3C//DTD SVG 1.1//EN" "http://www.w3.org/Graphics/SVG/1.1/DTD/svg11.dtd">
<svg version="1.1" id="Layer_1" xmlns="http://www.w3.org/2000/svg" xmlns:xlink="http://www.w3.org/1999/xlink" x="0px" y="0px"
	 viewBox="0 0 960 560" enable-background="new 0 0 960 560" xml:space="preserve">
<g>
	<polygon points="609.5,222.4 609.5,161.9 532.3,161.9 455.1,161.9 455.1,222.4 532.3,222.4 	"/>
	<polygon points="670.6,133.5 670.6,252.7 639.1,252.7 639.1,222.4 609.5,222.4 609.5,370.6 639.1,370.6 639.1,311.9 670.6,311.9 
		670.6,430.5 699.6,430.5 699.6,133.5 	"/>
	<polygon points="425.5,222.4 425.5,252.7 394,252.7 394,133.5 365,133.5 365,430.5 394,430.5 394,311.9 425.5,311.9 425.5,370.6 
		455.1,370.6 455.1,222.4 	"/>
	<polygon points="455.1,370.6 455.1,401.3 532.3,401.3 609.5,401.3 609.5,370.6 532.3,370.6 	"/>
</g>
</svg>
