<?xml version="1.0" encoding="utf-8"?>
<!-- Generator: Adobe Illustrator 17.1.0, SVG Export Plug-In . SVG Version: 6.00 Build 0)  -->
<!DOCTYPE svg PUBLIC "-//W3C//DTD SVG 1.1//EN" "http://www.w3.org/Graphics/SVG/1.1/DTD/svg11.dtd">
<svg version="1.1" id="Layer_1" xmlns="http://www.w3.org/2000/svg" xmlns:xlink="http://www.w3.org/1999/xlink" x="0px" y="0px"
	 viewBox="0 0 960 560" enable-background="new 0 0 960 560" xml:space="preserve">
<g>
	<rect x="626.4" y="72.2" width="43" height="43"/>
	<rect x="626.4" y="444.8" width="43" height="43"/>
	<polygon points="669.4,115.2 669.4,239.4 628.8,239.4 628.8,197.4 585.2,197.4 585.2,409.1 628.8,409.1 628.8,320.6 669.4,320.6 
		669.4,444.8 710.6,444.8 710.6,280 710.6,115.2 	"/>
	<polygon points="585.2,197.4 585.2,115.2 480,115.2 374.8,115.2 374.8,197.4 480,197.4 	"/>
	<rect x="290.6" y="72.2" width="43" height="43"/>
	<rect x="290.6" y="444.8" width="43" height="43"/>
	<polygon points="331.2,197.4 331.2,239.4 290.6,239.4 290.6,115.2 249.4,115.2 249.4,280 249.4,444.8 290.6,444.8 290.6,320.6 
		331.2,320.6 331.2,409.1 374.8,409.1 374.8,197.4 	"/>
	<polygon points="374.8,409.1 374.8,451.9 480,451.9 585.2,451.9 585.2,409.1 480,409.1 	"/>
</g>
</svg>
