<?xml version="1.0" encoding="utf-8"?>
<!-- Generator: Adobe Illustrator 17.1.0, SVG Export Plug-In . SVG Version: 6.00 Build 0)  -->
<!DOCTYPE svg PUBLIC "-//W3C//DTD SVG 1.1//EN" "http://www.w3.org/Graphics/SVG/1.1/DTD/svg11.dtd">
<svg version="1.1" id="Layer_1" xmlns="http://www.w3.org/2000/svg" xmlns:xlink="http://www.w3.org/1999/xlink" x="0px" y="0px"
	 viewBox="0 0 960 560" enable-background="new 0 0 960 560" xml:space="preserve">
<polygon fill="none" stroke="#000000" stroke-width="12.2211" stroke-miterlimit="10" points="480,63.6 553.4,280 626.8,496.4 
	480,496.4 333.2,496.4 406.6,280 "/>
<g>
	<g>
		<rect x="454.2" y="295.3" width="15.3" height="26.6"/>
		<rect x="446.9" y="321.9" width="7.3" height="7.3"/>
		<rect x="439.1" y="329.2" width="7.8" height="22.7"/>
		<rect x="431.8" y="351.9" width="7.3" height="7.6"/>
		<rect x="416.5" y="359.4" width="15.3" height="7.7"/>
		<rect x="409" y="367.1" width="7.6" height="7.6"/>
		<rect x="401.4" y="374.7" width="7.6" height="15.1"/>
		<rect x="393.9" y="389.8" width="7.6" height="7.6"/>
		<polygon points="393.9,404.9 393.9,397.4 378.9,397.4 378.9,412.4 401.4,412.3 401.4,404.8 		"/>
		<rect x="401.4" y="412.3" width="15.3" height="15.3"/>
		<polygon points="431.8,427.6 416.7,427.6 416.7,435.2 439.1,435.2 439.1,428.8 439.1,427.6 439.1,412.4 431.8,412.4 		"/>
		<polygon points="480,359.4 490.5,359.4 490.5,321.9 480,321.9 469.5,321.9 469.5,359.4 		"/>
		<rect x="490.5" y="295.3" width="15.3" height="26.6"/>
		<rect x="505.8" y="321.9" width="7.3" height="7.3"/>
		<rect x="513.1" y="329.2" width="7.8" height="22.7"/>
		<rect x="520.9" y="351.9" width="7.3" height="7.6"/>
		<rect x="528.2" y="359.4" width="15.3" height="7.7"/>
		<rect x="543.5" y="367.1" width="7.6" height="7.6"/>
		<rect x="551" y="374.7" width="7.6" height="15.1"/>
		<rect x="558.6" y="389.8" width="7.6" height="7.6"/>
		<polygon points="566.1,397.4 566.1,404.9 558.6,404.8 558.6,412.3 581.1,412.4 581.1,397.4 		"/>
		<rect x="543.3" y="412.3" width="15.3" height="15.3"/>
		<polygon points="528.2,412.4 520.9,412.4 520.9,427.6 520.9,428.8 520.9,435.2 543.3,435.2 543.3,427.6 528.2,427.6 		"/>
		<polygon points="506,404.9 506,410.9 506,412.4 506,435.2 490.7,435.2 490.7,389.8 480,389.8 469.3,389.8 469.3,435.2 454,435.2 
			454,412.4 454,410.9 454,404.9 439.1,404.9 439.1,412.4 446.6,412.4 446.6,442.7 453.4,442.7 454,442.7 469.3,442.7 469.3,450 
			480,450 490.7,450 490.7,442.7 506,442.7 506.6,442.7 513.4,442.7 513.4,412.4 520.9,412.4 520.9,404.9 		"/>
	</g>
	<line fill="none" stroke="#000000" stroke-width="7.562" stroke-miterlimit="10" x1="480" y1="314.4" x2="480" y2="465.4"/>
	<line fill="none" stroke="#000000" stroke-width="7.562" stroke-miterlimit="10" x1="454.2" y1="295.3" x2="505.8" y2="295.3"/>
	<rect x="469.1" y="276.3" width="7.6" height="19"/>
	<rect x="484.3" y="276.3" width="7.6" height="19"/>
</g>
</svg>
