<?xml version="1.0" encoding="utf-8"?>
<!-- Generator: Adobe Illustrator 17.1.0, SVG Export Plug-In . SVG Version: 6.00 Build 0)  -->
<!DOCTYPE svg PUBLIC "-//W3C//DTD SVG 1.1//EN" "http://www.w3.org/Graphics/SVG/1.1/DTD/svg11.dtd">
<svg version="1.1" id="Layer_1" xmlns="http://www.w3.org/2000/svg" xmlns:xlink="http://www.w3.org/1999/xlink" x="0px" y="0px"
	 viewBox="0 0 960 560" enable-background="new 0 0 960 560" xml:space="preserve">
<g>
	<g>
		<circle fill="none" stroke="#000000" stroke-width="9" stroke-miterlimit="10" cx="481.5" cy="280" r="224.7"/>
		<line fill="none" stroke="#000000" stroke-width="9" stroke-miterlimit="10" x1="254" y1="292.5" x2="336" y2="292.5"/>
		<line fill="none" stroke="#000000" stroke-width="9" stroke-miterlimit="10" x1="706" y1="292.5" x2="629" y2="292.5"/>
		<line fill="none" stroke="#000000" stroke-width="9" stroke-miterlimit="10" x1="617.6" y1="96.6" x2="569.6" y2="160.6"/>
		<line fill="none" stroke="#000000" stroke-width="9" stroke-miterlimit="10" x1="345.4" y1="96.6" x2="395.1" y2="162.9"/>
		<line fill="none" stroke="#000000" stroke-width="9" stroke-miterlimit="10" x1="345.4" y1="463.4" x2="394.9" y2="397.4"/>
		<line fill="none" stroke="#000000" stroke-width="9" stroke-miterlimit="10" x1="617.6" y1="463.4" x2="567.5" y2="396.6"/>
		<g>
			<path fill="none" stroke="#000000" stroke-width="9" stroke-miterlimit="10" d="M481.5,132.2c-81.6,0-147.8,66.2-147.8,147.8
				c0,81.6,66.2,147.8,147.8,147.8c81.6,0,147.8-66.2,147.8-147.8C629.3,198.4,563.2,132.2,481.5,132.2z"/>
		</g>
	</g>
	<path fill="none" stroke="#000000" stroke-width="9" stroke-miterlimit="10" d="M587.5,210.3c0-7.6-6.2-13.8-13.8-13.8H391.3
		c-7.6,0-13.8,6.2-13.8,13.8v140.4c0,7.6,6.2,13.8,13.8,13.8h182.4c7.6,0,13.8-6.2,13.8-13.8V210.3z"/>
	<path fill="none" stroke="#000000" stroke-width="9" stroke-miterlimit="10" d="M568.5,222.8c0-6.2-5-11.3-11.3-11.3H407.8
		c-6.2,0-11.3,5-11.3,11.3v115.5c0,6.2,5,11.3,11.3,11.3h149.5c6.2,0,11.3-5,11.3-11.3V222.8z"/>
</g>
</svg>
