<?xml version="1.0" encoding="utf-8"?>
<!-- Generator: Adobe Illustrator 17.1.0, SVG Export Plug-In . SVG Version: 6.00 Build 0)  -->
<!DOCTYPE svg PUBLIC "-//W3C//DTD SVG 1.1//EN" "http://www.w3.org/Graphics/SVG/1.1/DTD/svg11.dtd">
<svg version="1.1" id="Layer_1" xmlns="http://www.w3.org/2000/svg" xmlns:xlink="http://www.w3.org/1999/xlink" x="0px" y="0px"
	 viewBox="0 0 3000 1500" enable-background="new 0 0 3000 1500" xml:space="preserve">
<g>
	<circle fill="none" stroke="#000000" stroke-width="96.3953" stroke-miterlimit="10" cx="1500" cy="750" r="455.2"/>
	<circle fill="none" stroke="#000000" stroke-width="96.3953" stroke-miterlimit="10" cx="1500" cy="750" r="690.8"/>
	<line fill="none" stroke="#000000" stroke-width="95" stroke-miterlimit="10" x1="1954" y1="765.5" x2="2180" y2="765.5"/>
	<line fill="none" stroke="#000000" stroke-width="95" stroke-miterlimit="10" x1="1057" y1="765.5" x2="832" y2="765.5"/>
	<line fill="none" stroke="#000000" stroke-width="96.3953" stroke-miterlimit="10" x1="1258.5" y1="363.8" x2="1146" y2="169"/>
	
		<line fill="none" stroke="#000000" stroke-width="96.3953" stroke-miterlimit="10" x1="1258.5" y1="1168.3" x2="1146" y2="1363.1"/>
	<line fill="none" stroke="#000000" stroke-width="96.3953" stroke-miterlimit="10" x1="1713.7" y1="347.8" x2="1826.1" y2="153"/>
	
		<line fill="none" stroke="#000000" stroke-width="96.3953" stroke-miterlimit="10" x1="1713.7" y1="1184.4" x2="1826.1" y2="1379.2"/>
	<path d="M1500,380.5c-204.1,0-369.5,165.4-369.5,369.5c0,204.1,165.4,369.5,369.5,369.5c204.1,0,369.5-165.4,369.5-369.5
		C1869.5,545.9,1704.1,380.5,1500,380.5z M1536,940h-64V651.6c0,0-37,31.1-97.8,55.7l0.8-49.3c56.2-25.1,93.2-54,126.8-98h34.2V940z
		"/>
</g>
</svg>
