<?xml version="1.0" encoding="utf-8"?>
<!-- Generator: Adobe Illustrator 17.1.0, SVG Export Plug-In . SVG Version: 6.00 Build 0)  -->
<!DOCTYPE svg PUBLIC "-//W3C//DTD SVG 1.1//EN" "http://www.w3.org/Graphics/SVG/1.1/DTD/svg11.dtd">
<svg version="1.1" id="Layer_1" xmlns="http://www.w3.org/2000/svg" xmlns:xlink="http://www.w3.org/1999/xlink" x="0px" y="0px"
	 viewBox="0 0 960 560" enable-background="new 0 0 960 560" xml:space="preserve">
<circle fill="none" stroke="#000000" stroke-width="10.9646" stroke-miterlimit="10" cx="480" cy="280" r="251.1"/>
<path d="M547,270L480,72.5L413,270l-67,197.5H480h133.9L547,270z M498.6,436.3c15.1,0,30.5-3.1,40.5-8l5.1,19.7
	c-9.1,4.6-27.4,9.1-50.7,9.1c-54.2,0-94.9-34.2-94.9-97.2c0-60.2,40.8-100.9,100.4-100.9c23.9,0,39.1,5.1,45.6,8.6l-6,20.2
	c-9.4-4.6-22.8-8-38.8-8c-45,0-75,28.8-75,79.3C424.8,406.1,451.8,436.3,498.6,436.3z"/>
</svg>
