<?xml version="1.0" encoding="utf-8"?>
<!-- Generator: Adobe Illustrator 17.1.0, SVG Export Plug-In . SVG Version: 6.00 Build 0)  -->
<!DOCTYPE svg PUBLIC "-//W3C//DTD SVG 1.1//EN" "http://www.w3.org/Graphics/SVG/1.1/DTD/svg11.dtd">
<svg version="1.1" xmlns="http://www.w3.org/2000/svg" xmlns:xlink="http://www.w3.org/1999/xlink" x="0px" y="0px"
	 viewBox="0 0 960 560" enable-background="new 0 0 960 560" xml:space="preserve">
<g id="Layer_1">
	<g>
		<polygon fill="none" stroke="#000000" stroke-width="13.3444" stroke-miterlimit="10" points="375.9,460.3 271.9,280 375.9,99.7 
			584.1,99.7 688.1,280 584.1,460.3 		"/>
		<line fill="none" stroke="#000000" stroke-width="10.1373" stroke-miterlimit="10" x1="638.1" y1="280" x2="688.1" y2="280"/>
		<line fill="none" stroke="#000000" stroke-width="10.1373" stroke-miterlimit="10" x1="321.9" y1="280" x2="271.9" y2="280"/>
		<line fill="none" stroke="#000000" stroke-width="10.1373" stroke-miterlimit="10" x1="401" y1="143.1" x2="375.9" y2="99.7"/>
		<line fill="none" stroke="#000000" stroke-width="10.1373" stroke-miterlimit="10" x1="559" y1="143.1" x2="584.1" y2="99.7"/>
		<line fill="none" stroke="#000000" stroke-width="10.1373" stroke-miterlimit="10" x1="559" y1="416.9" x2="584.1" y2="460.3"/>
		<line fill="none" stroke="#000000" stroke-width="10.1373" stroke-miterlimit="10" x1="401" y1="416.9" x2="375.9" y2="460.3"/>
	</g>
</g>
<g id="Layer_2">
	<path d="M562.1,137H397.9l-82.1,142.5L397.9,422h164.3l82.1-142.5L562.1,137z M537,366H423.2c-0.2-5,0.7-9.8,2.5-14.5
		c2.9-7.7,7.5-15.3,13.9-22.8c6.4-7.5,15.6-16.1,27.6-26c18.7-15.3,31.3-27.4,37.9-36.4c6.6-8.9,9.8-17.4,9.8-25.4
		c0-8.4-3-15.4-9-21.1s-13.8-8.6-23.4-8.6c-10.2,0-18.3,3-24.4,9.1s-9.2,14.5-9.3,25.3l-21.7-2.2c1.5-16.2,7.1-28.5,16.8-37
		c9.7-8.5,22.7-12.7,39-12.7c16.5,0,29.5,4.6,39.1,13.7s14.4,20.5,14.4,34c0,6.9-1.4,13.6-4.2,20.3c-2.8,6.6-7.5,13.6-14,21
		c-6.5,7.3-17.4,17.4-32.5,30.2c-12.7,10.6-20.8,17.8-24.4,21.6c-3.6,3.8-6.6,7.4-8.9,11.4H537V366z"/>
</g>
</svg>
