<?xml version="1.0" encoding="utf-8"?>
<!-- Generator: Adobe Illustrator 17.1.0, SVG Export Plug-In . SVG Version: 6.00 Build 0)  -->
<!DOCTYPE svg PUBLIC "-//W3C//DTD SVG 1.1//EN" "http://www.w3.org/Graphics/SVG/1.1/DTD/svg11.dtd">
<svg version="1.1" xmlns="http://www.w3.org/2000/svg" xmlns:xlink="http://www.w3.org/1999/xlink" x="0px" y="0px"
	 viewBox="0 0 960 560" enable-background="new 0 0 960 560" xml:space="preserve">
<g id="Layer_1">
	<g>
		<polygon fill="none" stroke="#000000" stroke-width="13.3444" stroke-miterlimit="10" points="375.9,460.3 271.9,280 375.9,99.7 
			584.1,99.7 688.1,280 584.1,460.3 		"/>
		<line fill="none" stroke="#000000" stroke-width="10.1373" stroke-miterlimit="10" x1="638.1" y1="280" x2="688.1" y2="280"/>
		<line fill="none" stroke="#000000" stroke-width="10.1373" stroke-miterlimit="10" x1="321.9" y1="280" x2="271.9" y2="280"/>
		<line fill="none" stroke="#000000" stroke-width="10.1373" stroke-miterlimit="10" x1="401" y1="143.1" x2="375.9" y2="99.7"/>
		<line fill="none" stroke="#000000" stroke-width="10.1373" stroke-miterlimit="10" x1="559" y1="143.1" x2="584.1" y2="99.7"/>
		<line fill="none" stroke="#000000" stroke-width="10.1373" stroke-miterlimit="10" x1="559" y1="416.9" x2="584.1" y2="460.3"/>
		<line fill="none" stroke="#000000" stroke-width="10.1373" stroke-miterlimit="10" x1="401" y1="416.9" x2="375.9" y2="460.3"/>
	</g>
</g>
<g id="Layer_2">
	<path d="M562.1,137H397.9l-82.1,142.5L397.9,422h164.3l82.1-142.5L562.1,137z M519.8,352.1c-10.9,10.4-24.8,15.6-41.5,15.6
		c-15.1,0-27.6-4.5-37.6-13.5c-10-9-15.6-20.6-17.1-34.9l21.1-2.8c2.4,12,6.5,20.6,12.4,25.8c5.8,5.3,12.9,7.9,21.3,7.9
		c9.9,0,18.3-3.4,25.1-10.3c6.8-6.9,10.3-15.4,10.3-25.5c0-9.7-3.2-17.7-9.5-24c-6.3-6.3-14.4-9.4-24.1-9.4c-4,0-8.9,0.8-14.9,2.3
		l2.3-18.5c1.4,0.2,2.5,0.2,3.4,0.2c9,0,17.1-2.3,24.3-7c7.2-4.7,10.8-11.9,10.8-21.7c0-7.7-2.6-14.1-7.9-19.2
		c-5.2-5.1-12-7.6-20.3-7.6c-8.2,0-15,2.6-20.5,7.7c-5.5,5.2-9,12.9-10.5,23.2l-21.1-3.8c2.6-14.1,8.4-25.1,17.6-32.9
		c9.1-7.8,20.5-11.7,34.1-11.7c9.4,0,18,2,25.9,6c7.9,4,13.9,9.5,18.1,16.5c4.2,7,6.3,14.3,6.3,22.1c0,7.4-2,14.2-6,20.3
		s-9.9,10.9-17.7,14.5c10.2,2.3,18,7.2,23.7,14.6s8.4,16.6,8.4,27.7C536.3,329,530.8,341.7,519.8,352.1z"/>
</g>
</svg>
