<?xml version="1.0" encoding="utf-8"?>
<!-- Generator: Adobe Illustrator 17.1.0, SVG Export Plug-In . SVG Version: 6.00 Build 0)  -->
<!DOCTYPE svg PUBLIC "-//W3C//DTD SVG 1.1//EN" "http://www.w3.org/Graphics/SVG/1.1/DTD/svg11.dtd">
<svg version="1.1" xmlns="http://www.w3.org/2000/svg" xmlns:xlink="http://www.w3.org/1999/xlink" x="0px" y="0px"
	 viewBox="0 0 960 560" enable-background="new 0 0 960 560" xml:space="preserve">
<g id="Layer_1">
	<g>
		<polygon fill="none" stroke="#000000" stroke-width="13.3444" stroke-miterlimit="10" points="375.9,416.9 271.9,236.6 
			375.9,56.4 584.1,56.4 688.1,236.6 584.1,416.9 		"/>
		<line fill="none" stroke="#000000" stroke-width="10.1373" stroke-miterlimit="10" x1="638.1" y1="236.6" x2="688.1" y2="236.6"/>
		<line fill="none" stroke="#000000" stroke-width="10.1373" stroke-miterlimit="10" x1="321.9" y1="236.6" x2="271.9" y2="236.6"/>
		<line fill="none" stroke="#000000" stroke-width="10.1373" stroke-miterlimit="10" x1="401" y1="99.7" x2="375.9" y2="56.4"/>
		<line fill="none" stroke="#000000" stroke-width="10.1373" stroke-miterlimit="10" x1="559" y1="99.7" x2="584.1" y2="56.4"/>
		<line fill="none" stroke="#000000" stroke-width="10.1373" stroke-miterlimit="10" x1="559" y1="373.5" x2="584.1" y2="416.9"/>
		<line fill="none" stroke="#000000" stroke-width="10.1373" stroke-miterlimit="10" x1="401" y1="373.5" x2="375.9" y2="416.9"/>
	</g>
</g>
<g id="Layer_2">
	<path d="M562.1,94H397.9l-82.1,142.5L397.9,379h164.3l82.1-142.5L562.1,94z M523.4,305.3c-11,13.9-26.1,20.9-45.1,20.9
		c-15.6,0-28.4-4.4-38.3-13.1c-9.9-8.7-15.5-20.4-16.9-34.8l22.1-1.9c1.6,10.8,5.4,18.9,11.4,24.3c6,5.4,13.2,8.1,21.6,8.1
		c10.2,0,18.8-3.8,25.8-11.5c7-7.7,10.5-17.8,10.5-30.5c0-12-3.4-21.5-10.1-28.5c-6.8-7-15.6-10.4-26.5-10.4
		c-6.8,0-12.9,1.5-18.4,4.6c-5.5,3.1-9.8,7.1-12.9,12l-19.8-2.5l16.6-88.1H529v20h-68.7l-9.3,46.1c10.3-7.2,21.1-10.8,32.5-10.8
		c15,0,27.7,5.2,38,15.6c10.3,10.4,15.5,23.7,15.5,40.1C537,280.5,532.4,294,523.4,305.3z"/>
</g>
</svg>
