<?xml version="1.0" encoding="utf-8"?>
<!-- Generator: Adobe Illustrator 17.1.0, SVG Export Plug-In . SVG Version: 6.00 Build 0)  -->
<!DOCTYPE svg PUBLIC "-//W3C//DTD SVG 1.1//EN" "http://www.w3.org/Graphics/SVG/1.1/DTD/svg11.dtd">
<svg version="1.1" id="Layer_1" xmlns="http://www.w3.org/2000/svg" xmlns:xlink="http://www.w3.org/1999/xlink" x="0px" y="0px"
	 viewBox="0 0 3000 1500" enable-background="new 0 0 3000 1500" xml:space="preserve">
<g>
	<circle fill="none" stroke="#000000" stroke-width="34.2414" stroke-miterlimit="10" cx="1513" cy="750" r="598.5"/>
	<line fill="none" stroke="#000000" stroke-width="37" stroke-miterlimit="10" x1="921" y1="770.5" x2="1168" y2="770.5"/>
	<line fill="none" stroke="#000000" stroke-width="37" stroke-miterlimit="10" x1="2110" y1="770.5" x2="1863" y2="770.5"/>
	
		<line fill="none" stroke="#000000" stroke-width="34.2414" stroke-miterlimit="10" x1="1875.5" y1="261.4" x2="1731.8" y2="453.2"/>
	
		<line fill="none" stroke="#000000" stroke-width="34.2414" stroke-miterlimit="10" x1="1150.5" y1="261.4" x2="1294.3" y2="453.2"/>
	
		<line fill="none" stroke="#000000" stroke-width="34.2414" stroke-miterlimit="10" x1="1150.5" y1="1238.6" x2="1294.3" y2="1046.8"/>
	
		<line fill="none" stroke="#000000" stroke-width="34.2414" stroke-miterlimit="10" x1="1875.5" y1="1238.6" x2="1731.8" y2="1046.8"/>
	<g>
		<path d="M1575,512.9c-6,3.7-9,12.1-9,25.1v377.4c0,10.2,2.9,17.4,9,21.6c6,4.2,16.9,6.3,32.7,6.3s26.5-2.1,32.5-6.3
			c6-4.2,8.8-11.4,8.8-21.6V538c0-13-2.8-21.3-8.9-25.1c-6-3.7-16.8-5.6-32.6-5.6S1581,509.2,1575,512.9z"/>
		<path d="M1487.1,512.9c-6-3.7-16.9-5.6-32.7-5.6s-26.5,1.9-32.5,5.6c-6,3.7-8.9,12.1-8.9,25.1v377.4c0,10.2,2.8,17.4,8.9,21.6
			c6,4.2,16.9,6.3,32.6,6.3s26.5-2.1,32.6-6.3c6-4.2,8.9-11.4,8.9-21.6V538C1496,525,1493.1,516.6,1487.1,512.9z"/>
		<path d="M1513,356.2c-217.5,0-393.8,176.3-393.8,393.8c0,217.5,176.3,393.8,393.8,393.8c217.5,0,393.8-176.3,393.8-393.8
			C1906.8,532.5,1730.5,356.2,1513,356.2z M1761,507.3c-16,0-26.8,1.9-32.8,5.6c-6,3.7-9.2,12.1-9.2,25.1v377.4
			c0,10.2,3.1,17.4,9.2,21.6c6,4.2,16.8,6.3,32.8,6.3V961h-153.4h-153.2H1301v-17.8c16,0,26.8-2.1,32.8-6.3c6-4.2,9.2-11.4,9.2-21.6
			V538c0-13-3.1-21.3-9.2-25.1c-6-3.7-16.8-5.6-32.8-5.6V489h153.5h153.2H1761V507.3z"/>
	</g>
</g>
</svg>
