<?xml version="1.0" encoding="utf-8"?>
<!-- Generator: Adobe Illustrator 17.1.0, SVG Export Plug-In . SVG Version: 6.00 Build 0)  -->
<!DOCTYPE svg PUBLIC "-//W3C//DTD SVG 1.1//EN" "http://www.w3.org/Graphics/SVG/1.1/DTD/svg11.dtd">
<svg version="1.1" id="Layer_1" xmlns="http://www.w3.org/2000/svg" xmlns:xlink="http://www.w3.org/1999/xlink" x="0px" y="0px"
	 viewBox="0 0 960 560" enable-background="new 0 0 960 560" xml:space="preserve">
<g>
	<path fill="none" stroke="#000000" stroke-width="6.579" stroke-miterlimit="10" d="M480,142.7c-94.5,0-171.1,76.6-171.1,171.1h68
		c0-56.9,46.2-103.1,103.1-103.1s103.1,46.2,103.1,103.1h68C651.1,219.3,574.5,142.7,480,142.7z"/>
	<line fill="none" stroke="#000000" stroke-width="6.5788" stroke-miterlimit="10" x1="531.5" y1="224.5" x2="565.5" y2="165.6"/>
	<line fill="none" stroke="#000000" stroke-width="6.5788" stroke-miterlimit="10" x1="428.5" y1="224.5" x2="394.5" y2="165.6"/>
	<path d="M480,210.3c-57.2,0-103.5,46.3-103.5,103.5c0,57.2,46.3,103.5,103.5,103.5c57.2,0,103.5-46.3,103.5-103.5
		C583.5,256.6,537.2,210.3,480,210.3z M534.3,368.1l-38.2-22.8h-32.3l-38.2,22.8l22.8-38.2v-32.3l-22.8-38.2l38.2,22.8h32.3
		l38.2-22.8l-22.8,38.2v32.3L534.3,368.1z"/>
</g>
</svg>
