<?xml version="1.0" encoding="utf-8"?>
<!-- Generator: Adobe Illustrator 17.1.0, SVG Export Plug-In . SVG Version: 6.00 Build 0)  -->
<!DOCTYPE svg PUBLIC "-//W3C//DTD SVG 1.1//EN" "http://www.w3.org/Graphics/SVG/1.1/DTD/svg11.dtd">
<svg version="1.1" id="Layer_1" xmlns="http://www.w3.org/2000/svg" xmlns:xlink="http://www.w3.org/1999/xlink" x="0px" y="0px"
	 viewBox="0 0 960 560" enable-background="new 0 0 960 560" xml:space="preserve">
<rect x="329.4" y="21" fill="none" stroke="#000000" stroke-width="6.282" stroke-miterlimit="10" width="301.2" height="518.1"/>
<g>
	<path d="M427.8,62c12.6-2.1,29.1-3.9,50.1-3.9c25.8,0,44.7,6,56.7,16.8c11.1,9.6,17.7,24.3,17.7,42.3c0,18.3-5.4,32.7-15.6,43.2
		c-13.8,14.7-36.3,22.2-61.8,22.2c-7.8,0-15-0.3-21-1.8v81h-26.1V62z M453.9,159.5c5.7,1.5,12.9,2.1,21.6,2.1
		c31.5,0,50.7-15.3,50.7-43.2c0-26.7-18.9-39.6-47.7-39.6c-11.4,0-20.1,0.9-24.6,2.1V159.5z"/>
</g>
</svg>
