<?xml version="1.0" encoding="utf-8"?>
<!-- Generator: Adobe Illustrator 17.1.0, SVG Export Plug-In . SVG Version: 6.00 Build 0)  -->
<!DOCTYPE svg PUBLIC "-//W3C//DTD SVG 1.1//EN" "http://www.w3.org/Graphics/SVG/1.1/DTD/svg11.dtd">
<svg version="1.1" id="Layer_1" xmlns="http://www.w3.org/2000/svg" xmlns:xlink="http://www.w3.org/1999/xlink" x="0px" y="0px"
	 viewBox="0 0 960 560" enable-background="new 0 0 960 560" xml:space="preserve">
<g>
	<circle fill="none" stroke="#000000" stroke-width="18" stroke-miterlimit="10" cx="480.4" cy="280" r="168.3"/>
	<line fill="none" stroke="#000000" stroke-width="18" stroke-miterlimit="10" x1="310" y1="295" x2="371" y2="295"/>
	<line fill="none" stroke="#000000" stroke-width="18" stroke-miterlimit="10" x1="649" y1="295" x2="589" y2="295"/>
	<line fill="none" stroke="#000000" stroke-width="18" stroke-miterlimit="10" x1="582.4" y1="142.6" x2="546.4" y2="190.6"/>
	<line fill="none" stroke="#000000" stroke-width="18" stroke-miterlimit="10" x1="378.5" y1="142.6" x2="415.7" y2="192.3"/>
	<line fill="none" stroke="#000000" stroke-width="18" stroke-miterlimit="10" x1="378.5" y1="417.4" x2="415.6" y2="367.9"/>
	<line fill="none" stroke="#000000" stroke-width="18" stroke-miterlimit="10" x1="582.4" y1="417.4" x2="544.8" y2="367.3"/>
	<g>
		<path fill="none" stroke="#000000" stroke-width="18" stroke-miterlimit="10" d="M480.4,169.3c-61.2,0-110.7,49.6-110.7,110.7
			c0,61.2,49.6,110.7,110.7,110.7c61.2,0,110.7-49.6,110.7-110.7C591.2,218.8,541.6,169.3,480.4,169.3z"/>
	</g>
	<circle fill="none" stroke="#000000" stroke-width="18" stroke-miterlimit="10" cx="480" cy="280" r="85.4"/>
</g>
<g>
	<path d="M486.4,331.7V306h-46.6v-12.1l49-69.6h10.8v69.6h14.5V306h-14.5v25.7H486.4z M486.4,293.9v-48.4l-33.6,48.4H486.4z"/>
</g>
</svg>
