<?xml version="1.0" encoding="utf-8"?>
<!-- Generator: Adobe Illustrator 17.1.0, SVG Export Plug-In . SVG Version: 6.00 Build 0)  -->
<!DOCTYPE svg PUBLIC "-//W3C//DTD SVG 1.1//EN" "http://www.w3.org/Graphics/SVG/1.1/DTD/svg11.dtd">
<svg version="1.1" id="Layer_1" xmlns="http://www.w3.org/2000/svg" xmlns:xlink="http://www.w3.org/1999/xlink" x="0px" y="0px"
	 viewBox="0 0 960 560" enable-background="new 0 0 960 560" xml:space="preserve">
<g>
	<g>
		<g>
			<g>
				<path fill="none" stroke="#000000" stroke-width="6.8846" stroke-miterlimit="10" d="M585.9,309.8H659c0-98.9-80.1-179-179-179
					s-179,80.1-179,179h70.1"/>
				<line fill="none" stroke="#000000" stroke-width="13" stroke-miterlimit="10" x1="587.9" y1="306.3" x2="659" y2="306.3"/>
				<line fill="none" stroke="#000000" stroke-width="13" stroke-miterlimit="10" x1="372.1" y1="306.3" x2="301" y2="306.3"/>
				<line fill="none" stroke="#000000" stroke-width="12" stroke-miterlimit="10" x1="547.6" y1="192.8" x2="569.5" y2="154.8"/>
				<line fill="none" stroke="#000000" stroke-width="12" stroke-miterlimit="10" x1="412.4" y1="192.8" x2="390.5" y2="154.8"/>
			</g>
			<polygon fill="none" stroke="#000000" stroke-width="12" stroke-miterlimit="10" points="480,165.5 511.3,201.1 557.5,190.7 
				561.9,237.8 605.4,256.6 581.3,297.4 605.4,338.1 561.9,356.9 557.5,404 511.3,393.7 480,429.2 448.7,393.7 402.5,404 
				398.1,356.9 354.6,338.1 378.7,297.4 354.6,256.6 398.1,237.8 402.5,190.7 448.7,201.1 			"/>
		</g>
	</g>
	<g>
		<path d="M438.2,356.5v-10.9l13.9-13.5c33.4-31.8,48.5-48.7,48.7-68.4c0-13.3-6.4-25.6-26-25.6c-11.9,0-21.7,6-27.8,11.1l-5.6-12.5
			c9.1-7.6,21.9-13.3,37-13.3c28.2,0,40.1,19.3,40.1,38c0,24.2-17.5,43.7-45.1,70.2l-10.5,9.7v0.4h58.8v14.7H438.2z"/>
	</g>
</g>
</svg>
