<?xml version="1.0" encoding="utf-8"?>
<!-- Generator: Adobe Illustrator 17.1.0, SVG Export Plug-In . SVG Version: 6.00 Build 0)  -->
<!DOCTYPE svg PUBLIC "-//W3C//DTD SVG 1.1//EN" "http://www.w3.org/Graphics/SVG/1.1/DTD/svg11.dtd">
<svg version="1.1" id="Layer_1" xmlns="http://www.w3.org/2000/svg" xmlns:xlink="http://www.w3.org/1999/xlink" x="0px" y="0px"
	 viewBox="0 0 960 560" enable-background="new 0 0 960 560" xml:space="preserve">
<g>
	<circle fill="none" stroke="#000000" stroke-width="18" stroke-miterlimit="10" cx="480.4" cy="280" r="168.3"/>
	<line fill="none" stroke="#000000" stroke-width="18" stroke-miterlimit="10" x1="310" y1="295" x2="371" y2="295"/>
	<line fill="none" stroke="#000000" stroke-width="18" stroke-miterlimit="10" x1="649" y1="295" x2="589" y2="295"/>
	<line fill="none" stroke="#000000" stroke-width="18" stroke-miterlimit="10" x1="582.4" y1="142.6" x2="546.4" y2="190.6"/>
	<line fill="none" stroke="#000000" stroke-width="18" stroke-miterlimit="10" x1="378.5" y1="142.6" x2="415.7" y2="192.3"/>
	<line fill="none" stroke="#000000" stroke-width="18" stroke-miterlimit="10" x1="378.5" y1="417.4" x2="415.6" y2="367.9"/>
	<line fill="none" stroke="#000000" stroke-width="18" stroke-miterlimit="10" x1="582.4" y1="417.4" x2="544.8" y2="367.3"/>
	<g>
		<path fill="none" stroke="#000000" stroke-width="18" stroke-miterlimit="10" d="M480.4,169.3c-61.2,0-110.7,49.6-110.7,110.7
			c0,61.2,49.6,110.7,110.7,110.7c61.2,0,110.7-49.6,110.7-110.7C591.2,218.8,541.6,169.3,480.4,169.3z"/>
	</g>
	<circle fill="none" stroke="#000000" stroke-width="18" stroke-miterlimit="10" cx="480" cy="280" r="85.4"/>
</g>
<g>
	<path d="M489.8,333.9h-13.2v-84c-3.2,3-7.3,6.1-12.5,9.1c-5.2,3-9.8,5.3-13.9,6.8V253c7.4-3.5,13.8-7.7,19.3-12.6
		c5.5-4.9,9.4-9.7,11.7-14.4h8.5V333.9z"/>
</g>
</svg>
