<?xml version="1.0" encoding="utf-8"?>
<!-- Generator: Adobe Illustrator 17.1.0, SVG Export Plug-In . SVG Version: 6.00 Build 0)  -->
<!DOCTYPE svg PUBLIC "-//W3C//DTD SVG 1.1//EN" "http://www.w3.org/Graphics/SVG/1.1/DTD/svg11.dtd">
<svg version="1.1" id="Layer_1" xmlns="http://www.w3.org/2000/svg" xmlns:xlink="http://www.w3.org/1999/xlink" x="0px" y="0px"
	 viewBox="0 0 960 560" enable-background="new 0 0 960 560" xml:space="preserve">
<g>
	<g>
		<g>
			<g>
				<path fill="none" stroke="#000000" stroke-width="6.8846" stroke-miterlimit="10" d="M585.9,309.8H659c0-98.9-80.1-179-179-179
					s-179,80.1-179,179h70.1"/>
				<line fill="none" stroke="#000000" stroke-width="13" stroke-miterlimit="10" x1="587.9" y1="306.3" x2="659" y2="306.3"/>
				<line fill="none" stroke="#000000" stroke-width="13" stroke-miterlimit="10" x1="372.1" y1="306.3" x2="301" y2="306.3"/>
				<line fill="none" stroke="#000000" stroke-width="12" stroke-miterlimit="10" x1="547.6" y1="192.8" x2="569.5" y2="154.8"/>
				<line fill="none" stroke="#000000" stroke-width="12" stroke-miterlimit="10" x1="412.4" y1="192.8" x2="390.5" y2="154.8"/>
			</g>
			<polygon fill="none" stroke="#000000" stroke-width="12" stroke-miterlimit="10" points="480,165.5 511.3,201.1 557.5,190.7 
				561.9,237.8 605.4,256.6 581.3,297.4 605.4,338.1 561.9,356.9 557.5,404 511.3,393.7 480,429.2 448.7,393.7 402.5,404 
				398.1,356.9 354.6,338.1 378.7,297.4 354.6,256.6 398.1,237.8 402.5,190.7 448.7,201.1 			"/>
		</g>
	</g>
</g>
<g>
	<path d="M444,345.1c5,3.2,16.7,8.3,29,8.3c22.7,0,29.8-14.5,29.6-25.4c-0.2-18.3-16.7-26.2-33.8-26.2h-9.9v-13.3h9.9
		c12.9,0,29.2-6.6,29.2-22.1c0-10.5-6.6-19.7-22.9-19.7c-10.5,0-20.5,4.6-26.2,8.7l-4.6-12.9c6.8-5,20.1-10.1,34.2-10.1
		c25.8,0,37.4,15.3,37.4,31.2c0,13.5-8.1,25-24.2,30.8v0.4c16.1,3.2,29.2,15.3,29.2,33.6c0,20.9-16.3,39.2-47.7,39.2
		c-14.7,0-27.6-4.6-34-8.9L444,345.1z"/>
</g>
</svg>
