<?xml version="1.0" encoding="utf-8"?>
<!-- Generator: Adobe Illustrator 17.1.0, SVG Export Plug-In . SVG Version: 6.00 Build 0)  -->
<!DOCTYPE svg PUBLIC "-//W3C//DTD SVG 1.1//EN" "http://www.w3.org/Graphics/SVG/1.1/DTD/svg11.dtd">
<svg version="1.1" id="Layer_1" xmlns="http://www.w3.org/2000/svg" xmlns:xlink="http://www.w3.org/1999/xlink" x="0px" y="0px"
	 viewBox="0 0 960 560" enable-background="new 0 0 960 560" xml:space="preserve">
<g>
	<g>
		<g>
			<g>
				<path fill="none" stroke="#000000" stroke-width="6.8846" stroke-miterlimit="10" d="M585.9,309.8H659c0-98.9-80.1-179-179-179
					s-179,80.1-179,179h70.1"/>
				<line fill="none" stroke="#000000" stroke-width="13" stroke-miterlimit="10" x1="587.9" y1="306.3" x2="659" y2="306.3"/>
				<line fill="none" stroke="#000000" stroke-width="13" stroke-miterlimit="10" x1="372.1" y1="306.3" x2="301" y2="306.3"/>
				<line fill="none" stroke="#000000" stroke-width="12" stroke-miterlimit="10" x1="547.6" y1="192.8" x2="569.5" y2="154.8"/>
				<line fill="none" stroke="#000000" stroke-width="12" stroke-miterlimit="10" x1="412.4" y1="192.8" x2="390.5" y2="154.8"/>
			</g>
			<polygon fill="none" stroke="#000000" stroke-width="12" stroke-miterlimit="10" points="480,165.5 511.3,201.1 557.5,190.7 
				561.9,237.8 605.4,256.6 581.3,297.4 605.4,338.1 561.9,356.9 557.5,404 511.3,393.7 480,429.2 448.7,393.7 402.5,404 
				398.1,356.9 354.6,338.1 378.7,297.4 354.6,256.6 398.1,237.8 402.5,190.7 448.7,201.1 			"/>
		</g>
	</g>
</g>
<g>
	<path d="M510.3,248.5c-3.4-0.2-7.8,0-12.6,0.8c-26.3,4.4-40.3,23.7-43.1,44.1h0.6c5.9-7.8,16.2-14.3,30-14.3
		c21.9,0,37.4,15.8,37.4,40.1c0,22.7-15.5,43.7-41.2,43.7c-26.5,0-43.9-20.6-43.9-52.9c0-24.4,8.8-43.7,21-55.9
		c10.3-10.1,24-16.4,39.7-18.3c5-0.8,9.2-1,12.2-1V248.5z M505.6,320.1c0-17.7-10.1-28.4-25.6-28.4c-10.1,0-19.5,6.3-24,15.3
		c-1.1,1.9-1.9,4.4-1.9,7.4c0.4,20.4,9.7,35.5,27.3,35.5C495.8,349.9,505.6,337.9,505.6,320.1z"/>
</g>
</svg>
