<?xml version="1.0" encoding="utf-8"?>
<!-- Generator: Adobe Illustrator 17.1.0, SVG Export Plug-In . SVG Version: 6.00 Build 0)  -->
<!DOCTYPE svg PUBLIC "-//W3C//DTD SVG 1.1//EN" "http://www.w3.org/Graphics/SVG/1.1/DTD/svg11.dtd">
<svg version="1.1" id="Layer_1" xmlns="http://www.w3.org/2000/svg" xmlns:xlink="http://www.w3.org/1999/xlink" x="0px" y="0px"
	 viewBox="0 0 960 560" enable-background="new 0 0 960 560" xml:space="preserve">
<g>
	<g>
		<g>
			<g>
				<path fill="none" stroke="#000000" stroke-width="6.4519" stroke-miterlimit="10" d="M545.6,195.4l25.7-44.7
					c-80.3-46.2-182.9-18.5-229,61.8s-18.5,182.9,61.8,229l26.9-46.8"/>
				
					<line fill="none" stroke="#000000" stroke-width="12.1829" stroke-miterlimit="10" x1="543.3" y1="192.8" x2="568.4" y2="149.1"/>
				<line fill="none" stroke="#000000" stroke-width="12.1829" stroke-miterlimit="10" x1="424.7" y1="399" x2="401.2" y2="439.9"/>
				<line fill="none" stroke="#000000" stroke-width="11.2457" stroke-miterlimit="10" x1="430.7" y1="197" x2="403.5" y2="151"/>
				
					<line fill="none" stroke="#000000" stroke-width="11.2457" stroke-miterlimit="10" x1="378.7" y1="297.4" x2="319.9" y2="297.4"/>
			</g>
			<polygon fill="none" stroke="#000000" stroke-width="12" stroke-miterlimit="10" points="480,165.5 511.3,201.1 557.5,190.7 
				561.9,237.8 605.4,256.6 581.3,297.4 605.4,338.1 561.9,356.9 557.5,404 511.3,393.7 480,429.2 448.7,393.7 402.5,404 
				398.1,356.9 354.6,338.1 378.7,297.4 354.6,256.6 398.1,237.8 402.5,190.7 448.7,201.1 			"/>
		</g>
	</g>
</g>
<g>
	<path d="M441.6,356.7v-10l12.8-12.4c30.7-29.2,44.6-44.8,44.8-62.9c0-12.2-5.9-23.5-23.9-23.5c-10.9,0-20,5.5-25.5,10.2l-5.2-11.5
		c8.3-7,20.2-12.2,34-12.2c25.9,0,36.8,17.8,36.8,35c0,22.2-16.1,40.1-41.4,64.6l-9.6,8.9v0.4h54v13.5H441.6z"/>
</g>
</svg>
