<?xml version="1.0" encoding="utf-8"?>
<!-- Generator: Adobe Illustrator 17.1.0, SVG Export Plug-In . SVG Version: 6.00 Build 0)  -->
<!DOCTYPE svg PUBLIC "-//W3C//DTD SVG 1.1//EN" "http://www.w3.org/Graphics/SVG/1.1/DTD/svg11.dtd">
<svg version="1.1" id="Layer_1" xmlns="http://www.w3.org/2000/svg" xmlns:xlink="http://www.w3.org/1999/xlink" x="0px" y="0px"
	 viewBox="0 0 960 560" enable-background="new 0 0 960 560" xml:space="preserve">
<g>
	<g>
		<g>
			<g>
				<path fill="none" stroke="#000000" stroke-width="6.4519" stroke-miterlimit="10" d="M545.6,195.4l25.7-44.7
					c-80.3-46.2-182.9-18.5-229,61.8s-18.5,182.9,61.8,229l26.9-46.8"/>
				
					<line fill="none" stroke="#000000" stroke-width="12.1829" stroke-miterlimit="10" x1="543.3" y1="192.8" x2="568.4" y2="149.1"/>
				<line fill="none" stroke="#000000" stroke-width="12.1829" stroke-miterlimit="10" x1="424.7" y1="399" x2="401.2" y2="439.9"/>
				<line fill="none" stroke="#000000" stroke-width="11.2457" stroke-miterlimit="10" x1="430.7" y1="197" x2="403.5" y2="151"/>
				
					<line fill="none" stroke="#000000" stroke-width="11.2457" stroke-miterlimit="10" x1="378.7" y1="297.4" x2="319.9" y2="297.4"/>
			</g>
			<polygon fill="none" stroke="#000000" stroke-width="12" stroke-miterlimit="10" points="480,165.5 511.3,201.1 557.5,190.7 
				561.9,237.8 605.4,256.6 581.3,297.4 605.4,338.1 561.9,356.9 557.5,404 511.3,393.7 480,429.2 448.7,393.7 402.5,404 
				398.1,356.9 354.6,338.1 378.7,297.4 354.6,256.6 398.1,237.8 402.5,190.7 448.7,201.1 			"/>
		</g>
	</g>
</g>
<g>
	<path d="M446.9,342.6c4.6,3,15.4,7.6,26.6,7.6c20.9,0,27.4-13.3,27.2-23.3c-0.2-16.8-15.4-24-31.1-24h-9.1v-12.2h9.1
		c11.8,0,26.8-6.1,26.8-20.4c0-9.6-6.1-18.1-21.1-18.1c-9.6,0-18.9,4.3-24,8l-4.3-11.8c6.3-4.6,18.5-9.2,31.4-9.2
		c23.7,0,34.4,14.1,34.4,28.7c0,12.4-7.4,22.9-22.2,28.3v0.4c14.8,3,26.8,14.1,26.8,30.9c0,19.2-15,36.1-43.8,36.1
		c-13.5,0-25.3-4.3-31.3-8.1L446.9,342.6z"/>
</g>
</svg>
