<?xml version="1.0" encoding="utf-8"?>
<!-- Generator: Adobe Illustrator 17.1.0, SVG Export Plug-In . SVG Version: 6.00 Build 0)  -->
<!DOCTYPE svg PUBLIC "-//W3C//DTD SVG 1.1//EN" "http://www.w3.org/Graphics/SVG/1.1/DTD/svg11.dtd">
<svg version="1.1" id="Layer_1" xmlns="http://www.w3.org/2000/svg" xmlns:xlink="http://www.w3.org/1999/xlink" x="0px" y="0px"
	 viewBox="0 0 960 560" enable-background="new 0 0 960 560" xml:space="preserve">
<g>
	<g>
		<g>
			<g>
				<path fill="none" stroke="#000000" stroke-width="6.4519" stroke-miterlimit="10" d="M530.2,394.8l26.9,46.8
					c80.3-46.2,108-148.7,61.8-229c-46.2-80.3-148.7-108-229-61.8l25.7,44.7"/>
				
					<line fill="none" stroke="#000000" stroke-width="12.1829" stroke-miterlimit="10" x1="392.8" y1="149.1" x2="417.9" y2="192.8"/>
				<line fill="none" stroke="#000000" stroke-width="12.1829" stroke-miterlimit="10" x1="560" y1="439.9" x2="536.5" y2="399"/>
				<line fill="none" stroke="#000000" stroke-width="11.2457" stroke-miterlimit="10" x1="557.7" y1="151" x2="530.5" y2="197"/>
				
					<line fill="none" stroke="#000000" stroke-width="11.2457" stroke-miterlimit="10" x1="641.3" y1="297.4" x2="582.5" y2="297.4"/>
			</g>
			<polygon fill="none" stroke="#000000" stroke-width="12" stroke-miterlimit="10" points="480,165.5 511.3,201.1 557.5,190.7 
				561.9,237.8 605.4,256.6 581.3,297.4 605.4,338.1 561.9,356.9 557.5,404 511.3,393.7 480,429.2 448.7,393.7 402.5,404 
				398.1,356.9 354.6,338.1 378.7,297.4 354.6,256.6 398.1,237.8 402.5,190.7 448.7,201.1 			"/>
		</g>
	</g>
</g>
<g>
	<path d="M515,252.1h-45.9l-4.6,30.9c2.8-0.4,5.4-0.7,9.8-0.7c9.3,0,18.5,2,25.9,6.5c9.4,5.4,17.2,15.7,17.2,30.9
		c0,23.5-18.7,41.1-44.8,41.1c-13.1,0-24.2-3.7-30-7.4l4.1-12.4c5,3,14.8,6.7,25.7,6.7c15.4,0,28.5-10,28.5-26.1
		c-0.2-15.5-10.5-26.6-34.6-26.6c-6.8,0-12.2,0.7-16.6,1.3l7.8-57.7H515V252.1z"/>
</g>
</svg>
