<?xml version="1.0" encoding="utf-8"?>
<!-- Generator: Adobe Illustrator 17.1.0, SVG Export Plug-In . SVG Version: 6.00 Build 0)  -->
<!DOCTYPE svg PUBLIC "-//W3C//DTD SVG 1.1//EN" "http://www.w3.org/Graphics/SVG/1.1/DTD/svg11.dtd">
<svg version="1.1" id="Layer_1" xmlns="http://www.w3.org/2000/svg" xmlns:xlink="http://www.w3.org/1999/xlink" x="0px" y="0px"
	 viewBox="0 0 960 560" enable-background="new 0 0 960 560" xml:space="preserve">
<g>
	<circle fill="none" stroke="#000000" stroke-width="6.5931" stroke-miterlimit="10" cx="480" cy="160.8" r="124.8"/>
	<path fill="none" stroke="#000000" stroke-width="6.5931" stroke-miterlimit="10" d="M411.2,264.9c-17.7,17.7-28.7,42.1-28.7,69.1
		c0,53.9,43.7,97.5,97.5,97.5s97.5-43.7,97.5-97.5c0-26.9-10.9-51.3-28.6-69"/>
	<path fill="none" stroke="#000000" stroke-width="6.5931" stroke-miterlimit="10" d="M427.9,416.5c-9,11.3-14.3,25.6-14.3,41.2
		c0,36.7,29.7,66.4,66.4,66.4s66.4-29.7,66.4-66.4c0-15.6-5.4-29.9-14.4-41.3"/>
</g>
<g>
	<path d="M509.3,349c-0.6-11.4-1.3-25-1.2-35.2h-0.4c-2.8,9.6-6.2,19.7-10.3,31L483,384.3h-8l-13.2-38.8c-3.9-11.5-7.1-22-9.4-31.7
		h-0.2c-0.2,10.2-0.8,23.8-1.6,36.1l-2.2,35h-10l5.7-81.6h13.4l13.9,39.4c3.4,10,6.2,19,8.2,27.5h0.4c2.1-8.2,5-17.2,8.6-27.5
		l14.5-39.4h13.4l5.1,81.6h-10.3L509.3,349z"/>
</g>
</svg>
