<?xml version="1.0" encoding="utf-8"?>
<!-- Generator: Adobe Illustrator 17.1.0, SVG Export Plug-In . SVG Version: 6.00 Build 0)  -->
<!DOCTYPE svg PUBLIC "-//W3C//DTD SVG 1.1//EN" "http://www.w3.org/Graphics/SVG/1.1/DTD/svg11.dtd">
<svg version="1.1" id="Layer_1" xmlns="http://www.w3.org/2000/svg" xmlns:xlink="http://www.w3.org/1999/xlink" x="0px" y="0px"
	 viewBox="0 0 960 560" enable-background="new 0 0 960 560" xml:space="preserve">
<g>
	<circle fill="none" stroke="#000000" stroke-width="6.5931" stroke-miterlimit="10" cx="480" cy="160.8" r="124.8"/>
	<path fill="none" stroke="#000000" stroke-width="6.5931" stroke-miterlimit="10" d="M411.2,264.9c-17.7,17.7-28.7,42.1-28.7,69.1
		c0,53.9,43.7,97.5,97.5,97.5s97.5-43.7,97.5-97.5c0-26.9-10.9-51.3-28.6-69"/>
	<path fill="none" stroke="#000000" stroke-width="6.5931" stroke-miterlimit="10" d="M427.9,416.5c-9,11.3-14.3,25.6-14.3,41.2
		c0,36.7,29.7,66.4,66.4,66.4s66.4-29.7,66.4-66.4c0-15.6-5.4-29.9-14.4-41.3"/>
</g>
<g>
	<path d="M454.6,375.7c4.8,3.2,13.4,6.5,21.6,6.5c11.9,0,17.5-6,17.5-13.4c0-7.8-4.7-12.1-16.8-16.6c-16.2-5.8-23.9-14.7-23.9-25.5
		c0-14.5,11.7-26.5,31.1-26.5c9.1,0,17.1,2.6,22.2,5.6l-4.1,11.9c-3.5-2.2-10.1-5.2-18.4-5.2c-9.7,0-15.1,5.6-15.1,12.3
		c0,7.5,5.4,10.8,17.1,15.3c15.7,6,23.7,13.8,23.7,27.2c0,15.8-12.3,27-33.7,27c-9.9,0-19-2.4-25.3-6.1L454.6,375.7z"/>
</g>
</svg>
