<?xml version="1.0" encoding="utf-8"?>
<!-- Generator: Adobe Illustrator 17.1.0, SVG Export Plug-In . SVG Version: 6.00 Build 0)  -->
<!DOCTYPE svg PUBLIC "-//W3C//DTD SVG 1.1//EN" "http://www.w3.org/Graphics/SVG/1.1/DTD/svg11.dtd">
<svg version="1.1" id="Layer_1" xmlns="http://www.w3.org/2000/svg" xmlns:xlink="http://www.w3.org/1999/xlink" x="0px" y="0px"
	 viewBox="0 0 960 560" enable-background="new 0 0 960 560" xml:space="preserve">
<g>
	<circle fill="none" stroke="#000000" stroke-width="6.5931" stroke-miterlimit="10" cx="480" cy="160.8" r="124.8"/>
	<path fill="none" stroke="#000000" stroke-width="6.5931" stroke-miterlimit="10" d="M411.2,264.9c-17.7,17.7-28.7,42.1-28.7,69.1
		c0,53.9,43.7,97.5,97.5,97.5s97.5-43.7,97.5-97.5c0-26.9-10.9-51.3-28.6-69"/>
	<path fill="none" stroke="#000000" stroke-width="6.5931" stroke-miterlimit="10" d="M427.9,416.5c-9,11.3-14.3,25.6-14.3,41.2
		c0,36.7,29.7,66.4,66.4,66.4s66.4-29.7,66.4-66.4c0-15.6-5.4-29.9-14.4-41.3"/>
</g>
<g>
	<path d="M453.6,297.3h13.6v94.1h45.1v11.4h-58.7V297.3z"/>
</g>
</svg>
