<?xml version="1.0" encoding="utf-8"?>
<!-- Generator: Adobe Illustrator 17.1.0, SVG Export Plug-In . SVG Version: 6.00 Build 0)  -->
<!DOCTYPE svg PUBLIC "-//W3C//DTD SVG 1.1//EN" "http://www.w3.org/Graphics/SVG/1.1/DTD/svg11.dtd">
<svg version="1.1" id="Layer_1" xmlns="http://www.w3.org/2000/svg" xmlns:xlink="http://www.w3.org/1999/xlink" x="0px" y="0px"
	 viewBox="0 0 960 560" enable-background="new 0 0 960 560" xml:space="preserve">
<g>
	<g>
		<polygon stroke="#000000" stroke-width="4.6996" stroke-miterlimit="10" points="398,364.9 348.9,311 348.9,224.9 331.6,205.6 
			314.2,224.9 314.2,311 265.1,364.9 320.2,364.9 320.2,397.5 342.9,397.5 342.9,364.9 		"/>
		<polygon stroke="#000000" stroke-width="4.6996" stroke-miterlimit="10" points="562,364.9 611.1,311 611.1,224.9 628.4,205.6 
			645.8,224.9 645.8,311 694.9,364.9 639.8,364.9 639.8,397.5 617.1,397.5 617.1,364.9 		"/>
		<polygon stroke="#000000" stroke-width="4.6996" stroke-miterlimit="10" points="546.4,282.2 497.4,228.3 497.4,142.3 480,123 
			462.6,142.3 462.6,228.3 413.6,282.2 468.6,282.2 468.6,314.8 491.4,314.8 491.4,282.2 		"/>
	</g>
	<circle fill="none" stroke="#000000" stroke-width="15.2353" stroke-miterlimit="10" cx="480" cy="280" r="259"/>
</g>
</svg>
