<?xml version="1.0" encoding="utf-8"?>
<!-- Generator: Adobe Illustrator 17.1.0, SVG Export Plug-In . SVG Version: 6.00 Build 0)  -->
<!DOCTYPE svg PUBLIC "-//W3C//DTD SVG 1.1//EN" "http://www.w3.org/Graphics/SVG/1.1/DTD/svg11.dtd">
<svg version="1.1" id="Layer_1" xmlns="http://www.w3.org/2000/svg" xmlns:xlink="http://www.w3.org/1999/xlink" x="0px" y="0px"
	 viewBox="0 0 960 560" enable-background="new 0 0 960 560" xml:space="preserve">
<g>
	<g>
		<path fill="none" stroke="#000000" stroke-width="3.5245" stroke-miterlimit="10" d="M481.7,57.8c-50.6,0-91.6,41-91.6,91.6h36.4
			c0-30.5,24.7-55.2,55.2-55.2c30.5,0,55.2,24.7,55.2,55.2h36.4C573.4,98.9,532.4,57.8,481.7,57.8z"/>
		<line fill="none" stroke="#000000" stroke-width="9.1569" stroke-miterlimit="10" x1="537" y1="145.1" x2="573.4" y2="145.1"/>
		<line fill="none" stroke="#000000" stroke-width="9.1569" stroke-miterlimit="10" x1="426.5" y1="145.1" x2="390.1" y2="145.1"/>
		<line fill="none" stroke="#000000" stroke-width="10.5735" stroke-miterlimit="10" x1="509.3" y1="101.7" x2="527.6" y2="70.1"/>
		<line fill="none" stroke="#000000" stroke-width="10.5735" stroke-miterlimit="10" x1="454.1" y1="101.7" x2="435.9" y2="70.1"/>
	</g>
	<circle fill="none" stroke="#000000" stroke-width="3.4671" stroke-miterlimit="10" cx="481.7" cy="149.5" r="55.2"/>
	<g>
		<path fill="none" stroke="#000000" stroke-width="3.5245" stroke-miterlimit="10" d="M69.7,88.2c-27.8,42.3-16.1,99.1,26.1,126.9
			l20-30.4c-25.5-16.8-32.5-51-15.8-76.5s51-32.5,76.5-15.8l20-30.4C154.4,34.2,97.6,45.9,69.7,88.2z"/>
		<line fill="none" stroke="#000000" stroke-width="9.1569" stroke-miterlimit="10" x1="173" y1="90.1" x2="193" y2="59.6"/>
		<line fill="none" stroke="#000000" stroke-width="9.1569" stroke-miterlimit="10" x1="112.3" y1="182.3" x2="92.2" y2="212.7"/>
		<line fill="none" stroke="#000000" stroke-width="10.5735" stroke-miterlimit="10" x1="121.5" y1="89.2" x2="105.2" y2="56.7"/>
		<line fill="none" stroke="#000000" stroke-width="10.5735" stroke-miterlimit="10" x1="91.1" y1="135.3" x2="54.8" y2="133.2"/>
	</g>
	<circle fill="none" stroke="#000000" stroke-width="3.4671" stroke-miterlimit="10" cx="146.2" cy="138.4" r="55.2"/>
	<g>
		<path fill="none" stroke="#000000" stroke-width="3.5245" stroke-miterlimit="10" d="M763.3,62l20,30.4
			c25.5-16.8,59.7-9.7,76.5,15.8s9.7,59.7-15.8,76.5l20,30.4c42.3-27.8,54-84.7,26.1-126.9C862.4,45.9,805.6,34.2,763.3,62z"/>
		<line fill="none" stroke="#000000" stroke-width="9.1569" stroke-miterlimit="10" x1="767" y1="59.6" x2="787" y2="90.1"/>
		<line fill="none" stroke="#000000" stroke-width="9.1569" stroke-miterlimit="10" x1="867.8" y1="212.7" x2="847.7" y2="182.3"/>
		<line fill="none" stroke="#000000" stroke-width="10.5735" stroke-miterlimit="10" x1="854.8" y1="56.7" x2="838.5" y2="89.2"/>
		<line fill="none" stroke="#000000" stroke-width="10.5735" stroke-miterlimit="10" x1="905.2" y1="133.2" x2="868.9" y2="135.3"/>
	</g>
	<circle fill="none" stroke="#000000" stroke-width="3.4671" stroke-miterlimit="10" cx="812.7" cy="138.6" r="55.2"/>
	<path fill="none" stroke="#000000" stroke-width="13.8682" stroke-miterlimit="10" d="M713.8,263.4c0-9.6-7.8-17.3-17.3-17.3H267
		c-9.6,0-17.3,7.8-17.3,17.3v232.3c0,9.6,7.8,17.3,17.3,17.3h429.4c9.6,0,17.3-7.8,17.3-17.3V263.4z"/>
	<line fill="none" stroke="#000000" stroke-width="8.6676" stroke-miterlimit="10" x1="481.7" y1="246.1" x2="481.7" y2="204.6"/>
	<polygon fill="none" stroke="#000000" stroke-width="4.7806" stroke-miterlimit="10" points="393.6,273 418.4,361.4 393.6,345.9 
		368.7,361.4 	"/>
	<polygon fill="none" stroke="#000000" stroke-width="4.7806" stroke-miterlimit="10" points="300.2,273 325,361.4 300.2,345.9 
		275.4,361.4 	"/>
	<polygon fill="none" stroke="#000000" stroke-width="4.7806" stroke-miterlimit="10" points="481.7,273 506.6,361.4 481.7,345.9 
		456.9,361.4 	"/>
	<polygon stroke="#000000" stroke-width="4.1006" stroke-miterlimit="10" points="481.7,111.6 503,187.4 481.7,174.1 460.4,187.4 	
		"/>
	<polygon stroke="#000000" stroke-width="4.1006" stroke-miterlimit="10" points="812.7,100.7 834,176.5 812.7,163.2 791.4,176.5 	
		"/>
	<polygon stroke="#000000" stroke-width="4.1006" stroke-miterlimit="10" points="146.2,96.4 167.5,172.2 146.2,158.9 124.9,172.2 	
		"/>
	<polygon fill="none" stroke="#000000" stroke-width="4.7806" stroke-miterlimit="10" points="567.2,273 592,361.4 567.2,345.9 
		542.4,361.4 	"/>
	<polygon fill="none" stroke="#000000" stroke-width="4.7806" stroke-miterlimit="10" points="608.9,384.7 633.7,473.1 608.9,457.6 
		584,473.1 	"/>
	<polygon fill="none" stroke="#000000" stroke-width="4.7806" stroke-miterlimit="10" points="522.6,384.7 547.5,473.1 522.6,457.6 
		497.8,473.1 	"/>
	<polygon fill="none" stroke="#000000" stroke-width="4.7806" stroke-miterlimit="10" points="439,384.7 463.8,473.1 439,457.6 
		414.1,473.1 	"/>
	<polygon fill="none" stroke="#000000" stroke-width="4.7806" stroke-miterlimit="10" points="346.4,384.7 371.2,473.1 346.4,457.6 
		321.6,473.1 	"/>
	<polygon fill="none" stroke="#000000" stroke-width="4.7806" stroke-miterlimit="10" points="653.6,273 678.4,361.4 653.6,345.9 
		628.8,361.4 	"/>
	<line fill="none" stroke="#000000" stroke-width="8.6676" stroke-miterlimit="10" x1="254.8" y1="251.2" x2="183" y2="179.5"/>
	<line fill="none" stroke="#000000" stroke-width="8.6676" stroke-miterlimit="10" x1="708.8" y1="251.1" x2="778.6" y2="181.3"/>
</g>
</svg>
