<?xml version="1.0" encoding="utf-8"?>
<!-- Generator: Adobe Illustrator 17.1.0, SVG Export Plug-In . SVG Version: 6.00 Build 0)  -->
<!DOCTYPE svg PUBLIC "-//W3C//DTD SVG 1.1//EN" "http://www.w3.org/Graphics/SVG/1.1/DTD/svg11.dtd">
<svg version="1.1" id="Layer_1" xmlns="http://www.w3.org/2000/svg" xmlns:xlink="http://www.w3.org/1999/xlink" x="0px" y="0px"
	 viewBox="0 0 960 560" enable-background="new 0 0 960 560" xml:space="preserve">
<g>
	<g>
		<g>
			<g>
				<g>
					<path fill="none" stroke="#000000" stroke-width="8.7311" stroke-miterlimit="10" d="M479.7,140.7c-45.5,0-82.4,36.9-82.4,82.4
						s36.9,82.4,82.4,82.4s82.4-36.9,82.4-82.4C562.1,177.6,525.2,140.7,479.7,140.7z"/>
					<circle fill="none" stroke="#000000" stroke-width="8.7311" stroke-miterlimit="10" cx="479.7" cy="223.1" r="125.3"/>
					
						<line fill="none" stroke="#000000" stroke-width="8.7311" stroke-miterlimit="10" x1="354.3" y1="229.8" x2="398.7" y2="229.8"/>
					
						<line fill="none" stroke="#000000" stroke-width="8.7311" stroke-miterlimit="10" x1="605.7" y1="229.8" x2="562.1" y2="229.8"/>
					
						<line fill="none" stroke="#000000" stroke-width="8.7311" stroke-miterlimit="10" x1="555.6" y1="120.9" x2="528.6" y2="156.8"/>
					
						<line fill="none" stroke="#000000" stroke-width="8.7311" stroke-miterlimit="10" x1="403.8" y1="120.9" x2="430.8" y2="156.8"/>
					
						<line fill="none" stroke="#000000" stroke-width="8.7311" stroke-miterlimit="10" x1="403.8" y1="325.4" x2="430.7" y2="289.5"/>
					
						<line fill="none" stroke="#000000" stroke-width="8.7311" stroke-miterlimit="10" x1="555.6" y1="325.4" x2="528.6" y2="289.5"/>
				</g>
			</g>
		</g>
	</g>
	<polygon fill="none" stroke="#000000" stroke-width="6.591" stroke-miterlimit="10" points="480,181.1 517.2,265.1 480,241.6 
		442.8,265.1 	"/>
	<polygon stroke="#000000" stroke-width="6.591" stroke-miterlimit="10" points="417,378.1 454.2,462.1 417,438.6 379.8,462.1 	"/>
	<polygon fill="none" stroke="#000000" stroke-width="6.591" stroke-miterlimit="10" points="543,378.1 505.8,462.1 543,438.6 
		580.2,462.1 	"/>
</g>
</svg>
