<?xml version="1.0" encoding="utf-8"?>
<!-- Generator: Adobe Illustrator 17.1.0, SVG Export Plug-In . SVG Version: 6.00 Build 0)  -->
<!DOCTYPE svg PUBLIC "-//W3C//DTD SVG 1.1//EN" "http://www.w3.org/Graphics/SVG/1.1/DTD/svg11.dtd">
<svg version="1.1" id="Layer_1" xmlns="http://www.w3.org/2000/svg" xmlns:xlink="http://www.w3.org/1999/xlink" x="0px" y="0px"
	 viewBox="0 0 960 560" enable-background="new 0 0 960 560" xml:space="preserve">
<g>
	<polygon fill="none" stroke="#000000" stroke-width="17.9542" stroke-miterlimit="10" points="340,522.5 200,280 340,37.5 
		620,37.5 760,280 620,522.5 	"/>
	<polygon fill="none" stroke="#000000" stroke-width="13.6376" stroke-miterlimit="10" points="373.6,464.2 267.3,280 373.6,95.8 
		586.4,95.8 692.7,280 586.4,464.2 	"/>
	<line fill="none" stroke="#000000" stroke-width="13.6392" stroke-miterlimit="10" x1="692.7" y1="280" x2="760" y2="280"/>
	<line fill="none" stroke="#000000" stroke-width="13.6392" stroke-miterlimit="10" x1="267.3" y1="280" x2="200" y2="280"/>
	<line fill="none" stroke="#000000" stroke-width="13.6392" stroke-miterlimit="10" x1="373.6" y1="95.8" x2="340" y2="37.5"/>
	<line fill="none" stroke="#000000" stroke-width="13.6392" stroke-miterlimit="10" x1="586.4" y1="95.8" x2="620" y2="37.5"/>
	<line fill="none" stroke="#000000" stroke-width="13.6392" stroke-miterlimit="10" x1="586.4" y1="464.2" x2="620" y2="522.5"/>
	<line fill="none" stroke="#000000" stroke-width="13.6392" stroke-miterlimit="10" x1="373.6" y1="464.2" x2="340" y2="522.5"/>
</g>
<g>
	<path d="M546.3,357v23.7H413.8c-0.2-5.9,0.8-11.6,2.9-17.1c3.4-9,8.8-17.9,16.2-26.7c7.4-8.8,18.2-18.9,32.2-30.4
		c21.8-17.9,36.5-32,44.2-42.5c7.7-10.4,11.5-20.3,11.5-29.6c0-9.8-3.5-18-10.5-24.7c-7-6.7-16.1-10-27.3-10
		c-11.8,0-21.3,3.6-28.4,10.7s-10.7,17-10.8,29.5l-25.3-2.6c1.7-18.9,8.2-33.2,19.6-43.1c11.3-9.9,26.5-14.8,45.5-14.8
		c19.2,0,34.5,5.3,45.7,16S546,219.3,546,235c0,8-1.6,15.9-4.9,23.7c-3.3,7.7-8.7,15.9-16.3,24.5c-7.6,8.6-20.3,20.3-37.9,35.3
		c-14.8,12.4-24.2,20.8-28.4,25.2c-4.2,4.4-7.7,8.9-10.4,13.3H546.3z"/>
</g>
</svg>
