<?xml version="1.0" encoding="utf-8"?>
<!-- Generator: Adobe Illustrator 17.1.0, SVG Export Plug-In . SVG Version: 6.00 Build 0)  -->
<!DOCTYPE svg PUBLIC "-//W3C//DTD SVG 1.1//EN" "http://www.w3.org/Graphics/SVG/1.1/DTD/svg11.dtd">
<svg version="1.1" id="Layer_1" xmlns="http://www.w3.org/2000/svg" xmlns:xlink="http://www.w3.org/1999/xlink" x="0px" y="0px"
	 viewBox="0 0 960 560" enable-background="new 0 0 960 560" xml:space="preserve">
<g>
	<polygon fill="none" stroke="#000000" stroke-width="13.3444" stroke-miterlimit="10" points="375.9,416.9 271.9,236.6 375.9,56.4 
		584.1,56.4 688.1,236.6 584.1,416.9 	"/>
	<polygon fill="none" stroke="#000000" stroke-width="10.1362" stroke-miterlimit="10" points="401,373.5 321.9,236.6 401,99.7 
		559,99.7 638.1,236.6 559,373.5 	"/>
	<line fill="none" stroke="#000000" stroke-width="10.1373" stroke-miterlimit="10" x1="638.1" y1="236.6" x2="688.1" y2="236.6"/>
	<line fill="none" stroke="#000000" stroke-width="10.1373" stroke-miterlimit="10" x1="321.9" y1="236.6" x2="271.9" y2="236.6"/>
	<line fill="none" stroke="#000000" stroke-width="10.1373" stroke-miterlimit="10" x1="401" y1="99.7" x2="375.9" y2="56.4"/>
	<line fill="none" stroke="#000000" stroke-width="10.1373" stroke-miterlimit="10" x1="559" y1="99.7" x2="584.1" y2="56.4"/>
	<line fill="none" stroke="#000000" stroke-width="10.1373" stroke-miterlimit="10" x1="559" y1="373.5" x2="584.1" y2="416.9"/>
	<line fill="none" stroke="#000000" stroke-width="10.1373" stroke-miterlimit="10" x1="401" y1="373.5" x2="375.9" y2="416.9"/>
	<line fill="none" stroke="#000000" stroke-width="20" stroke-miterlimit="10" x1="480" y1="417" x2="480" y2="504"/>
</g>
<g>
	<path d="M536.8,295.9v20.3H423.2c-0.2-5.1,0.7-10,2.5-14.6c2.9-7.7,7.5-15.4,13.9-22.9c6.4-7.5,15.6-16.2,27.6-26
		c18.7-15.3,31.3-27.4,37.9-36.4c6.6-8.9,9.8-17.4,9.8-25.4c0-8.4-3-15.4-9-21.2s-13.8-8.6-23.4-8.6c-10.2,0-18.3,3-24.4,9.1
		s-9.2,14.5-9.3,25.3l-21.7-2.2c1.5-16.2,7.1-28.5,16.8-37c9.7-8.5,22.7-12.7,39-12.7c16.5,0,29.5,4.6,39.1,13.7s14.4,20.5,14.4,34
		c0,6.9-1.4,13.6-4.2,20.3c-2.8,6.6-7.5,13.6-14,21c-6.5,7.3-17.4,17.4-32.5,30.2c-12.7,10.6-20.8,17.8-24.4,21.6
		c-3.6,3.8-6.6,7.6-8.9,11.4H536.8z"/>
</g>
</svg>
