<?xml version="1.0" encoding="utf-8"?>
<!-- Generator: Adobe Illustrator 17.1.0, SVG Export Plug-In . SVG Version: 6.00 Build 0)  -->
<!DOCTYPE svg PUBLIC "-//W3C//DTD SVG 1.1//EN" "http://www.w3.org/Graphics/SVG/1.1/DTD/svg11.dtd">
<svg version="1.1" id="Layer_1" xmlns="http://www.w3.org/2000/svg" xmlns:xlink="http://www.w3.org/1999/xlink" x="0px" y="0px"
	 viewBox="0 0 960 560" enable-background="new 0 0 960 560" xml:space="preserve">
<g>
	<polygon fill="none" stroke="#000000" stroke-width="17.9542" stroke-miterlimit="10" points="340,522.5 200,280 340,37.5 
		620,37.5 760,280 620,522.5 	"/>
	<polygon fill="none" stroke="#000000" stroke-width="13.6376" stroke-miterlimit="10" points="373.6,464.2 267.3,280 373.6,95.8 
		586.4,95.8 692.7,280 586.4,464.2 	"/>
	<line fill="none" stroke="#000000" stroke-width="13.6392" stroke-miterlimit="10" x1="692.7" y1="280" x2="760" y2="280"/>
	<line fill="none" stroke="#000000" stroke-width="13.6392" stroke-miterlimit="10" x1="267.3" y1="280" x2="200" y2="280"/>
	<line fill="none" stroke="#000000" stroke-width="13.6392" stroke-miterlimit="10" x1="373.6" y1="95.8" x2="340" y2="37.5"/>
	<line fill="none" stroke="#000000" stroke-width="13.6392" stroke-miterlimit="10" x1="586.4" y1="95.8" x2="620" y2="37.5"/>
	<line fill="none" stroke="#000000" stroke-width="13.6392" stroke-miterlimit="10" x1="586.4" y1="464.2" x2="620" y2="522.5"/>
	<line fill="none" stroke="#000000" stroke-width="13.6392" stroke-miterlimit="10" x1="373.6" y1="464.2" x2="340" y2="522.5"/>
</g>
<g>
	<path d="M414.4,325.9l24.6-3.3c2.8,13.9,7.6,24,14.4,30.1c6.8,6.2,15.1,9.2,24.8,9.2c11.6,0,21.3-4,29.3-12c8-8,12-18,12-29.8
		c0-11.3-3.7-20.6-11.1-28c-7.4-7.3-16.8-11-28.2-11c-4.6,0-10.4,0.9-17.4,2.7l2.7-21.6c1.6,0.2,3,0.3,4,0.3
		c10.5,0,19.9-2.7,28.3-8.2c8.4-5.5,12.6-13.9,12.6-25.3c0-9-3.1-16.5-9.2-22.4c-6.1-5.9-14-8.9-23.7-8.9c-9.6,0-17.5,3-23.9,9
		c-6.4,6-10.5,15-12.3,27.1l-24.6-4.4c3-16.5,9.8-29.3,20.5-38.3c10.7-9.1,23.9-13.6,39.8-13.6c10.9,0,21,2.3,30.2,7
		c9.2,4.7,16.2,11.1,21.1,19.2c4.9,8.1,7.3,16.7,7.3,25.8c0,8.7-2.3,16.5-7,23.7s-11.5,12.8-20.6,17c11.8,2.7,21.1,8.4,27.6,17
		s9.8,19.4,9.8,32.3c0,17.5-6.4,32.3-19.1,44.5c-12.8,12.2-28.9,18.3-48.4,18.3c-17.6,0-32.2-5.2-43.8-15.7
		C422.6,356.2,416,342.6,414.4,325.9z"/>
</g>
</svg>
