<?xml version="1.0" encoding="utf-8"?>
<!-- Generator: Adobe Illustrator 17.1.0, SVG Export Plug-In . SVG Version: 6.00 Build 0)  -->
<!DOCTYPE svg PUBLIC "-//W3C//DTD SVG 1.1//EN" "http://www.w3.org/Graphics/SVG/1.1/DTD/svg11.dtd">
<svg version="1.1" id="Layer_1" xmlns="http://www.w3.org/2000/svg" xmlns:xlink="http://www.w3.org/1999/xlink" x="0px" y="0px"
	 viewBox="0 0 960 560" enable-background="new 0 0 960 560" xml:space="preserve">
<g>
	<polygon fill="none" stroke="#000000" stroke-width="13.3444" stroke-miterlimit="10" points="375.9,416.9 271.9,236.6 375.9,56.4 
		584.1,56.4 688.1,236.6 584.1,416.9 	"/>
	<polygon fill="none" stroke="#000000" stroke-width="10.1362" stroke-miterlimit="10" points="401,373.5 321.9,236.6 401,99.7 
		559,99.7 638.1,236.6 559,373.5 	"/>
	<line fill="none" stroke="#000000" stroke-width="10.1373" stroke-miterlimit="10" x1="638.1" y1="236.6" x2="688.1" y2="236.6"/>
	<line fill="none" stroke="#000000" stroke-width="10.1373" stroke-miterlimit="10" x1="321.9" y1="236.6" x2="271.9" y2="236.6"/>
	<line fill="none" stroke="#000000" stroke-width="10.1373" stroke-miterlimit="10" x1="401" y1="99.7" x2="375.9" y2="56.4"/>
	<line fill="none" stroke="#000000" stroke-width="10.1373" stroke-miterlimit="10" x1="559" y1="99.7" x2="584.1" y2="56.4"/>
	<line fill="none" stroke="#000000" stroke-width="10.1373" stroke-miterlimit="10" x1="559" y1="373.5" x2="584.1" y2="416.9"/>
	<line fill="none" stroke="#000000" stroke-width="10.1373" stroke-miterlimit="10" x1="401" y1="373.5" x2="375.9" y2="416.9"/>
	<line fill="none" stroke="#000000" stroke-width="20" stroke-miterlimit="10" x1="480" y1="417" x2="480" y2="504"/>
</g>
<g>
	<path d="M423.8,269.3l21.1-2.8c2.4,12,6.5,20.6,12.4,25.8c5.8,5.3,12.9,7.9,21.3,7.9c9.9,0,18.3-3.4,25.1-10.3
		c6.8-6.9,10.3-15.4,10.3-25.5c0-9.7-3.2-17.7-9.5-24c-6.3-6.3-14.4-9.4-24.1-9.4c-4,0-8.9,0.8-14.9,2.3l2.3-18.5
		c1.4,0.2,2.5,0.2,3.4,0.2c9,0,17.1-2.3,24.3-7c7.2-4.7,10.8-11.9,10.8-21.7c0-7.7-2.6-14.1-7.9-19.2c-5.2-5.1-12-7.6-20.3-7.6
		c-8.2,0-15,2.6-20.5,7.7c-5.5,5.2-9,12.9-10.5,23.2l-21.1-3.8c2.6-14.1,8.4-25.1,17.6-32.9c9.1-7.8,20.5-11.7,34.1-11.7
		c9.4,0,18,2,25.9,6c7.9,4,13.9,9.5,18.1,16.5c4.2,7,6.3,14.3,6.3,22.1c0,7.4-2,14.2-6,20.3s-9.9,10.9-17.7,14.5
		c10.2,2.3,18,7.2,23.7,14.6s8.4,16.6,8.4,27.7c0,15-5.5,27.7-16.4,38.1c-10.9,10.4-24.8,15.6-41.5,15.6c-15.1,0-27.6-4.5-37.6-13.5
		C430.8,295.3,425.2,283.6,423.8,269.3z"/>
</g>
</svg>
