<?xml version="1.0" encoding="utf-8"?>
<!-- Generator: Adobe Illustrator 17.1.0, SVG Export Plug-In . SVG Version: 6.00 Build 0)  -->
<!DOCTYPE svg PUBLIC "-//W3C//DTD SVG 1.1//EN" "http://www.w3.org/Graphics/SVG/1.1/DTD/svg11.dtd">
<svg version="1.1" id="Layer_1" xmlns="http://www.w3.org/2000/svg" xmlns:xlink="http://www.w3.org/1999/xlink" x="0px" y="0px"
	 viewBox="0 0 960 560" enable-background="new 0 0 960 560" xml:space="preserve">
<g>
	<polygon fill="none" stroke="#000000" stroke-width="17.9542" stroke-miterlimit="10" points="340,522.5 200,280 340,37.5 
		620,37.5 760,280 620,522.5 	"/>
	<polygon fill="none" stroke="#000000" stroke-width="13.6376" stroke-miterlimit="10" points="373.6,464.2 267.3,280 373.6,95.8 
		586.4,95.8 692.7,280 586.4,464.2 	"/>
	<line fill="none" stroke="#000000" stroke-width="13.6392" stroke-miterlimit="10" x1="692.7" y1="280" x2="760" y2="280"/>
	<line fill="none" stroke="#000000" stroke-width="13.6392" stroke-miterlimit="10" x1="267.3" y1="280" x2="200" y2="280"/>
	<line fill="none" stroke="#000000" stroke-width="13.6392" stroke-miterlimit="10" x1="373.6" y1="95.8" x2="340" y2="37.5"/>
	<line fill="none" stroke="#000000" stroke-width="13.6392" stroke-miterlimit="10" x1="586.4" y1="95.8" x2="620" y2="37.5"/>
	<line fill="none" stroke="#000000" stroke-width="13.6392" stroke-miterlimit="10" x1="586.4" y1="464.2" x2="620" y2="522.5"/>
	<line fill="none" stroke="#000000" stroke-width="13.6392" stroke-miterlimit="10" x1="373.6" y1="464.2" x2="340" y2="522.5"/>
</g>
<g>
	<path d="M413.6,324.6l25.8-2.2c1.9,12.6,6.4,22,13.3,28.4c7,6.3,15.4,9.5,25.2,9.5c11.8,0,21.9-4.5,30.1-13.4
		c8.2-8.9,12.3-20.8,12.3-35.5c0-14-3.9-25.1-11.8-33.2c-7.9-8.1-18.2-12.2-31-12.2c-7.9,0-15.1,1.8-21.5,5.4
		c-6.4,3.6-11.4,8.3-15,14l-23.1-3l19.4-102.9H537V203h-80l-10.8,53.9c12-8.4,24.7-12.6,37.9-12.6c17.5,0,32.3,6.1,44.3,18.2
		c12,12.1,18,27.7,18,46.8c0,18.1-5.3,33.8-15.9,47c-12.9,16.2-30.4,24.3-52.6,24.3c-18.2,0-33.1-5.1-44.6-15.3
		C421.8,355,415.2,341.5,413.6,324.6z"/>
</g>
</svg>
