<?xml version="1.0" encoding="utf-8"?>
<!-- Generator: Adobe Illustrator 17.1.0, SVG Export Plug-In . SVG Version: 6.00 Build 0)  -->
<!DOCTYPE svg PUBLIC "-//W3C//DTD SVG 1.1//EN" "http://www.w3.org/Graphics/SVG/1.1/DTD/svg11.dtd">
<svg version="1.1" id="Layer_1" xmlns="http://www.w3.org/2000/svg" xmlns:xlink="http://www.w3.org/1999/xlink" x="0px" y="0px"
	 viewBox="0 0 960 560" enable-background="new 0 0 960 560" xml:space="preserve">
<g>
	<polygon fill="none" stroke="#000000" stroke-width="13.3444" stroke-miterlimit="10" points="375.9,416.9 271.9,236.6 375.9,56.4 
		584.1,56.4 688.1,236.6 584.1,416.9 	"/>
	<polygon fill="none" stroke="#000000" stroke-width="10.1362" stroke-miterlimit="10" points="401,373.5 321.9,236.6 401,99.7 
		559,99.7 638.1,236.6 559,373.5 	"/>
	<line fill="none" stroke="#000000" stroke-width="10.1373" stroke-miterlimit="10" x1="638.1" y1="236.6" x2="688.1" y2="236.6"/>
	<line fill="none" stroke="#000000" stroke-width="10.1373" stroke-miterlimit="10" x1="321.9" y1="236.6" x2="271.9" y2="236.6"/>
	<line fill="none" stroke="#000000" stroke-width="10.1373" stroke-miterlimit="10" x1="401" y1="99.7" x2="375.9" y2="56.4"/>
	<line fill="none" stroke="#000000" stroke-width="10.1373" stroke-miterlimit="10" x1="559" y1="99.7" x2="584.1" y2="56.4"/>
	<line fill="none" stroke="#000000" stroke-width="10.1373" stroke-miterlimit="10" x1="559" y1="373.5" x2="584.1" y2="416.9"/>
	<line fill="none" stroke="#000000" stroke-width="10.1373" stroke-miterlimit="10" x1="401" y1="373.5" x2="375.9" y2="416.9"/>
	<line fill="none" stroke="#000000" stroke-width="20" stroke-miterlimit="10" x1="480" y1="417" x2="480" y2="504"/>
</g>
<g>
	<path d="M423,278.2l22.1-1.9c1.6,10.8,5.4,18.9,11.4,24.3c6,5.4,13.2,8.1,21.6,8.1c10.2,0,18.8-3.8,25.8-11.5
		c7-7.7,10.5-17.8,10.5-30.5c0-12-3.4-21.5-10.1-28.5c-6.8-7-15.6-10.4-26.5-10.4c-6.8,0-12.9,1.5-18.4,4.6
		c-5.5,3.1-9.8,7.1-12.9,12l-19.8-2.6l16.6-88.2h85.4v20.2h-68.6l-9.3,46.2c10.3-7.2,21.1-10.8,32.5-10.8c15,0,27.7,5.2,38,15.6
		c10.3,10.4,15.5,23.8,15.5,40.1c0,15.5-4.5,29-13.6,40.3c-11,13.9-26.1,20.9-45.1,20.9c-15.6,0-28.4-4.4-38.3-13.1
		C430.1,304.3,424.5,292.7,423,278.2z"/>
</g>
</svg>
