<?xml version="1.0" encoding="utf-8"?>
<!-- Generator: Adobe Illustrator 17.1.0, SVG Export Plug-In . SVG Version: 6.00 Build 0)  -->
<!DOCTYPE svg PUBLIC "-//W3C//DTD SVG 1.1//EN" "http://www.w3.org/Graphics/SVG/1.1/DTD/svg11.dtd">
<svg version="1.1" id="Layer_1" xmlns="http://www.w3.org/2000/svg" xmlns:xlink="http://www.w3.org/1999/xlink" x="0px" y="0px"
	 viewBox="0 0 960 560" enable-background="new 0 0 960 560" xml:space="preserve">
<polygon fill="none" stroke="#000000" stroke-width="26" stroke-miterlimit="10" points="779,526 180,526 180,215.8 479.5,34 
	779,215.8 "/>
<g>
	<path d="M414.9,399.1h44.7c0.4,13.6,1.9,23.4,4.5,29.2c2.6,5.8,6.8,8.7,12.6,8.7c5.8,0,10.1-2.6,13-7.9c2.9-5.2,4.4-13,4.4-23.2
		c0-10.9-2.6-18.7-7.9-23.4c-5.2-4.7-13.9-7.1-26-7.1c-1.9,0-3.4,0-4.4,0.1c-1,0-1.9,0.1-2.7,0.2L453,342h4.6
		c11.8,0,20.3-2.3,25.4-6.9c5.2-4.6,7.7-12.2,7.7-22.8c0-7-1.2-12.3-3.6-16.2c-2.4-3.8-5.9-5.7-10.4-5.7c-5.6,0-9.5,2.2-11.9,6.6
		c-2.4,4.4-3.7,12.6-4.1,24.4h-43.9v-2.8c0-20.2,5.5-36,16.6-47.4c11.1-11.4,26.4-17.1,45.9-17.1c17.6,0,32,5.1,43.2,15.3
		c11.1,10.2,16.7,23.2,16.7,39.2c0,10.6-2.5,19.8-7.6,27.7c-5.1,7.9-12.7,14.6-22.9,20.2c12.2,4.7,21.1,11.3,27,19.8
		c5.8,8.5,8.7,19.2,8.7,32.2c0,20.7-5.8,36.9-17.4,48.5c-11.6,11.6-27.8,17.4-48.5,17.4c-20.2,0-36-6-47.1-18.1
		c-11.2-12.1-16.8-29.1-16.8-51c0-0.6,0-1.7,0.1-3.1C414.8,400.8,414.9,399.7,414.9,399.1z"/>
</g>
</svg>
