<?xml version="1.0" encoding="utf-8"?>
<!-- Generator: Adobe Illustrator 17.1.0, SVG Export Plug-In . SVG Version: 6.00 Build 0)  -->
<!DOCTYPE svg PUBLIC "-//W3C//DTD SVG 1.1//EN" "http://www.w3.org/Graphics/SVG/1.1/DTD/svg11.dtd">
<svg version="1.1" id="Layer_1" xmlns="http://www.w3.org/2000/svg" xmlns:xlink="http://www.w3.org/1999/xlink" x="0px" y="0px"
	 viewBox="0 0 960 560" enable-background="new 0 0 960 560" xml:space="preserve">
<g>
	<circle fill="none" stroke="#000000" stroke-width="9" stroke-miterlimit="10" cx="480.4" cy="280" r="168.3"/>
	<line fill="none" stroke="#000000" stroke-width="17" stroke-miterlimit="10" x1="310" y1="288.5" x2="380" y2="288.5"/>
	<line fill="none" stroke="#000000" stroke-width="17" stroke-miterlimit="10" x1="649" y1="288.5" x2="583" y2="288.5"/>
	<line fill="none" stroke="#000000" stroke-width="17" stroke-miterlimit="10" x1="582.4" y1="142.6" x2="542.7" y2="195.5"/>
	<line fill="none" stroke="#000000" stroke-width="17" stroke-miterlimit="10" x1="378.5" y1="142.6" x2="423.1" y2="202.1"/>
	<line fill="none" stroke="#000000" stroke-width="17" stroke-miterlimit="10" x1="378.5" y1="417.4" x2="424.6" y2="355.9"/>
	<line fill="none" stroke="#000000" stroke-width="17" stroke-miterlimit="10" x1="582.4" y1="417.4" x2="541.1" y2="362.4"/>
</g>
<path d="M480.4,169.3c-61.2,0-110.7,49.6-110.7,110.7c0,61.2,49.6,110.7,110.7,110.7c61.2,0,110.7-49.6,110.7-110.7
	C591.2,218.8,541.6,169.3,480.4,169.3z M497,334h-13v-84.1c-4,3-7.7,6.1-12.8,9.1c-5.2,3-10.2,5.3-14.2,6.8V253
	c8-3.5,13.9-7.7,19.4-12.6c5.5-4.9,9.5-9.4,11.8-14.4h8.7V334z"/>
</svg>
