<?xml version="1.0" encoding="utf-8"?>
<!-- Generator: Adobe Illustrator 17.1.0, SVG Export Plug-In . SVG Version: 6.00 Build 0)  -->
<!DOCTYPE svg PUBLIC "-//W3C//DTD SVG 1.1//EN" "http://www.w3.org/Graphics/SVG/1.1/DTD/svg11.dtd">
<svg version="1.1" id="Layer_1" xmlns="http://www.w3.org/2000/svg" xmlns:xlink="http://www.w3.org/1999/xlink" x="0px" y="0px"
	 viewBox="0 0 3000 1500" enable-background="new 0 0 3000 1500" xml:space="preserve">
<g>
	<circle fill="none" stroke="#000000" stroke-width="78.5544" stroke-miterlimit="10" cx="1500" cy="750" r="371"/>
	<circle fill="none" stroke="#000000" stroke-width="78.5544" stroke-miterlimit="10" cx="1500" cy="750" r="563"/>
	<line fill="none" stroke="#000000" stroke-width="79" stroke-miterlimit="10" x1="1867" y1="763.5" x2="2050" y2="763.5"/>
	<line fill="none" stroke="#000000" stroke-width="79" stroke-miterlimit="10" x1="1133" y1="763.5" x2="950" y2="763.5"/>
	
		<line fill="none" stroke="#000000" stroke-width="78.5544" stroke-miterlimit="10" x1="1303.2" y1="435.3" x2="1211.5" y2="276.6"/>
	
		<line fill="none" stroke="#000000" stroke-width="78.5544" stroke-miterlimit="10" x1="1303.2" y1="1090.9" x2="1211.5" y2="1249.6"/>
	
		<line fill="none" stroke="#000000" stroke-width="78.5544" stroke-miterlimit="10" x1="1674.1" y1="422.2" x2="1765.8" y2="263.5"/>
	
		<line fill="none" stroke="#000000" stroke-width="78.5544" stroke-miterlimit="10" x1="1674.1" y1="1104" x2="1765.8" y2="1262.7"/>
</g>
<rect x="1251.5" y="501.5" fill="none" stroke="#000000" stroke-width="79" stroke-miterlimit="10" width="497" height="497"/>
<g>
	<path d="M1549.5,906.7h-38.3V662.5c-9.2,8.8-21.3,17.6-36.3,26.4c-15,8.8-28.4,15.4-40.3,19.8v-37c21.4-10.1,40.2-22.3,56.2-36.6
		c16-14.3,27.4-28.2,34.1-41.7h24.7V906.7z"/>
</g>
</svg>
