<?xml version="1.0" encoding="utf-8"?>
<!-- Generator: Adobe Illustrator 17.1.0, SVG Export Plug-In . SVG Version: 6.00 Build 0)  -->
<!DOCTYPE svg PUBLIC "-//W3C//DTD SVG 1.1//EN" "http://www.w3.org/Graphics/SVG/1.1/DTD/svg11.dtd">
<svg version="1.1" id="Layer_1" xmlns="http://www.w3.org/2000/svg" xmlns:xlink="http://www.w3.org/1999/xlink" x="0px" y="0px"
	 viewBox="0 0 3000 1500" enable-background="new 0 0 3000 1500" xml:space="preserve">
<g>
	<circle fill="none" stroke="#000000" stroke-width="78.5544" stroke-miterlimit="10" cx="1500" cy="750" r="371"/>
	<circle fill="none" stroke="#000000" stroke-width="78.5544" stroke-miterlimit="10" cx="1500" cy="750" r="563"/>
	<line fill="none" stroke="#000000" stroke-width="79" stroke-miterlimit="10" x1="1867" y1="763.5" x2="2050" y2="763.5"/>
	<line fill="none" stroke="#000000" stroke-width="79" stroke-miterlimit="10" x1="1133" y1="763.5" x2="950" y2="763.5"/>
	
		<line fill="none" stroke="#000000" stroke-width="78.5544" stroke-miterlimit="10" x1="1303.2" y1="435.3" x2="1211.5" y2="276.6"/>
	
		<line fill="none" stroke="#000000" stroke-width="78.5544" stroke-miterlimit="10" x1="1303.2" y1="1090.9" x2="1211.5" y2="1249.6"/>
	
		<line fill="none" stroke="#000000" stroke-width="78.5544" stroke-miterlimit="10" x1="1674.1" y1="422.2" x2="1765.8" y2="263.5"/>
	
		<line fill="none" stroke="#000000" stroke-width="78.5544" stroke-miterlimit="10" x1="1674.1" y1="1104" x2="1765.8" y2="1262.7"/>
</g>
<rect x="1251.5" y="501.5" fill="none" stroke="#000000" stroke-width="79" stroke-miterlimit="10" width="497" height="497"/>
<g>
	<path d="M1397.8,821.5l38.3-5.1c4.4,21.7,11.9,37.4,22.5,46.9c10.6,9.6,23.5,14.4,38.6,14.4c18,0,33.2-6.2,45.7-18.7
		c12.4-12.5,18.6-28,18.6-46.4c0-17.6-5.7-32.1-17.2-43.5c-11.5-11.4-26.1-17.1-43.9-17.1c-7.2,0-16.3,1.4-27,4.3l4.3-33.6
		c2.6,0.3,4.6,0.4,6.2,0.4c16.3,0,31-4.3,44.1-12.8c13.1-8.5,19.6-21.6,19.6-39.4c0-14.1-4.8-25.7-14.3-34.9
		c-9.5-9.2-21.8-13.8-36.8-13.8c-14.9,0-27.3,4.7-37.3,14c-9.9,9.4-16.3,23.4-19.2,42.2l-38.3-6.8c4.7-25.7,15.3-45.6,31.9-59.7
		c16.6-14.1,37.3-21.2,61.9-21.2c17,0,32.7,3.7,47,11c14.3,7.3,25.3,17.3,32.9,29.9c7.6,12.6,11.4,26,11.4,40.2
		c0,13.5-3.6,25.8-10.9,36.8c-7.2,11.1-18,19.9-32.1,26.4c18.4,4.3,32.8,13.1,43,26.5c10.2,13.4,15.3,30.2,15.3,50.3
		c0,27.2-9.9,50.3-29.8,69.3c-19.9,18.9-45,28.4-75.4,28.4c-27.4,0-50.1-8.2-68.2-24.5C1410.7,868.6,1400.4,847.5,1397.8,821.5z"/>
</g>
</svg>
