<?xml version="1.0" encoding="utf-8"?>
<!-- Generator: Adobe Illustrator 17.1.0, SVG Export Plug-In . SVG Version: 6.00 Build 0)  -->
<!DOCTYPE svg PUBLIC "-//W3C//DTD SVG 1.1//EN" "http://www.w3.org/Graphics/SVG/1.1/DTD/svg11.dtd">
<svg version="1.1" id="Layer_1" xmlns="http://www.w3.org/2000/svg" xmlns:xlink="http://www.w3.org/1999/xlink" x="0px" y="0px"
	 viewBox="0 0 960 560" enable-background="new 0 0 960 560" xml:space="preserve">
<g>
	<circle stroke="#000000" stroke-width="13.7162" stroke-miterlimit="10" cx="480" cy="170.2" r="91.4"/>
	<path stroke="#000000" stroke-width="13.7162" stroke-miterlimit="10" d="M420.7,239.9c-0.9,4.1-1.3,8.3-1.3,12.6
		c0,33.5,27.1,60.6,60.6,60.6c33.5,0,60.6-27.1,60.6-60.6c0-4.2-0.4-8.3-1.2-12.2"/>
	<path stroke="#000000" stroke-width="13.7162" stroke-miterlimit="10" d="M437.5,295.1c-2.3,5.5-3.6,11.6-3.6,17.9
		c0,25.5,20.6,46.1,46.1,46.1s46.1-20.6,46.1-46.1c0-6.2-1.2-12.1-3.5-17.6"/>
	<polygon fill="none" stroke="#000000" stroke-width="13.8309" stroke-miterlimit="10" points="480,520 391.7,280 303.4,40 480,40 
		656.6,40 568.3,280 	"/>
</g>
</svg>
