<?xml version="1.0" encoding="utf-8"?>
<!-- Generator: Adobe Illustrator 17.1.0, SVG Export Plug-In . SVG Version: 6.00 Build 0)  -->
<!DOCTYPE svg PUBLIC "-//W3C//DTD SVG 1.1//EN" "http://www.w3.org/Graphics/SVG/1.1/DTD/svg11.dtd">
<svg version="1.1" id="Layer_1" xmlns="http://www.w3.org/2000/svg" xmlns:xlink="http://www.w3.org/1999/xlink" x="0px" y="0px"
	 viewBox="0 0 960 560" enable-background="new 0 0 960 560" xml:space="preserve">
<g>
	<path d="M390.5,392c12.5,8,41.5,20.5,72,20.5c56.5,0,74-36,73.5-63c-0.5-45.5-41.5-65-84-65h-24.5v-33H452c32,0,72.5-16.5,72.5-55
		c0-26-16.5-49-57-49c-26,0-51,11.5-65,21.5L391,137c17-12.5,50-25,85-25c64,0,93,38,93,77.5c0,33.5-20,62-60,76.5v1
		c40,8,72.5,38,72.5,83.5c0,52-40.5,97.5-118.5,97.5c-36.5,0-68.5-11.5-84.5-22L390.5,392z"/>
</g>
</svg>
