<?xml version="1.0" encoding="utf-8"?>
<!-- Generator: Adobe Illustrator 17.1.0, SVG Export Plug-In . SVG Version: 6.00 Build 0)  -->
<!DOCTYPE svg PUBLIC "-//W3C//DTD SVG 1.1//EN" "http://www.w3.org/Graphics/SVG/1.1/DTD/svg11.dtd">
<svg version="1.1" id="Layer_1" xmlns="http://www.w3.org/2000/svg" xmlns:xlink="http://www.w3.org/1999/xlink" x="0px" y="0px"
	 viewBox="0 0 960 560" enable-background="new 0 0 960 560" xml:space="preserve">
<g>
	<path d="M574.5,151.8h-124L438,235.3c7.5-1,14.5-2,26.5-2c25,0,50,5.5,70,17.5c25.5,14.5,46.5,42.5,46.5,83.5
		c0,63.5-50.5,111-121,111c-35.5,0-65.5-10-81-20l11-33.5c13.5,8,40,18,69.5,18c41.5,0,77-27,77-70.5c-0.5-42-28.5-72-93.5-72
		c-18.5,0-33,2-45,3.5l21-156h155.5V151.8z"/>
</g>
</svg>
