<?xml version="1.0" encoding="utf-8"?>
<!-- Generator: Adobe Illustrator 17.1.0, SVG Export Plug-In . SVG Version: 6.00 Build 0)  -->
<!DOCTYPE svg PUBLIC "-//W3C//DTD SVG 1.1//EN" "http://www.w3.org/Graphics/SVG/1.1/DTD/svg11.dtd">
<svg version="1.1" id="Layer_1" xmlns="http://www.w3.org/2000/svg" xmlns:xlink="http://www.w3.org/1999/xlink" x="0px" y="0px"
	 viewBox="0 0 960 560" enable-background="new 0 0 960 560" xml:space="preserve">
<g>
	<path d="M398.3,411.7c9.5,1,20.5,0,35.5-1.5c25.5-3.5,49.5-14,68-31.5c21.5-19.5,37-48,43-86.5h-1.5c-18,22-44,35-76.5,35
		c-58.5,0-96-44-96-99.5c0-61.5,44.5-115.5,111-115.5s107.5,54,107.5,137c0,71.5-24,121.5-56,152.5c-25,24.5-59.5,39.5-94.5,43.5
		c-16,2.5-30,3-40.5,2.5V411.7z M414.3,224.7c0,40.5,24.5,69,62.5,69c29.5,0,52.5-14.5,64-34c2.5-4,4-9,4-16c0-55.5-20.5-98-66.5-98
		C440.8,145.7,414.3,178.7,414.3,224.7z"/>
</g>
</svg>
