<?xml version="1.0" encoding="utf-8"?>
<!-- Generator: Adobe Illustrator 17.1.0, SVG Export Plug-In . SVG Version: 6.00 Build 0)  -->
<!DOCTYPE svg PUBLIC "-//W3C//DTD SVG 1.1//EN" "http://www.w3.org/Graphics/SVG/1.1/DTD/svg11.dtd">
<svg version="1.1" id="Layer_1" xmlns="http://www.w3.org/2000/svg" xmlns:xlink="http://www.w3.org/1999/xlink" x="0px" y="0px"
	 viewBox="0 0 960 560" enable-background="new 0 0 960 560" xml:space="preserve">
<g>
	<path d="M370.3,360c0-41,24.5-70,64.5-87l-0.5-1.5c-36-17-51.5-45-51.5-73c0-51.5,43.5-86.5,100.5-86.5c63,0,94.5,39.5,94.5,80
		c0,27.5-13.5,57-53.5,76v1.5c40.5,16,65.5,44.5,65.5,84c0,56.5-48.5,94.5-110.5,94.5C411.3,448,370.3,407.5,370.3,360z M545.3,358
		c0-39.5-27.5-58.5-71.5-71c-38,11-58.5,36-58.5,67c-1.5,33,23.5,62,65,62C519.8,416,545.3,391.5,545.3,358z M424.3,195.5
		c0,32.5,24.5,50,62,60c28-9.5,49.5-29.5,49.5-59c0-26-15.5-53-55-53C444.3,143.5,424.3,167.5,424.3,195.5z"/>
</g>
</svg>
